<?xml version="1.0" standalone="no"?>
<!DOCTYPE svg PUBLIC "-//W3C//DTD SVG 1.1//EN" "http://www.w3.org/Graphics/SVG/1.1/DTD/svg11.dtd" >
<svg>
<metadata>
Created by FontForge 20120731 at Sat Aug 26 15:20:38 2017
 By www-data
Copyright (c) 2011 Redesign Typeworks, http://redesign.hk/. All rights reserved.
</metadata>
<defs>
<font id="RTWSShangGoG0v1-Regular" horiz-adv-x="1000" vert-adv-y="1000" >
  <font-face 
    font-family="RTWS ShangGothic G0v1 Regular"
    font-weight="400"
    font-stretch="normal"
    units-per-em="1000"
    panose-1="0 0 0 0 0 0 0 0 0 0"
    ascent="880"
    descent="-120"
    x-height="469"
    cap-height="686"
    bbox="-115 -235 2775 900"
    underline-thickness="50"
    underline-position="-50"
    unicode-range="U+0001-FFE5"
  />
<missing-glyph 
d="M187 712l279 -359l-279 -359v718zM215 -42l279 359l279 -359h-558zM522 353l279 359v-718zM494 389l-279 359h558zM143 -86h702v877h-702v-877z" />
    <glyph glyph-name=".notdef" 
d="M187 712l279 -359l-279 -359v718zM215 -42l279 359l279 -359h-558zM522 353l279 359v-718zM494 389l-279 359h558zM143 -86h702v877h-702v-877z" />
    <glyph glyph-name=".null" horiz-adv-x="0" vert-adv-y="0" 
 />
    <glyph glyph-name="nonmarkingreturn" horiz-adv-x="333" 
 />
    <glyph glyph-name="uni0001" horiz-adv-x="260" 
 />
    <glyph glyph-name="uni0001" unicode=" " horiz-adv-x="260" 
 />
    <glyph glyph-name="uni0001" horiz-adv-x="260" 
 />
    <glyph glyph-name="uni0001" horiz-adv-x="260" 
 />
    <glyph glyph-name="uni0001" horiz-adv-x="260" 
 />
    <glyph glyph-name="uni0001" horiz-adv-x="260" 
 />
    <glyph glyph-name="uni0001" horiz-adv-x="260" 
 />
    <glyph glyph-name="uni0001" horiz-adv-x="260" 
 />
    <glyph glyph-name="uni0001" horiz-adv-x="260" 
 />
    <glyph glyph-name="uni0001" horiz-adv-x="260" 
 />
    <glyph glyph-name="uni0001" horiz-adv-x="260" 
 />
    <glyph glyph-name="uni0001" horiz-adv-x="260" 
 />
    <glyph glyph-name="uni0001" horiz-adv-x="260" 
 />
    <glyph glyph-name="uni0001" horiz-adv-x="260" 
 />
    <glyph glyph-name="uni0001" horiz-adv-x="260" 
 />
    <glyph glyph-name="uni0001" horiz-adv-x="260" 
 />
    <glyph glyph-name="uni0001" horiz-adv-x="260" 
 />
    <glyph glyph-name="uni0001" horiz-adv-x="260" 
 />
    <glyph glyph-name="uni0001" horiz-adv-x="260" 
 />
    <glyph glyph-name="uni0001" horiz-adv-x="260" 
 />
    <glyph glyph-name="uni0001" unicode="&#xd;" horiz-adv-x="260" 
 />
    <glyph glyph-name="uni0001" horiz-adv-x="260" 
 />
    <glyph glyph-name="uni0001" horiz-adv-x="260" 
 />
    <glyph glyph-name="uni0001" unicode="&#xa;" horiz-adv-x="260" 
 />
    <glyph glyph-name="uni0001" unicode="&#x9;" horiz-adv-x="260" 
 />
    <glyph glyph-name="uni0001" horiz-adv-x="260" 
 />
    <glyph glyph-name="uni0001" horiz-adv-x="260" 
 />
    <glyph glyph-name="uni0001" horiz-adv-x="260" 
 />
    <glyph glyph-name="uni0001" horiz-adv-x="260" 
 />
    <glyph glyph-name="uni0001" horiz-adv-x="260" 
 />
    <glyph glyph-name="uni0001" horiz-adv-x="260" 
 />
    <glyph glyph-name="uni0001" horiz-adv-x="260" 
 />
    <glyph glyph-name="uni0001" horiz-adv-x="260" 
 />
    <glyph glyph-name="exclam" unicode="!" horiz-adv-x="150" 
d="M18 60l57 -57l56 56l-57 57zM35 687v-506h80v506h-80z" />
    <glyph glyph-name="quotedbl" unicode="&#x22;" horiz-adv-x="300" 
d="M209 728l-68 -218l76 -24l68 218zM82 728l-68 -218l76 -24l68 218z" />
    <glyph glyph-name="numbersign" unicode="#" horiz-adv-x="600" 
d="M233 640l-35 -163h-144v-80h126l-26 -119h-125v-80h108l-33 -152l78 -16l36 168h98l-33 -152l78 -16l36 168h148v80h-130l26 119h130v80h-113l32 147l-78 16l-35 -163h-98l32 147zM262 397h97l-26 -119h-97z" />
    <glyph glyph-name="dollar" unicode="$" horiz-adv-x="500" 
d="M450 661h-158v96h-80v-96h-109l-72 -79v-198l71 -82h110v-218h-145v-80h145v-92h80v92h101l75 88v215l-81 75h-95v199h158v80zM292 84v218h63q8 -7 18 -17q10 -11 15 -15v-151l-31 -35h-65zM139 581h73v-199h-71q-7 9 -16 18q-11 10 -14 14v137z" />
    <glyph glyph-name="percent" unicode="%" horiz-adv-x="820" 
d="M552 85l-9 8v164l9 9h107l10 -10v-161l-11 -10h-106zM691 5l58 53v231l-58 57h-170l-58 -57v-231l58 -53h170zM159 403l-9 8v174l9 9h107l10 -10v-171l-11 -10h-106zM298 323l58 53v241l-58 57h-170l-58 -57v-241l58 -53h170zM585 698l-413 -689l68 -42l413 689z" />
    <glyph glyph-name="ampersand" unicode="&#x26;" horiz-adv-x="650" 
d="M636 40l-131 123l65 73v186h-80v-152l-44 -51l-124 116l120 118v160l-106 73h-151l-102 -88v-146l72 -68l-123 -122v-160l121 -102h206l92 103l127 -119zM112 230l100 99l181 -171l-68 -78h-142l-71 60v90zM265 389l-102 97v77l52 43h95l52 -35v-86z" />
    <glyph glyph-name="quotesingle" unicode="'" horiz-adv-x="150" 
d="M35 718v-220h80v220h-80z" />
    <glyph glyph-name="parenleft" unicode="(" horiz-adv-x="300" 
d="M201 763q-168 -234 -168 -463q0 -228 170 -445l62 50q-152 193 -152 395t154 417z" />
    <glyph glyph-name="parenright" unicode=")" horiz-adv-x="300" 
d="M33 717q154 -215 154 -417t-152 -395l62 -50q170 217 170 445q0 229 -168 463z" />
    <glyph glyph-name="asterisk" unicode="*" horiz-adv-x="400" 
d="M136 353l64 99l64 -99l66 44l-69 106l111 40l-28 76l-104 -38v127h-80v-126l-104 37l-28 -76l111 -40l-69 -106z" />
    <glyph glyph-name="plus" unicode="+" horiz-adv-x="500" 
d="M24 316h186v-186h80v186h186v80h-186v186h-80v-186h-186v-80z" />
    <glyph glyph-name="comma" unicode="," horiz-adv-x="200" 
d="M101 90l-78 -229l76 -26l78 229z" />
    <glyph glyph-name="hyphen" unicode="-" horiz-adv-x="320" 
d="M21 216h277v80h-277v-80z" />
    <glyph glyph-name="period" unicode="." horiz-adv-x="200" 
d="M43 60l57 -57l56 56l-57 57z" />
    <glyph glyph-name="slash" unicode="/" horiz-adv-x="350" 
d="M247 764l-222 -878l78 -20l222 878z" />
    <glyph glyph-name="zero" unicode="0" horiz-adv-x="580" 
d="M210 80q-13 13 -35 33l-34 31v395l68 68h161l69 -70v-393l-68 -64h-161zM401 0l118 110v462l-116 115h-226l-116 -116v-461l115 -110h225z" />
    <glyph glyph-name="one" unicode="1" horiz-adv-x="280" 
d="M233 0v686h-186v-80h106v-606h80z" />
    <glyph glyph-name="two" unicode="2" horiz-adv-x="520" 
d="M68 606h256l65 -61v-85l-59 -66h-181l-99 -115v-278l407 -1v80l-327 1v170l55 63h181l103 114v154l-114 104h-287v-80z" />
    <glyph glyph-name="three" unicode="3" horiz-adv-x="480" 
d="M50 307h251l49 -56v-100l-62 -70h-238v-80h274l106 118v161l-61 69l61 83v131l-106 123h-274v-80h239l61 -73v-77l-51 -69h-249v-80z" />
    <glyph glyph-name="four" unicode="4" horiz-adv-x="550" 
d="M420 0v177h102v80h-102v430h-141l-251 -377v-133h312v-177h80zM340 257h-232v31q37 60 108 160q71 102 107 159h17v-350z" />
    <glyph glyph-name="five" unicode="5" horiz-adv-x="450" 
d="M411 686h-388v-305l82 -103h212l31 -45v-101l-44 -52h-283v-80h321l86 105v155l-71 98h-215l-39 51v197h308v80z" />
    <glyph glyph-name="six" unicode="6" horiz-adv-x="550" 
d="M135 417v147l43 42h299v80h-331l-91 -90v-503l89 -93h274l77 75v265l-77 77h-283zM135 126v211h251l29 -29v-201l-29 -27h-206z" />
    <glyph glyph-name="seven" unicode="7" horiz-adv-x="500" 
d="M27 605h366v-22l-276 -548l72 -34l284 566v118h-446v-80z" />
    <glyph glyph-name="eight" unicode="8" horiz-adv-x="540" 
d="M422 363l71 75v130l-108 118h-230l-108 -118v-130l70 -75l-70 -72v-173l108 -118h230l108 118v173zM349 323l64 -65v-108q-14 -16 -33 -36l-32 -34h-156l-65 70v108l64 65h158zM190 403l-63 65v68q14 16 33 36l32 34h156l65 -70v-68l-63 -65h-160z" />
    <glyph glyph-name="nine" unicode="9" horiz-adv-x="520" 
d="M116 269h287v-145q-11 -11 -25 -23l-23 -21h-305v-80h338l95 89v503l-95 94h-272l-80 -72v-267zM403 349h-255l-32 30v198l31 29h209l47 -46v-211z" />
    <glyph glyph-name="colon" unicode=":" horiz-adv-x="200" 
d="M43 179l57 -57l56 56l-57 57zM43 476l57 -57l56 56l-57 57z" />
    <glyph glyph-name="semicolon" unicode=";" horiz-adv-x="200" 
d="M56 476l57 -57l56 56l-57 57zM107 0l52 181l-76 22l-52 -181z" />
    <glyph glyph-name="less" unicode="&#x3c;" horiz-adv-x="600" 
d="M413 586l-278 -231v-45l279 -227l50 62q-60 48 -230 187l231 192z" />
    <glyph glyph-name="equal" unicode="=" horiz-adv-x="600" 
d="M107 187h386v80h-386v-80zM107 393h386v80h-386v-80z" />
    <glyph glyph-name="greater" unicode="&#x3e;" horiz-adv-x="600" 
d="M135 524l231 -192l-230 -187l50 -62l279 227v45l-278 231z" />
    <glyph glyph-name="question" unicode="?" horiz-adv-x="450" 
d="M169 57l57 -57l56 56l-57 57zM92 517l77 89h110l57 -79v-82l-152 -113v-172h80v134l152 112v149l-96 131h-180l-106 -124z" />
    <glyph glyph-name="at" unicode="@" horiz-adv-x="750" 
d="M703 262v293l-163 131h-346l-148 -141v-464l148 -133h365v80h-333l-100 89v392q-12 -11 100 97h287l110 -89v-228l-51 -75h-34v268h-318v-348h394zM458 214h-158v188h158v-188z" />
    <glyph glyph-name="A" unicode="A" horiz-adv-x="620" 
d="M119 0v216h382v-216h80v366l-231 323h-80l-231 -323v-366h80zM501 296h-382v44l191 265l191 -265v-44z" />
    <glyph glyph-name="B" unicode="B" horiz-adv-x="530" 
d="M447 344l49 31v241l-112 70h-351v-685h351l112 70v242zM113 81v223h249l54 -35v-155l-55 -33h-248zM361 384h-248v222h248l55 -34v-153z" />
    <glyph glyph-name="C" unicode="C" horiz-adv-x="500" 
d="M465 686h-304l-126 -122v-448l127 -116h303v80h-272l-78 73v377l80 76h270v80z" />
    <glyph glyph-name="D" unicode="D" horiz-adv-x="600" 
d="M45 0h384l126 116v448l-125 122h-385v-686zM125 606h271l79 -76v-377q-17 -15 -40 -37l-38 -36h-272v526z" />
    <glyph glyph-name="E" unicode="E" horiz-adv-x="450" 
d="M424 686h-278l-120 -122v-447l120 -117h278v80h-245l-73 72v152h318v80h-318v147l75 75h243v80z" />
    <glyph glyph-name="F" unicode="F" horiz-adv-x="480" 
d="M443 687h-302l-104 -125v-562h80v312h326v80h-326v142l62 73h264v80z" />
    <glyph glyph-name="G" unicode="G" horiz-adv-x="550" 
d="M491 686h-314l-127 -122v-448l128 -116h196l126 101v207l-118 93h-131v-80h103l66 -51v-131l-73 -59h-137l-80 72v378l81 76h280v80z" />
    <glyph glyph-name="H" unicode="H" horiz-adv-x="600" 
d="M50 689v-689h80v313h339v-313h80v689h-80v-296h-339v296h-80z" />
    <glyph glyph-name="I" unicode="I" horiz-adv-x="250" 
d="M223 686h-196v-80h58v-526h-58v-80h196v80h-58v526h58v80z" />
    <glyph glyph-name="J" unicode="J" horiz-adv-x="300" 
d="M192 686v-522l-72 -84h-93v-80h132l113 135v551h-80z" />
    <glyph glyph-name="K" unicode="K" horiz-adv-x="500" 
d="M110 0v290l302 -290l58 56l-296 284l267 288l-58 56l-273 -294v297h-80v-687h80z" />
    <glyph glyph-name="L" unicode="L" horiz-adv-x="450" 
d="M413 80h-297v606h-80v-686h377v80z" />
    <glyph glyph-name="M" unicode="M" horiz-adv-x="700" 
d="M636 1v551l-95 135h-383l-95 -135v-551h80v526l57 80h110v-606h80v606h109q11 -17 29 -41l28 -39v-526h80z" />
    <glyph glyph-name="N" unicode="N" horiz-adv-x="600" 
d="M129 1v584l304 -584h117v685h-80v-584l-304 584h-117v-685h80z" />
    <glyph glyph-name="O" unicode="O" horiz-adv-x="600" 
d="M196 80l-72 73v374q16 16 37 40l35 39h208l72 -79v-374l-72 -73h-208zM436 0l120 121v437l-119 128h-274l-119 -128v-437l120 -121h272z" />
    <glyph glyph-name="P" unicode="P" horiz-adv-x="520" 
d="M118 0v243h253l110 76v291l-110 76h-333v-686h80zM118 323v283h226l57 -38v-207l-57 -38h-226z" />
    <glyph glyph-name="Q" unicode="Q" horiz-adv-x="650" 
d="M429 0l60 63l69 -66l56 58l-69 66v437l-115 129h-281l-114 -131v-433l115 -123h279zM375 174l56 -55l-36 -39h-211l-69 73v375l70 79h209q33 -37 71 -81v-327l-34 33z" />
    <glyph glyph-name="R" unicode="R" horiz-adv-x="550" 
d="M288 278h82l95 78v251l-95 79h-331v-686h80v278h71l196 -278h124v80h-82zM119 358v248h223l43 -37v-176l-43 -35h-223z" />
    <glyph glyph-name="S" unicode="S" horiz-adv-x="450" 
d="M414 687h-326l-73 -86v-209l72 -90h236l31 -35v-146l-30 -41h-290v-80h332l68 96v199l-74 87h-235l-30 38v152l29 35h290v80z" />
    <glyph glyph-name="T" unicode="T" horiz-adv-x="500" 
d="M290 0v606h196v80h-473v-80h197v-606h80z" />
    <glyph glyph-name="U" unicode="U" horiz-adv-x="550" 
d="M426 687v-533l-52 -74h-199l-52 73v534h-80v-559l90 -128h283l90 128v559h-80z" />
    <glyph glyph-name="V" unicode="V" horiz-adv-x="550" 
d="M42 686v-382l193 -304h80l193 304v382h-80v-355l-152 -251h-2l-152 251v355h-80z" />
    <glyph glyph-name="W" unicode="W" horiz-adv-x="750" 
d="M644 687v-528l-61 -78h-168v606h-80v-606h-168q-50 65 -61 78v528h-80v-556l103 -130h492l103 130v556h-80z" />
    <glyph glyph-name="X" unicode="X" horiz-adv-x="520" 
d="M512 42l-205 302l205 303l-66 44l-187 -276l-186 276l-66 -44l204 -303l-204 -302l66 -44l186 275l187 -275z" />
    <glyph glyph-name="Y" unicode="Y" horiz-adv-x="520" 
d="M299 0v331l194 245v110h-80v-84l-154 -187l-153 187v84h-80v-110l193 -245v-331h80z" />
    <glyph glyph-name="Z" unicode="Z" horiz-adv-x="500" 
d="M14 607h390v-8l-390 -483v-116h472v80h-392v8l390 483v116h-470v-80z" />
    <glyph glyph-name="bracketleft" unicode="[" horiz-adv-x="300" 
d="M245 796h-112l-78 -104v-693l79 -100h111v80h-73l-37 48v638l38 51h72v80z" />
    <glyph glyph-name="backslash" unicode="\" horiz-adv-x="350" 
d="M23 742l225 -881l78 20l-225 881z" />
    <glyph glyph-name="bracketright" unicode="]" horiz-adv-x="300" 
d="M50 716h82l37 -51v-643l-37 -48h-82v-80h120l79 100v698l-78 104h-121v-80z" />
    <glyph glyph-name="asciicircum" unicode="^" horiz-adv-x="450" 
d="M109 518l114 124l117 -124l58 54l-175 185l-172 -185z" />
    <glyph glyph-name="underscore" unicode="_" horiz-adv-x="300" 
d="M-20 -155h340v80h-340v-80z" />
    <glyph glyph-name="grave" unicode="`" horiz-adv-x="250" 
d="M214 613l-115 158l-64 -48l115 -158z" />
    <glyph glyph-name="a" unicode="a" horiz-adv-x="450" 
d="M56 390h240l36 -35v-62h-221l-74 -82v-130l75 -81h185l35 31v-31h80v391l-84 79h-272v-80zM117 180q12 14 31 33h184v-73l-66 -60h-121q8 -8 -28 32v68z" />
    <glyph glyph-name="b" unicode="b" horiz-adv-x="450" 
d="M107 470v217h-80v-687h299l97 78v314l-97 78h-219zM107 80v310h191l45 -35v-240l-45 -35h-191z" />
    <glyph glyph-name="c" unicode="c" horiz-adv-x="400" 
d="M376 471h-274l-79 -102v-272l80 -97h273v80h-235l-38 45v218q8 11 20 25q13 15 19 23h234v80z" />
    <glyph glyph-name="d" unicode="d" horiz-adv-x="450" 
d="M343 470h-229l-88 -101v-268l88 -101h309v685h-80v-215zM106 339l43 51h194v-310h-194l-43 51v208z" />
    <glyph glyph-name="e" unicode="e" horiz-adv-x="480" 
d="M393 140l-52 -58h-194l-40 47v212l42 50h175l42 -51v-63h-219v-80h299v174l-84 100h-251l-84 -100v-272l85 -97h265l76 86z" />
    <glyph glyph-name="f" unicode="f" horiz-adv-x="340" 
d="M13 391h105v-391h80v391h117v80h-117v89l38 46h90v80h-126l-82 -97v-118h-105v-80z" />
    <glyph glyph-name="g" unicode="g" horiz-adv-x="480" 
d="M57 -217h302l90 84v603h-80v-38l-45 37h-214l-79 -86v-294l79 -89h223l36 30v-127l-42 -40h-270v-80zM296 389l73 -61v-193q-6 -5 -37 -27q-23 -18 -33 -28h-153l-35 41v229q8 8 18 21q11 13 16 18h151z" />
    <glyph glyph-name="h" unicode="h" horiz-adv-x="450" 
d="M41 682v-682h80v390h170l37 -36v-354h80v390l-85 80h-202v212h-80z" />
    <glyph glyph-name="i" unicode="i" horiz-adv-x="150" 
d="M18 581l57 -57l56 56l-57 57zM35 470v-470h80v470h-80z" />
    <glyph glyph-name="j" unicode="j" horiz-adv-x="250" 
d="M118 588l57 -57l56 56l-57 57zM137 471v-570l-38 -56h-80v-80h122l76 112v594h-80z" />
    <glyph glyph-name="k" unicode="k" horiz-adv-x="430" 
d="M118 0v199l220 -199l54 60l-216 196l216 195l-54 60l-220 -199v374h-80v-686h80z" />
    <glyph glyph-name="l" unicode="l" horiz-adv-x="180" 
d="M130 0v687h-80v-687h80z" />
    <glyph glyph-name="m" unicode="m" horiz-adv-x="650" 
d="M640 0v336l-98 134h-124l-93 -70l-90 70h-126l-99 -134v-336h80v309l59 81h58l78 -60v-330h80v329l79 61h58q13 -17 30 -41l28 -40v-309h80z" />
    <glyph glyph-name="n" unicode="n" horiz-adv-x="480" 
d="M443 0v362l-76 109h-254l-76 -109v-362h80v335l38 56h170l38 -56v-335h80z" />
    <glyph glyph-name="o" unicode="o" horiz-adv-x="500" 
d="M179 80q9 -11 -65 74v159l65 77h142q22 -28 65 -78v-158l-65 -74h-142zM359 0l107 124v216l-107 130h-218l-107 -130v-216l107 -124h218z" />
    <glyph glyph-name="p" unicode="p" horiz-adv-x="480" 
d="M121 -205v205h231l86 101v269l-86 100h-311v-675h80zM121 80v310h193l44 -50v-209q-8 -10 -23 -26l-22 -25h-192z" />
    <glyph glyph-name="q" unicode="q" horiz-adv-x="480" 
d="M133 1h218v-205h80v675h-298l-85 -99v-272zM351 81h-183l-40 49v212l40 49h183v-310z" />
    <glyph glyph-name="r" unicode="r" horiz-adv-x="330" 
d="M32 509v-509h80v222l104 165h82v80h-126l-60 -95v137h-80z" />
    <glyph glyph-name="s" unicode="s" horiz-adv-x="400" 
d="M357 471h-265l-59 -68v-142l59 -70h173l22 -19v-69l-22 -23h-220v-80h254l68 73v133l-72 65h-167l-15 19v85l15 16h229v80z" />
    <glyph glyph-name="t" unicode="t" horiz-adv-x="350" 
d="M18 470h105v166h80v-166h117v-80h-117v-264l38 -46h90v-80h-126l-82 97v293h-105v80z" />
    <glyph glyph-name="u" unicode="u" horiz-adv-x="480" 
d="M363 471v-330l-65 -60h-144l-38 56v334h-80v-361l76 -109h217l34 31v-32h80v471h-80z" />
    <glyph glyph-name="v" unicode="v" horiz-adv-x="500" 
d="M41 469v-211l174 -258h69l174 258v211h-80v-188l-129 -190l-128 190v188h-80z" />
    <glyph glyph-name="w" unicode="w" horiz-adv-x="630" 
d="M523 471v-305l-59 -86h-108v391h-80v-391h-109l-60 84v307h-80v-332l98 -139h381l97 139v332h-80z" />
    <glyph glyph-name="x" unicode="x" horiz-adv-x="450" 
d="M430 46l-157 192l157 193l-60 45l-145 -178l-145 178l-60 -45l156 -193l-156 -192l60 -45l145 178l145 -178z" />
    <glyph glyph-name="y" unicode="y" horiz-adv-x="450" 
d="M14 -222h186l235 580v113h-80v-98q-18 -47 -116 -283l-121 282v99h-80v-114l159 -371q-34 -84 -51 -128h-132v-80z" />
    <glyph glyph-name="z" unicode="z" horiz-adv-x="420" 
d="M12 391h296l-295 -290v-101h394v80h-304l296 290v101h-387v-80z" />
    <glyph glyph-name="braceleft" unicode="{" horiz-adv-x="300" 
d="M267 818l-158 -45v-345l-99 -57v-81q-12 6 99 -56v-319l158 -45l22 78l-100 29v305q-14 7 -42 23l-45 26l87 49v331l100 29z" />
    <glyph glyph-name="bar" unicode="|" horiz-adv-x="200" 
d="M140 -125v880h-80v-880h80z" />
    <glyph glyph-name="braceright" unicode="}" horiz-adv-x="300" 
d="M10 739l100 -29v-321q14 -7 41 -23l46 -27l-87 -48v-320l-100 -29l22 -78l158 45v334l99 57v81q12 -6 -99 56v335l-158 45z" />
    <glyph glyph-name="asciitilde" unicode="~" horiz-adv-x="500" 
d="M453 378h-128l-145 116h-134v-80h107l145 -116h155v80z" />
    <glyph glyph-name="yen" unicode="&#xa5;" horiz-adv-x="550" 
d="M315 0v142h194v80h-194v47h194v80h-163l153 248v89h-80v-66l-145 -235l-144 234v67h-80v-89l153 -248h-163v-80h195v-47h-195v-80h195v-142h80z" />
    <glyph glyph-name="copyright" unicode="&#xa9;" horiz-adv-x="750" 
d="M510 531h-232l-85 -84v-221l85 -85h232v80h-200l-37 37v157l37 36h200v80zM198 113l-50 48v351q12 11 27 27l24 25h351l52 -52v-351l-51 -48h-353zM581 33l101 94v420l-99 97h-417l-98 -97v-420l100 -94h413z" />
    <glyph glyph-name="degree" unicode="&#xb0;" horiz-adv-x="300" 
d="M118 562l-2 1v61l2 2h62l3 -3v-58l-4 -3h-61zM203 503l39 35v109l-39 38h-107l-39 -38v-109l39 -35h107z" />
    <glyph glyph-name="periodcentered" unicode="&#xb7;" horiz-adv-x="400" 
d="M143 353l57 -57l56 56l-57 57z" />
    <glyph glyph-name="periodcentered" unicode="&#x30fb;" horiz-adv-x="400" 
d="M143 353l57 -57l56 56l-57 57z" />
    <glyph glyph-name="periodcentered" unicode="&#x2022;" horiz-adv-x="400" 
d="M143 353l57 -57l56 56l-57 57z" />
    <glyph glyph-name="endash" unicode="&#x2013;" horiz-adv-x="700" 
d="M581 385h-462v-80h462v80z" />
    <glyph glyph-name="emdash" unicode="&#x2014;" 
d="M40 302h920v80h-920v-80z" />
    <glyph glyph-name="quoteleft" unicode="&#x2018;" 
d="M851 774l-71 -200l76 -26l71 200z" />
    <glyph glyph-name="quoteright" unicode="&#x2019;" 
d="M129 774l-72 -199l76 -28l72 199z" />
    <glyph glyph-name="quotedblleft" unicode="&#x201c;" 
d="M843 770l-59 -200l76 -22l59 200zM694 770l-59 -200l76 -22l59 200z" />
    <glyph glyph-name="quotedblright" unicode="&#x201d;" 
d="M276 770l-59 -200l76 -22l59 200zM127 770l-59 -200l76 -22l59 200z" />
    <glyph glyph-name="ellipsis" unicode="&#x2026;" 
d="M443 352l57 -57l56 56l-57 57zM750 352l57 -57l56 56l-57 57zM137 352l57 -57l56 56l-57 57z" />
    <glyph glyph-name="ellipsis" unicode="&#x22ef;" 
d="M443 352l57 -57l56 56l-57 57zM750 352l57 -57l56 56l-57 57zM137 352l57 -57l56 56l-57 57z" />
    <glyph glyph-name="uni205D" unicode="&#x205d;" 
d="M472 437l-57 -57l56 -56l57 57zM472 130l-57 -57l56 -56l57 57zM472 743l-57 -57l56 -56l57 57z" />
    <glyph glyph-name="uni205D" unicode="&#xfe19;" 
d="M472 437l-57 -57l56 -56l57 57zM472 130l-57 -57l56 -56l57 57zM472 743l-57 -57l56 -56l57 57z" />
    <glyph glyph-name="uni205D" unicode="&#xe796;" 
d="M472 437l-57 -57l56 -56l57 57zM472 130l-57 -57l56 -56l57 57zM472 743l-57 -57l56 -56l57 57z" />
    <glyph glyph-name="Euro" unicode="&#x20ac;" horiz-adv-x="550" 
d="M46 210h59v-51l131 -158h267v80h-229l-89 106v23h249v80h-249v90h249v80h-249v40l90 106h228v80h-267l-131 -156v-70h-59v-80h59v-90h-59v-80z" />
    <glyph glyph-name="Euro" unicode="&#xe76c;" horiz-adv-x="550" 
d="M46 210h59v-51l131 -158h267v80h-229l-89 106v23h249v80h-249v90h249v80h-249v40l90 106h228v80h-267l-131 -156v-70h-59v-80h59v-90h-59v-80z" />
    <glyph glyph-name="trademark" unicode="&#x2122;" horiz-adv-x="750" 
d="M715 421v223l-61 83h-249l-62 -80v-226h80v196l22 30h44v-226h80v226h45q5 -8 12 -15q8 -10 9 -12v-199h80zM305 727h-271v-80h96v-226h80v226h95v80z" />
    <glyph glyph-name="uni2F00" unicode="&#x2f00;" 
d="M949 411h-898v-72h898v72z" />
    <glyph glyph-name="uni2F00" unicode="&#x4e00;" 
d="M949 411h-898v-72h898v72z" />
    <glyph glyph-name="uni2F01" unicode="&#x2f01;" 
d="M464 828v-896h72v896h-72z" />
    <glyph glyph-name="uni2F01" unicode="&#x4e28;" 
d="M464 828v-896h72v896h-72z" />
    <glyph glyph-name="uni2F02" unicode="&#x2f02;" 
d="M337 517l273 -291l52 48l-273 291z" />
    <glyph glyph-name="uni2F02" unicode="&#x4e36;" 
d="M337 517l273 -291l52 48l-273 291z" />
    <glyph glyph-name="uni2F03" unicode="&#x2f03;" 
d="M584 830v-560l-241 -278l54 -47l259 300v585h-72z" />
    <glyph glyph-name="uni2F03" unicode="&#x4e3f;" 
d="M584 830v-560l-241 -278l54 -47l259 300v585h-72z" />
    <glyph glyph-name="uni2F04" unicode="&#x2f04;" 
d="M882 139l-122 -119h-622v12l714 662v109h-782v-72h710v-7l-714 -661v-115h724l143 139z" />
    <glyph glyph-name="uni2F04" unicode="&#x4e59;" 
d="M882 139l-122 -119h-622v12l714 662v109h-782v-72h710v-7l-714 -661v-115h724l143 139z" />
    <glyph glyph-name="uni2F06" unicode="&#x2f06;" 
d="M913 787h-827v-72h827v72zM949 43h-899v-72h899v72z" />
    <glyph glyph-name="uni2F06" unicode="&#x4e8c;" 
d="M913 787h-827v-72h827v72zM949 43h-899v-72h899v72z" />
    <glyph glyph-name="uni2F07" unicode="&#x2f07;" 
d="M573 706l-96 95l-50 -50l95 -95zM949 574h-898v-72h898v72z" />
    <glyph glyph-name="uni2F07" unicode="&#x4ea0;" 
d="M573 706l-96 95l-50 -50l95 -95zM949 574h-898v-72h898v72z" />
    <glyph glyph-name="uni2F08" unicode="&#x2f08;" 
d="M931 -7l-395 466v371h-72v-371l-395 -466l56 -47l375 443l375 -443z" />
    <glyph glyph-name="uni2F08" unicode="&#x4eba;" 
d="M931 -7l-395 466v371h-72v-371l-395 -466l56 -47l375 443l375 -443z" />
    <glyph glyph-name="uni2F09" unicode="&#x2f09;" 
d="M611 827v-877h241l80 227l-68 24q-9 -27 -32 -90q-21 -57 -32 -89h-117v805h-72zM249 827v-648l-181 -182l50 -50l203 203v677h-72z" />
    <glyph glyph-name="uni2F09" unicode="&#x513f;" 
d="M611 827v-877h241l80 227l-68 24q-9 -27 -32 -90q-21 -57 -32 -89h-117v805h-72zM249 827v-648l-181 -182l50 -50l203 203v677h-72z" />
    <glyph glyph-name="uni2F0A" unicode="&#x2f0a;" 
d="M330 780l126 -196l-391 -605l61 -39l373 577l374 -577l61 39l-543 841z" />
    <glyph glyph-name="uni2F0A" unicode="&#x5165;" 
d="M330 780l126 -196l-391 -605l61 -39l373 577l374 -577l61 39l-543 841z" />
    <glyph glyph-name="uni2F0B" unicode="&#x2f0b;" 
d="M616 750l248 -816l68 22l-248 815zM294 771l-226 -816l70 -20l226 816z" />
    <glyph glyph-name="uni2F0B" unicode="&#x516b;" 
d="M616 750l248 -816l68 22l-248 815zM294 771l-226 -816l70 -20l226 816z" />
    <glyph glyph-name="uni2F0C" unicode="&#x2f0c;" 
d="M729 -54h182v839h-823v-855h72v783h679v-695h-110v-72z" />
    <glyph glyph-name="uni2F0C" unicode="&#x5182;" 
d="M729 -54h182v839h-823v-855h72v783h679v-695h-110v-72z" />
    <glyph glyph-name="uni2F0D" unicode="&#x2f0d;" 
d="M933 667v183h-867v-183h72v111h723v-111h72z" />
    <glyph glyph-name="uni2F0D" unicode="&#x5196;" 
d="M933 667v183h-867v-183h72v111h723v-111h72z" />
    <glyph glyph-name="uni2F0E" unicode="&#x2f0e;" 
d="M477 97l96 96l-51 50l-95 -95zM427 647l95 -95l51 50l-96 96z" />
    <glyph glyph-name="uni2F0E" unicode="&#x51ab;" 
d="M477 97l96 96l-51 50l-95 -95zM427 647l95 -95l51 50l-96 96z" />
    <glyph glyph-name="uni2F0F" unicode="&#x2f0f;" 
d="M861 182q-7 -27 -23 -81l-23 -81h-81v792h-533v-639l-132 -193l59 -40l145 212v588h389v-792h209l60 216z" />
    <glyph glyph-name="uni2F0F" unicode="&#x51e0;" 
d="M861 182q-7 -27 -23 -81l-23 -81h-81v792h-533v-639l-132 -193l59 -40l145 212v588h389v-792h209l60 216z" />
    <glyph glyph-name="uni2F10" unicode="&#x2f10;" 
d="M835 720v-705h-671v705h-72v-777h815v777h-72z" />
    <glyph glyph-name="uni2F10" unicode="&#x51f5;" 
d="M835 720v-705h-671v705h-72v-777h815v777h-72z" />
    <glyph glyph-name="uni2F11" unicode="&#x2f11;" 
d="M678 -52h240v860h-832v-72h203v-499l-208 -244l54 -47l226 266v524h485v-716h-168v-72z" />
    <glyph glyph-name="uni2F11" unicode="&#x5200;" 
d="M678 -52h240v860h-832v-72h203v-499l-208 -244l54 -47l226 266v524h485v-716h-168v-72z" />
    <glyph glyph-name="uni2F12" unicode="&#x2f12;" 
d="M684 -51h242v693h-471l48 158l-69 20l-53 -178h-291v-72h269q-110 -366 -164 -549h-121v-72h174l186 621h420v-549h-170v-72z" />
    <glyph glyph-name="uni2F12" unicode="&#x529b;" 
d="M684 -51h242v693h-471l48 158l-69 20l-53 -178h-291v-72h269q-110 -366 -164 -549h-121v-72h174l186 621h420v-549h-170v-72z" />
    <glyph glyph-name="uni2F13" unicode="&#x2f13;" 
d="M654 -51h265v755h-658v124h-72v-152l-108 -251l66 -29l102 236h598v-611h-193v-72z" />
    <glyph glyph-name="uni2F13" unicode="&#x52f9;" 
d="M654 -51h265v755h-658v124h-72v-152l-108 -251l66 -29l102 236h598v-611h-193v-72z" />
    <glyph glyph-name="uni2F14" unicode="&#x2f14;" 
d="M833 181l-113 -157h-541v337l634 265l-27 66l-607 -253v390h-72v-877h652l133 188z" />
    <glyph glyph-name="uni2F14" unicode="&#x5315;" 
d="M833 181l-113 -157h-541v337l634 265l-27 66l-607 -253v390h-72v-877h652l133 188z" />
    <glyph glyph-name="uni2F15" unicode="&#x2f15;" 
d="M911 21h-750v719h750v72h-822v-863h822v72z" />
    <glyph glyph-name="uni2F15" unicode="&#x531a;" 
d="M911 21h-750v719h750v72h-822v-863h822v72z" />
    <glyph glyph-name="uni2F17" unicode="&#x2f17;" 
d="M949 480h-413v348h-72v-348h-413v-72h413v-476h72v476h413v72z" />
    <glyph glyph-name="uni2F17" unicode="&#x5341;" 
d="M949 480h-413v348h-72v-348h-413v-72h413v-476h72v476h413v72z" />
    <glyph glyph-name="uni2F18" unicode="&#x2f18;" 
d="M740 251l-221 342l-61 -39l221 -342zM332 -67v895h-72v-895h72z" />
    <glyph glyph-name="uni2F18" unicode="&#x535c;" 
d="M740 251l-221 342l-61 -39l221 -342zM332 -67v895h-72v-895h72z" />
    <glyph glyph-name="uni2F19" unicode="&#x2f19;" 
d="M333 -70v797h334v-550h-218v-72h290v694h-478v-869h72z" />
    <glyph glyph-name="uni2F19" unicode="&#x5369;" 
d="M333 -70v797h334v-550h-218v-72h290v694h-478v-869h72z" />
    <glyph glyph-name="uni2F1A" unicode="&#x2f1a;" 
d="M941 804h-803v-711l-79 -110l58 -43l93 130v662h731v72z" />
    <glyph glyph-name="uni2F1A" unicode="&#x5382;" 
d="M941 804h-803v-711l-79 -110l58 -43l93 130v662h731v72z" />
    <glyph glyph-name="uni2F1B" unicode="&#x2f1b;" 
d="M455 823l-345 -785v-88h682l97 211l-65 31l-77 -170h-564l339 773z" />
    <glyph glyph-name="uni2F1B" unicode="&#x53b6;" 
d="M455 823l-345 -785v-88h682l97 211l-65 31l-77 -170h-564l339 773z" />
    <glyph glyph-name="uni2F1C" unicode="&#x2f1c;" 
d="M108 -56l392 268l392 -268l42 60l-370 252l283 194v362h-716v-72h644v-251l-275 -188l-138 94q-84 57 -137 94v190h-72v-229l282 -194l-369 -252z" />
    <glyph glyph-name="uni2F1C" unicode="&#x53c8;" 
d="M108 -56l392 268l392 -268l42 60l-370 252l283 194v362h-716v-72h644v-251l-275 -188l-138 94q-84 57 -137 94v190h-72v-229l282 -194l-369 -252z" />
    <glyph glyph-name="uni2F1D" unicode="&#x2f1d;" 
d="M124 751v-741h752v741h-752zM804 679v-597h-608v597h608z" />
    <glyph glyph-name="uni2F1D" unicode="&#x53e3;" 
d="M124 751v-741h752v741h-752zM804 679v-597h-608v597h608z" />
    <glyph glyph-name="uni2F1E" unicode="&#x2f1e;" 
d="M119 743v-745h762v745h-762zM809 671v-601h-618v601h618z" />
    <glyph glyph-name="uni2F1E" unicode="&#x56d7;" 
d="M119 743v-745h762v745h-762zM809 671v-601h-618v601h618z" />
    <glyph glyph-name="uni2F1F" unicode="&#x2f1f;" 
d="M890 542h-355v287h-72v-287h-355v-72h355v-445h-413v-72h899v72h-414v445h355v72z" />
    <glyph glyph-name="uni2F1F" unicode="&#x571f;" 
d="M890 542h-355v287h-72v-287h-355v-72h355v-445h-413v-72h899v72h-414v445h355v72z" />
    <glyph glyph-name="uni2F20" unicode="&#x2f20;" 
d="M948 539h-413v288h-72v-288h-412v-72h412v-446h-355v-72h783v72h-356v446h413v72z" />
    <glyph glyph-name="uni2F20" unicode="&#x58eb;" 
d="M948 539h-413v288h-72v-288h-412v-72h412v-446h-355v-72h783v72h-356v446h413v72z" />
    <glyph glyph-name="uni2F21" unicode="&#x2f21;" 
d="M237 827v-165l-160 -236l59 -39l58 85l249 -192l-365 -277l43 -58l381 290l378 -290l43 58l-361 277l262 200v208h-515v139h-72zM503 326l-269 206l57 84h461v-101z" />
    <glyph glyph-name="uni2F21" unicode="&#x5902;" 
d="M237 827v-165l-160 -236l59 -39l58 85l249 -192l-365 -277l43 -58l381 290l378 -290l43 58l-361 277l262 200v208h-515v139h-72zM503 326l-269 206l57 84h461v-101z" />
    <glyph glyph-name="uni2F23" unicode="&#x2f23;" 
d="M319 828v-140l-246 -196l45 -56l249 199h487v-127l-353 -286l-198 241l-56 -46l198 -241l-216 -175l45 -56l652 528v234h-535v121h-72z" />
    <glyph glyph-name="uni2F23" unicode="&#x5915;" 
d="M319 828v-140l-246 -196l45 -56l249 199h487v-127l-353 -286l-198 241l-56 -46l198 -241l-216 -175l45 -56l652 528v234h-535v121h-72z" />
    <glyph glyph-name="uni2F24" unicode="&#x2f24;" 
d="M948 574h-412v253h-72v-253h-413v-72h392l-376 -518l58 -42l375 517l374 -517l58 42l-375 518h391v72z" />
    <glyph glyph-name="uni2F24" unicode="&#x5927;" 
d="M948 574h-412v253h-72v-253h-413v-72h392l-376 -518l58 -42l375 517l374 -517l58 42l-375 518h391v72z" />
    <glyph glyph-name="uni2F25" unicode="&#x2f25;" 
d="M217 827v-208h-166v-72h166v-254l200 -100l-359 -179l32 -65l408 203l408 -203l32 65l-359 179l200 100v254h170v72h-660v208h-72zM498 234q-23 12 -105 52q-65 32 -104 52v209h418v-209z" />
    <glyph glyph-name="uni2F25" unicode="&#x5973;" 
d="M217 827v-208h-166v-72h166v-254l200 -100l-359 -179l32 -65l408 203l408 -203l32 65l-359 179l200 100v254h170v72h-660v208h-72zM498 234q-23 12 -105 52q-65 32 -104 52v209h418v-209z" />
    <glyph glyph-name="uni2F26" unicode="&#x2f26;" 
d="M107 737h685v-19l-315 -202v-116h-426v-72h426v-306h-188v-72h260v378h399v72h-399v74l315 203v132h-757v-72z" />
    <glyph glyph-name="uni2F26" unicode="&#x5b50;" 
d="M107 737h685v-19l-315 -202v-116h-426v-72h426v-306h-188v-72h260v378h399v72h-399v74l315 203v132h-757v-72z" />
    <glyph glyph-name="uni2F27" unicode="&#x2f27;" 
d="M573 734l-94 98l-52 -48l94 -98zM141 425v154h718v-149h72v221h-862v-226h72z" />
    <glyph glyph-name="uni2F27" unicode="&#x5b80;" 
d="M573 734l-94 98l-52 -48l94 -98zM141 425v154h718v-149h72v221h-862v-226h72z" />
    <glyph glyph-name="uni2F28" unicode="&#x2f28;" 
d="M948 672h-219v158h-72v-158h-606v-72h606v-578h-265v-72h337v650h219v72zM389 306l-93 97l-53 -48l94 -97z" />
    <glyph glyph-name="uni2F28" unicode="&#x5bf8;" 
d="M948 672h-219v158h-72v-158h-606v-72h606v-578h-265v-72h337v650h219v72zM389 306l-93 97l-53 -48l94 -97z" />
    <glyph glyph-name="uni2F29" unicode="&#x2f29;" 
d="M711 592l152 -446l68 24l-152 445zM220 615l-152 -445l68 -24l152 446zM465 830v-807h-149v-72h221v879h-72z" />
    <glyph glyph-name="uni2F29" unicode="&#x5c0f;" 
d="M711 592l152 -446l68 24l-152 445zM220 615l-152 -445l68 -24l152 446zM465 830v-807h-149v-72h221v879h-72z" />
    <glyph glyph-name="uni2F2A" unicode="&#x2f2a;" 
d="M948 626h-472v203h-72v-203h-353v-72h329l-312 -580l63 -35l330 615h487v72zM508 480v-531h311l115 164l-60 41l-93 -133h-201v459h-72z" />
    <glyph glyph-name="uni2F2A" unicode="&#x5c22;" 
d="M948 626h-472v203h-72v-203h-353v-72h329l-312 -580l63 -35l330 615h487v72zM508 480v-531h311l115 164l-60 41l-93 -133h-201v459h-72z" />
    <glyph glyph-name="uni2F2B" unicode="&#x2f2b;" 
d="M261 94v331h643v385h-715v-695l-94 -129l58 -41zM261 497v241h571v-241h-571z" />
    <glyph glyph-name="uni2F2B" unicode="&#x5c38;" 
d="M261 94v331h643v385h-715v-695l-94 -129l58 -41zM261 497v241h571v-241h-571z" />
    <glyph glyph-name="uni2F2C" unicode="&#x2f2c;" 
d="M536 -69v322h393v425h-72v-353h-321v504h-72v-504h-322v353h-72v-425h394v-322h72z" />
    <glyph glyph-name="uni2F2C" unicode="&#x5c6e;" 
d="M536 -69v322h393v425h-72v-353h-321v504h-72v-504h-322v353h-72v-425h394v-322h72z" />
    <glyph glyph-name="uni2F2D" unicode="&#x2f2d;" 
d="M89 677v-727h821v727h-72v-655h-302v808h-72v-808h-303v655h-72z" />
    <glyph glyph-name="uni2F2D" unicode="&#x5c71;" 
d="M89 677v-727h821v727h-72v-655h-302v808h-72v-808h-303v655h-72z" />
    <glyph glyph-name="uni2F2E" unicode="&#x2f2e;" 
d="M837 819l-195 -437l195 -438l66 28l-182 410l182 409zM568 819l-194 -437l194 -438l67 28l-182 410l182 409zM291 819l-194 -437l194 -438l67 28l-182 410l182 409z" />
    <glyph glyph-name="uni2F2E" unicode="&#x5ddb;" 
d="M837 819l-195 -437l195 -438l66 28l-182 410l182 409zM568 819l-194 -437l194 -438l67 28l-182 410l182 409zM291 819l-194 -437l194 -438l67 28l-182 410l182 409z" />
    <glyph glyph-name="uni2F2F" unicode="&#x2f2f;" 
d="M51 -41h898v72h-413v692h377v72h-826v-72h377v-692h-413v-72z" />
    <glyph glyph-name="uni2F2F" unicode="&#x5de5;" 
d="M51 -41h898v72h-413v692h377v72h-826v-72h377v-692h-413v-72z" />
    <glyph glyph-name="uni2F30" unicode="&#x2f30;" 
d="M81 738h697v-278h-673v-509h698l115 122l-53 49l-92 -99h-596v365h673v422h-769v-72z" />
    <glyph glyph-name="uni2F30" unicode="&#x5df1;" 
d="M81 738h697v-278h-673v-509h698l115 122l-53 49l-92 -99h-596v365h673v422h-769v-72z" />
    <glyph glyph-name="uni2F31" unicode="&#x2f31;" 
d="M709 77h195v592h-368v160h-72v-160h-368v-609h72v537h296v-667h72v667h296v-448h-123v-72z" />
    <glyph glyph-name="uni2F31" unicode="&#x5dfe;" 
d="M709 77h195v592h-368v160h-72v-160h-368v-609h72v537h296v-667h72v667h296v-448h-123v-72z" />
    <glyph glyph-name="uni2F32" unicode="&#x2f32;" 
d="M51 370h413v-440h72v440h413v72h-413v295h354v72h-779v-72h353v-295h-413v-72z" />
    <glyph glyph-name="uni2F32" unicode="&#x5e72;" 
d="M51 370h413v-440h72v440h413v72h-413v295h354v72h-779v-72h353v-295h-413v-72z" />
    <glyph glyph-name="uni2F33" unicode="&#x2f33;" 
d="M432 813l-327 -348v-100h330l-350 -329v-85h695l134 215l-61 38l-114 -181h-564l639 600l-49 52l-254 -238h-334l307 327z" />
    <glyph glyph-name="uni2F33" unicode="&#x5e7a;" 
d="M432 813l-327 -348v-100h330l-350 -329v-85h695l134 215l-61 38l-114 -181h-564l639 600l-49 52l-254 -238h-334l307 327z" />
    <glyph glyph-name="uni2F34" unicode="&#x2f34;" 
d="M941 736h-356v93h-72v-93h-378v-643l-77 -109l59 -42l90 128v594h734v72z" />
    <glyph glyph-name="uni2F34" unicode="&#x5e7f;" 
d="M941 736h-356v93h-72v-93h-378v-643l-77 -109l59 -42l90 128v594h734v72z" />
    <glyph glyph-name="uni2F35" unicode="&#x2f35;" 
d="M123 -62l100 159l128 -149h594v72h-561l-121 141l84 134v181h-196v19l196 168v115h-293v-72h221v-11l-196 -168v-123h196v-89l-61 -97l-96 113l-54 -47l110 -130l-112 -179z" />
    <glyph glyph-name="uni2F35" unicode="&#x5ef4;" 
d="M123 -62l100 159l128 -149h594v72h-561l-121 141l84 134v181h-196v19l196 168v115h-293v-72h221v-11l-196 -168v-123h196v-89l-61 -97l-96 113l-54 -47l110 -130l-112 -179z" />
    <glyph glyph-name="uni2F36" unicode="&#x2f36;" 
d="M51 395h221v-202l-207 -196l49 -52l230 217v233h322v-463h72v463h211v72h-211v361h-72v-361h-322v361h-72v-361h-221v-72z" />
    <glyph glyph-name="uni2F36" unicode="&#x5efe;" 
d="M51 395h221v-202l-207 -196l49 -52l230 217v233h322v-463h72v463h211v72h-211v361h-72v-361h-322v361h-72v-361h-221v-72z" />
    <glyph glyph-name="uni2F37" unicode="&#x2f37;" 
d="M52 484h370l226 -534h267v72h-219l-195 462h447v72h-478l-112 267l-67 -28l101 -239h-340v-72zM765 696l-94 97l-52 -49l93 -97z" />
    <glyph glyph-name="uni2F37" unicode="&#x5f0b;" 
d="M52 484h370l226 -534h267v72h-219l-195 462h447v72h-478l-112 267l-67 -28l101 -239h-340v-72zM765 696l-94 97l-52 -49l93 -97z" />
    <glyph glyph-name="uni2F38" unicode="&#x2f38;" 
d="M103 738h704v-197h-687v-326h713v-192h-738v-72h810v336h-713v182h687v341h-776v-72z" />
    <glyph glyph-name="uni2F38" unicode="&#x5f13;" 
d="M103 738h704v-197h-687v-326h713v-192h-738v-72h810v336h-713v182h687v341h-776v-72z" />
    <glyph glyph-name="uni2F39" unicode="&#x2f39;" 
d="M82 327h764v-307h-764v-72h836v853h-836v-72h764v-330h-764v-72z" />
    <glyph glyph-name="uni2F39" unicode="&#x5f50;" 
d="M82 327h764v-307h-764v-72h836v853h-836v-72h764v-330h-764v-72z" />
    <glyph glyph-name="uni2F3A" unicode="&#x2f3a;" 
d="M832 815l-44 -36q-30 -24 -45 -37h-623v-72h651l108 89zM832 457l-44 -36q-30 -24 -45 -37h-623v-72h651l108 89zM832 95l-44 -36q-30 -24 -45 -37h-623v-72h651l108 89z" />
    <glyph glyph-name="uni2F3A" unicode="&#x5f61;" 
d="M832 815l-44 -36q-30 -24 -45 -37h-623v-72h651l108 89zM832 457l-44 -36q-30 -24 -45 -37h-623v-72h651l108 89zM832 95l-44 -36q-30 -24 -45 -37h-623v-72h651l108 89z" />
    <glyph glyph-name="uni2F3B" unicode="&#x2f3b;" 
d="M299 224l196 146v-440h72v494l177 132l-43 57l-445 -331zM308 490l358 266l-44 58l-357 -267z" />
    <glyph glyph-name="uni2F3B" unicode="&#x5f73;" 
d="M299 224l196 146v-440h72v494l177 132l-43 57l-445 -331zM308 490l358 266l-44 58l-357 -267z" />
    <glyph glyph-name="uni2F3C" unicode="&#x2f3c;" 
d="M604 681l-95 98l-52 -51l95 -98zM926 343l-96 98l-52 -50l95 -98zM740 210l-82 -191h-294v652h-72v-724h415l100 234zM126 279l96 98l-52 51l-96 -98z" />
    <glyph glyph-name="uni2F3C" unicode="&#x5fc3;" 
d="M604 681l-95 98l-52 -51l95 -98zM926 343l-96 98l-52 -50l95 -98zM740 210l-82 -191h-294v652h-72v-724h415l100 234zM126 279l96 98l-52 51l-96 -98z" />
    <glyph glyph-name="uni2F3D" unicode="&#x2f3d;" 
d="M918 22h-273l-60 193l282 160l-36 63l-268 -152l-70 229h449v72h-471l-73 236l-68 -21l66 -215h-338v-72h360l82 -265l-414 -236l36 -63l400 228l71 -229h325v72zM795 706l-93 98l-53 -49l94 -97z" />
    <glyph glyph-name="uni2F3D" unicode="&#x6208;" 
d="M918 22h-273l-60 193l282 160l-36 63l-268 -152l-70 229h449v72h-471l-73 236l-68 -21l66 -215h-338v-72h360l82 -265l-414 -236l36 -63l400 228l71 -229h325v72zM795 706l-93 98l-53 -49l94 -97z" />
    <glyph glyph-name="uni2F3F" unicode="&#x2f3f;" 
d="M855 813l-85 -43h-642v-72h336v-160h-361v-72h361v-159h-413v-72h413v-213h-172v-72h244v285h412v72h-412v159h360v72h-360v160h253l98 50z" />
    <glyph glyph-name="uni2F3F" unicode="&#x624b;" 
d="M855 813l-85 -43h-642v-72h336v-160h-361v-72h361v-159h-413v-72h413v-213h-172v-72h244v285h412v72h-412v159h360v72h-360v160h253l98 50z" />
    <glyph glyph-name="uni2F40" unicode="&#x2f40;" 
d="M90 -50l402 192l419 -192l31 65l-365 167l256 122v180h-297v150h413v72h-413v124h-72v-124h-414v-72h414v-150h-325v-72h622v-63l-268 -128l-291 134l-31 -65l237 -109l-349 -166z" />
    <glyph glyph-name="uni2F40" unicode="&#x652f;" 
d="M90 -50l402 192l419 -192l31 65l-365 167l256 122v180h-297v150h413v72h-413v124h-72v-124h-414v-72h414v-150h-325v-72h622v-63l-268 -128l-291 134l-31 -65l237 -109l-349 -166z" />
    <glyph glyph-name="uni2F41" unicode="&#x2f41;" 
d="M85 -50l409 190l413 -190l30 65l-358 164l250 116v189h-317v150h433v72h-433v124h-72v-346h-305v-72h622v-71l-264 -122l-295 136l-30 -65l240 -111l-354 -164z" />
    <glyph glyph-name="uni2F41" unicode="&#x6534;" 
d="M85 -50l409 190l413 -190l30 65l-358 164l250 116v189h-317v150h433v72h-433v124h-72v-346h-305v-72h622v-71l-264 -122l-295 136l-30 -65l240 -111l-354 -164z" />
    <glyph glyph-name="uni2F42" unicode="&#x2f42;" 
d="M96 -52l403 238l404 -238l36 61l-370 218l214 127v247h165v72h-897v-72h165v-247l214 -127l-370 -218zM499 268l-211 126v207h423v-207zM567 729l-82 84l-53 -50l82 -84z" />
    <glyph glyph-name="uni2F42" unicode="&#x6587;" 
d="M96 -52l403 238l404 -238l36 61l-370 218l214 127v247h165v72h-897v-72h165v-247l214 -127l-370 -218zM499 268l-211 126v207h423v-207zM567 729l-82 84l-53 -50l82 -84z" />
    <glyph glyph-name="uni2F43" unicode="&#x2f43;" 
d="M948 264h-253v565h-72v-565h-571v-72h571v-261h72v261h253v72zM355 420l-97 96l-51 -52l98 -97zM404 667l-98 96l-50 -52l97 -96z" />
    <glyph glyph-name="uni2F43" unicode="&#x6597;" 
d="M948 264h-253v565h-72v-565h-571v-72h571v-261h72v261h253v72zM355 420l-97 96l-51 -52l98 -97zM404 667l-98 96l-50 -52l97 -96z" />
    <glyph glyph-name="uni2F44" unicode="&#x2f44;" 
d="M724 -70v469h217v72h-736v224h593l96 54l-36 63l-81 -45h-644v-683l-74 -98l58 -43l88 116v340h447v-469h72z" />
    <glyph glyph-name="uni2F44" unicode="&#x65a4;" 
d="M724 -70v469h217v72h-736v224h593l96 54l-36 63l-81 -45h-644v-683l-74 -98l58 -43l88 116v340h447v-469h72z" />
    <glyph glyph-name="uni2F45" unicode="&#x2f45;" 
d="M949 676h-414l38 38l-95 92l-50 -52l79 -78h-456v-72h166v-468l-109 -149l57 -43l124 169v281h483v-373h-182v-72h254v517h-555v138h660v72z" />
    <glyph glyph-name="uni2F45" unicode="&#x65b9;" 
d="M949 676h-414l38 38l-95 92l-50 -52l79 -78h-456v-72h166v-468l-109 -149l57 -43l124 169v281h483v-373h-182v-72h254v517h-555v138h660v72z" />
    <glyph glyph-name="uni2F46" unicode="&#x2f46;" 
d="M891 810h-782v-72h355v-245h-412v-72h370l-358 -431l56 -47l397 478h431v72h-412v245h355v72zM541 343v-394h278l117 128l-54 49l-96 -105h-173v322h-72z" />
    <glyph glyph-name="uni2F46" unicode="&#x65e0;" 
d="M891 810h-782v-72h355v-245h-412v-72h370l-358 -431l56 -47l397 478h431v72h-412v245h355v72zM541 343v-394h278l117 128l-54 49l-96 -105h-173v322h-72z" />
    <glyph glyph-name="uni2F47" unicode="&#x2f47;" 
d="M397 426l157 -157l50 51l-156 156zM126 809v-859h747v859h-747zM801 737v-715h-603v715h603z" />
    <glyph glyph-name="uni2F47" unicode="&#x65e5;" 
d="M397 426l157 -157l50 51l-156 156zM126 809v-859h747v859h-747zM801 737v-715h-603v715h603z" />
    <glyph glyph-name="uni2F48" unicode="&#x2f48;" 
d="M129 805v-855h741v855h-741zM798 733v-711h-597v330h478v72h-478v309h597z" />
    <glyph glyph-name="uni2F48" unicode="&#x66f0;" 
d="M129 805v-855h741v855h-741zM798 733v-711h-597v330h478v72h-478v309h597z" />
    <glyph glyph-name="uni2F49" unicode="&#x2f49;" 
d="M450 263l125 -125l50 50l-124 125zM450 568l125 -126l50 50l-124 126zM673 -51h232v861h-720v-701l-90 -124l59 -41l103 141v653h576v-717h-160v-72z" />
    <glyph glyph-name="uni2F49" unicode="&#x6708;" 
d="M450 263l125 -125l50 50l-124 125zM450 568l125 -126l50 50l-124 126zM673 -51h232v861h-720v-701l-90 -124l59 -41l103 141v653h576v-717h-160v-72z" />
    <glyph glyph-name="uni2F4A" unicode="&#x2f4a;" 
d="M535 -69v538l339 -492l60 41l-366 531h381v72h-414v209h-72v-209h-413v-72h380l-365 -531l60 -41l338 491v-537h72z" />
    <glyph glyph-name="uni2F4A" unicode="&#x6728;" 
d="M535 -69v538l339 -492l60 41l-366 531h381v72h-414v209h-72v-209h-413v-72h380l-365 -531l60 -41l338 491v-537h72z" />
    <glyph glyph-name="uni2F4B" unicode="&#x2f4b;" 
d="M935 -2q-74 65 -200 178l-199 178v178h-72v-179l-398 -355l49 -54l385 344l386 -344zM247 828v-145l-183 -139l44 -57l187 142h533v-258h72v330h-581v127h-72z" />
    <glyph glyph-name="uni2F4B" unicode="&#x6b20;" 
d="M935 -2q-74 65 -200 178l-199 178v178h-72v-179l-398 -355l49 -54l385 344l386 -344zM247 828v-145l-183 -139l44 -57l187 142h533v-258h72v330h-581v127h-72z" />
    <glyph glyph-name="uni2F4C" unicode="&#x2f4c;" 
d="M50 -50h900v72h-372v808h-72v-808h-204v553h-72v-553h-180v-72zM804 491l-94 -94l50 -52l95 94z" />
    <glyph glyph-name="uni2F4C" unicode="&#x6b62;" 
d="M50 -50h900v72h-372v808h-72v-808h-204v553h-72v-553h-180v-72zM804 491l-94 -94l50 -52l95 94z" />
    <glyph glyph-name="uni2F4D" unicode="&#x2f4d;" 
d="M145 373l190 141h441v-141l-283 -216l-187 212l-54 -48l183 -209l-123 -94h-223v-72h248l511 391v249h-488v124h587v72h-895v-72h236v-141l-186 -138z" />
    <glyph glyph-name="uni2F4D" unicode="&#x6b79;" 
d="M145 373l190 141h441v-141l-283 -216l-187 212l-54 -48l183 -209l-123 -94h-223v-72h248l511 391v249h-488v124h587v72h-895v-72h236v-141l-186 -138z" />
    <glyph glyph-name="uni2F4E" unicode="&#x2f4e;" 
d="M168 234l242 -92l-352 -126l23 -68l433 154l402 -153l25 66l-324 124l185 66v230h-630v-72h558v-107l-217 -78l-320 123zM124 449l146 107v181h439v-249h209v72h-137v249h-583v-217l-117 -85z" />
    <glyph glyph-name="uni2F4E" unicode="&#x6bb3;" 
d="M168 234l242 -92l-352 -126l23 -68l433 154l402 -153l25 66l-324 124l185 66v230h-630v-72h558v-107l-217 -78l-320 123zM124 449l146 107v181h439v-249h209v72h-137v249h-583v-217l-117 -85z" />
    <glyph glyph-name="uni2F4F" unicode="&#x2f4f;" 
d="M52 391h104v-331h301v-124h72v124h242v-131h72v131h104v72h-104v259h104v72h-104v346h-687v-346h-104v-72zM771 463h-242v274h242v-274zM228 737h229v-274h-229v274zM529 391h242v-259h-242v259zM228 391h229v-259h-229v259z" />
    <glyph glyph-name="uni2F4F" unicode="&#x6bcb;" 
d="M52 391h104v-331h301v-124h72v124h242v-131h72v131h104v72h-104v259h104v72h-104v346h-687v-346h-104v-72zM771 463h-242v274h242v-274zM228 737h229v-274h-229v274zM529 391h242v-259h-242v259zM228 391h229v-259h-229v259z" />
    <glyph glyph-name="uni2F50" unicode="&#x2f50;" 
d="M520 828v-876h297l80 170l-65 30l-60 -128h-180v343l313 256l-45 56l-268 -219v368h-72zM95 828v-876h277l74 171l-67 28l-55 -127h-157v804h-72zM301 433l95 96l-51 51l-94 -96z" />
    <glyph glyph-name="uni2F50" unicode="&#x6bd4;" 
d="M520 828v-876h297l80 170l-65 30l-60 -128h-180v343l313 256l-45 56l-268 -219v368h-72zM95 828v-876h277l74 171l-67 28l-55 -127h-157v804h-72zM301 433l95 96l-51 51l-94 -96z" />
    <glyph glyph-name="uni2F51" unicode="&#x2f51;" 
d="M51 213h398v-263h397l87 119l-58 43l-65 -90h-289v191h428v72h-428v171h381v72h-381v170h261l103 47l-30 65l-88 -40h-644v-72h326v-170h-350v-72h350v-171h-398v-72z" />
    <glyph glyph-name="uni2F51" unicode="&#x6bdb;" 
d="M51 213h398v-263h397l87 119l-58 43l-65 -90h-289v191h428v72h-428v171h381v72h-381v170h261l103 47l-30 65l-88 -40h-644v-72h326v-170h-350v-72h350v-171h-398v-72z" />
    <glyph glyph-name="uni2F52" unicode="&#x2f52;" 
d="M414 124l-74 -101h-189v353h393l90 -425h242v72h-183l-76 353h303v72h-318l-53 247h237l90 55l-38 61q-11 -6 -35 -22l-36 -22h-688v-816h297l96 131zM151 695h325l52 -247h-377v247z" />
    <glyph glyph-name="uni2F52" unicode="&#x6c0f;" 
d="M414 124l-74 -101h-189v353h393l90 -425h242v72h-183l-76 353h303v72h-318l-53 247h237l90 55l-38 61q-11 -6 -35 -22l-36 -22h-688v-816h297l96 131zM151 695h325l52 -247h-377v247z" />
    <glyph glyph-name="uni2F53" unicode="&#x2f53;" 
d="M116 349h628v-314l154 -91l38 61q-111 65 -120 71v345h-700v-72zM165 829v-100l-102 -121l54 -46l99 118h700v72h-679v77h-72zM202 513h630v72h-630v-72z" />
    <glyph glyph-name="uni2F53" unicode="&#x6c14;" 
d="M116 349h628v-314l154 -91l38 61q-111 65 -120 71v345h-700v-72zM165 829v-100l-102 -121l54 -46l99 118h700v72h-679v77h-72zM202 513h630v72h-630v-72z" />
    <glyph glyph-name="uni2F54" unicode="&#x2f54;" 
d="M935 58l-248 302l243 257l-52 50l-237 -250l-89 109v302h-72v-806h-124v-72h196v463l327 -400zM126 22l254 404v187h-301v-72h229v-94l-243 -387z" />
    <glyph glyph-name="uni2F54" unicode="&#x6c34;" 
d="M935 58l-248 302l243 257l-52 50l-237 -250l-89 109v302h-72v-806h-124v-72h196v463l327 -400zM126 22l254 404v187h-301v-72h229v-94l-243 -387z" />
    <glyph glyph-name="uni2F55" unicode="&#x2f55;" 
d="M935 0q-74 69 -200 189l-199 188v450h-72v-450l-400 -377l49 -52l387 365l386 -365zM825 615l-132 -132l51 -50l131 131zM125 564l130 -131l51 50l-131 132z" />
    <glyph glyph-name="uni2F55" unicode="&#x706b;" 
d="M935 0q-74 69 -200 189l-199 188v450h-72v-450l-400 -377l49 -52l387 365l386 -365zM825 615l-132 -132l51 -50l131 131zM125 564l130 -131l51 50l-131 132z" />
    <glyph glyph-name="uni2F56" unicode="&#x2f56;" 
d="M886 812l-81 -59h-636v-647l-104 -117l54 -46l122 137v601h220v-750h72v750h226v-601l122 -137l54 46l-104 117v577l98 71z" />
    <glyph glyph-name="uni2F56" unicode="&#x722a;" 
d="M886 812l-81 -59h-636v-647l-104 -117l54 -46l122 137v601h220v-750h72v750h226v-601l122 -137l54 46l-104 117v577l98 71z" />
    <glyph glyph-name="uni2F57" unicode="&#x2f57;" 
d="M936 -1l-382 345l211 190l-49 54l-216 -195l-216 195l-49 -54l210 -190l-382 -345l49 -54l387 350l388 -350zM911 565l-128 143v120h-72v-149l146 -162zM142 517l147 162v149h-72v-122l-129 -141z" />
    <glyph glyph-name="uni2F57" unicode="&#x7236;" 
d="M936 -1l-382 345l211 190l-49 54l-216 -195l-216 195l-49 -54l210 -190l-382 -345l49 -54l387 350l388 -350zM911 565l-128 143v120h-72v-149l146 -162zM142 517l147 162v149h-72v-122l-129 -141z" />
    <glyph glyph-name="uni2F58" unicode="&#x2f58;" 
d="M938 8l-372 235l198 126l-38 61l-227 -144l-226 144l-38 -61l197 -126l-371 -235l38 -61l400 254l401 -254zM926 483l-347 175l176 89l-33 65l-224 -113l-224 113l-32 -65l175 -89l-346 -175l32 -65l395 199l395 -199z" />
    <glyph glyph-name="uni2F58" unicode="&#x723b;" 
d="M938 8l-372 235l198 126l-38 61l-227 -144l-226 144l-38 -61l197 -126l-371 -235l38 -61l400 254l401 -254zM926 483l-347 175l176 89l-33 65l-224 -113l-224 113l-32 -65l175 -89l-346 -175l32 -65l395 199l395 -199z" />
    <glyph glyph-name="uni2F59" unicode="&#x2f59;" 
d="M119 268h147v-150l-131 -122l48 -52l155 144v180h471v-335h72v896h-72v-232h-503v232h-72v-304h575v-185h-690v-72z" />
    <glyph glyph-name="uni2F59" unicode="&#x723f;" 
d="M119 268h147v-150l-131 -122l48 -52l155 144v180h471v-335h72v896h-72v-232h-503v232h-72v-304h575v-185h-690v-72z" />
    <glyph glyph-name="uni2F5A" unicode="&#x2f5a;" 
d="M929 581h-224v248h-72v-248h-386v248h-72v-702l-104 -140l57 -43l119 161v147h536v-319h72v391h-608v185h682v72z" />
    <glyph glyph-name="uni2F5A" unicode="&#x7247;" 
d="M929 581h-224v248h-72v-248h-386v248h-72v-702l-104 -140l57 -43l119 161v147h536v-319h72v391h-608v185h682v72z" />
    <glyph glyph-name="uni2F5B" unicode="&#x2f5b;" 
d="M89 657v-271h234l-163 -363h-109v-72h156l196 435h315v-363h-166v-72h238v435h158v72h-158v278h158v72h-892v-72h662v-278h-557v199h-72z" />
    <glyph glyph-name="uni2F5B" unicode="&#x7259;" 
d="M89 657v-271h234l-163 -363h-109v-72h156l196 435h315v-363h-166v-72h238v435h158v72h-158v278h158v72h-892v-72h662v-278h-557v199h-72z" />
    <glyph glyph-name="uni2F5C" unicode="&#x2f5c;" 
d="M51 240h426v-308h72v308h400v72h-400v273h328v72h-328v171h-72v-171h-209v91h-72v-113l-129 -150l56 -47l125 147h229v-273h-426v-72z" />
    <glyph glyph-name="uni2F5C" unicode="&#x725b;" 
d="M51 240h426v-308h72v308h400v72h-400v273h328v72h-328v171h-72v-171h-209v91h-72v-113l-129 -150l56 -47l125 147h229v-273h-426v-72z" />
    <glyph glyph-name="uni2F5D" unicode="&#x2f5d;" 
d="M52 486h377l-364 -501l58 -43l377 518l377 -518l58 43l-364 501h377v72h-412v272h-72v-272h-412v-72zM846 680l-94 96l-52 -51l93 -95z" />
    <glyph glyph-name="uni2F5D" unicode="&#x72ac;" 
d="M52 486h377l-364 -501l58 -43l377 518l377 -518l58 43l-364 501h377v72h-412v272h-72v-272h-412v-72zM846 680l-94 96l-52 -51l93 -95z" />
    <glyph glyph-name="uni2F5E" unicode="&#x2f5e;" 
d="M51 635h345l-270 -217v-102h340l-358 -262v-102h697l130 98l-44 57l-109 -83h-595l640 467l-44 57l-219 -160h-361l308 247h437v72h-412v122h-72v-122h-413v-72z" />
    <glyph glyph-name="uni2F5E" unicode="&#x7384;" 
d="M51 635h345l-270 -217v-102h340l-358 -262v-102h697l130 98l-44 57l-109 -83h-595l640 467l-44 57l-219 -160h-361l308 247h437v72h-412v122h-72v-122h-413v-72z" />
    <glyph glyph-name="uni2F5F" unicode="&#x2f5f;" 
d="M51 -50h897v72h-413v343h366v72h-366v268h390v72h-851v-72h389v-268h-365v-72h365v-343h-412v-72zM815 158l-95 93l-50 -52l95 -93z" />
    <glyph glyph-name="uni2F5F" unicode="&#x7389;" 
d="M51 -50h897v72h-413v343h366v72h-366v268h390v72h-851v-72h389v-268h-365v-72h365v-343h-412v-72zM815 158l-95 93l-50 -52l95 -93z" />
    <glyph glyph-name="uni2F60" unicode="&#x2f60;" 
d="M121 -57l114 146v599h221l-98 -649v-87h299v325h-72v-253h-155l100 664h173v-136l162 -591l71 18l-161 583v126h10l107 61l-34 63q-39 -21 -91 -52h-604v-645l-100 -127z" />
    <glyph glyph-name="uni2F60" unicode="&#x74dc;" 
d="M121 -57l114 146v599h221l-98 -649v-87h299v325h-72v-253h-155l100 664h173v-136l162 -591l71 18l-161 583v126h10l107 61l-34 63q-39 -21 -91 -52h-604v-645l-100 -127z" />
    <glyph glyph-name="uni2F61" unicode="&#x2f61;" 
d="M914 806h-850v-72h159l-97 -707v-76h412v72h-340l65 472h461v-544h212v72h-140v544h-523l23 167h618v72zM414 294l94 -94l50 50l-94 95z" />
    <glyph glyph-name="uni2F61" unicode="&#x74e6;" 
d="M914 806h-850v-72h159l-97 -707v-76h412v72h-340l65 472h461v-544h212v72h-140v544h-523l23 167h618v72zM414 294l94 -94l50 50l-94 95z" />
    <glyph glyph-name="uni2F62" unicode="&#x2f62;" 
d="M947 675h-160v154h-72v-154h-430v154h-72v-154h-160v-72h160v-649h574v649h160v72zM285 26v577h430v-577h-430zM411 360l128 -126l50 50l-128 127z" />
    <glyph glyph-name="uni2F62" unicode="&#x7518;" 
d="M947 675h-160v154h-72v-154h-430v154h-72v-154h-160v-72h160v-649h574v649h160v72zM285 26v577h430v-577h-430zM411 360l128 -126l50 50l-128 127z" />
    <glyph glyph-name="uni2F63" unicode="&#x2f63;" 
d="M916 645h-355v185h-72v-185h-264v131h-72v-159l-85 -160l65 -33l78 149h278v-241h-399v-72h399v-238h-437v-72h895v72h-386v238h348v72h-348v241h355v72z" />
    <glyph glyph-name="uni2F63" unicode="&#x751f;" 
d="M916 645h-355v185h-72v-185h-264v131h-72v-159l-85 -160l65 -33l78 149h278v-241h-399v-72h399v-238h-437v-72h895v72h-386v238h348v72h-348v241h355v72z" />
    <glyph glyph-name="uni2F64" unicode="&#x2f64;" 
d="M567 -70v277h274v-188h-98v-72h170v852h-760v-726l-66 -91l59 -42l79 110v157h270v-277h72zM841 532h-274v195h274v-195zM225 727h270v-195h-270v195zM567 460h274v-181h-274v181zM225 460h270v-181h-270v181z" />
    <glyph glyph-name="uni2F64" unicode="&#x7528;" 
d="M567 -70v277h274v-188h-98v-72h170v852h-760v-726l-66 -91l59 -42l79 110v157h270v-277h72zM841 532h-274v195h274v-195zM225 727h270v-195h-270v195zM567 460h274v-181h-274v181zM225 460h270v-181h-270v181z" />
    <glyph glyph-name="uni2F65" unicode="&#x2f65;" 
d="M104 788v-840h792v840h-792zM824 397h-288v319h288v-319zM464 716v-319h-288v319h288zM176 325h288v-305h-288v305zM536 20v305h288v-305h-288z" />
    <glyph glyph-name="uni2F65" unicode="&#x7530;" 
d="M104 788v-840h792v840h-792zM824 397h-288v319h288v-319zM464 716v-319h-288v319h288zM176 325h288v-305h-288v305zM536 20v305h288v-305h-288z" />
    <glyph glyph-name="uni2F66" unicode="&#x2f66;" 
d="M114 -57l72 86l95 -79h661v72h-385v302h361v72h-361v326h278v-163h72v235h-835v-72h413v-700h-178l-90 75v446h-72v-449l-87 -104z" />
    <glyph glyph-name="uni2F66" unicode="&#x758b;" 
d="M114 -57l72 86l95 -79h661v72h-385v302h361v72h-361v326h278v-163h72v235h-835v-72h413v-700h-178l-90 75v446h-72v-449l-87 -104z" />
    <glyph glyph-name="uni2F67" unicode="&#x2f67;" 
d="M197 -55l93 110v602h651v72h-311v100h-72v-100h-340v-648l-75 -89zM184 535l-76 76l-50 -50l76 -77zM108 238l76 75l-50 51l-76 -76z" />
    <glyph glyph-name="uni2F67" unicode="&#x7592;" 
d="M197 -55l93 110v602h651v72h-311v100h-72v-100h-340v-648l-75 -89zM184 535l-76 76l-50 -50l76 -77zM108 238l76 75l-50 51l-76 -76z" />
    <glyph glyph-name="uni2F69" unicode="&#x2f69;" 
d="M435 693v137h-72v-137h-214v-740h702v740h-416zM221 25v263h558v-263h-558zM779 621v-261h-558v261h558z" />
    <glyph glyph-name="uni2F69" unicode="&#x767d;" 
d="M435 693v137h-72v-137h-214v-740h702v740h-416zM221 25v263h558v-263h-558zM779 621v-261h-558v261h558z" />
    <glyph glyph-name="uni2F6A" unicode="&#x2f6a;" 
d="M298 287l228 -128l-256 -148l36 -63l294 169l301 -169l36 63l-264 148l220 127v186h-299v173h261v-103h72v175h-333v112h-72v-112h-379v-610l-80 -121l61 -40l91 139v560h307v-173h-242v-72h541v-71l-222 -128l-265 149z" />
    <glyph glyph-name="uni2F6A" unicode="&#x76ae;" 
d="M298 287l228 -128l-256 -148l36 -63l294 169l301 -169l36 63l-264 148l220 127v186h-299v173h261v-103h72v175h-333v112h-72v-112h-379v-610l-80 -121l61 -40l91 139v560h307v-173h-242v-72h541v-71l-222 -128l-265 149z" />
    <glyph glyph-name="uni2F6B" unicode="&#x2f6b;" 
d="M947 21h-109v753h-677v-753h-109v-72h895v72zM766 21h-133v681h133v-681zM233 702h132v-681h-132v681zM437 702h124v-681h-124v681z" />
    <glyph glyph-name="uni2F6B" unicode="&#x76bf;" 
d="M947 21h-109v753h-677v-753h-109v-72h895v72zM766 21h-133v681h133v-681zM233 702h132v-681h-132v681zM437 702h124v-681h-124v681z" />
    <glyph glyph-name="uni2F6C" unicode="&#x2f6c;" 
d="M159 779v-832h681v832h-681zM231 451h537v-201h-537v201zM768 707v-184h-537v184h537zM231 19v159h537v-159h-537z" />
    <glyph glyph-name="uni2F6C" unicode="&#x76ee;" 
d="M159 779v-832h681v832h-681zM231 451h537v-201h-537v201zM768 707v-184h-537v184h537zM231 19v159h537v-159h-537z" />
    <glyph glyph-name="uni2F6D" unicode="&#x2f6d;" 
d="M939 218v239h-299l245 229v111h-748v-72h676v-8l-266 -249l-218 185l-47 -54l167 -142h-389v-72h284l-184 -308h-100v-72h140l228 380h84v-365h-123v-72h195v437h283v-167h72z" />
    <glyph glyph-name="uni2F6D" unicode="&#x77db;" 
d="M939 218v239h-299l245 229v111h-748v-72h676v-8l-266 -249l-218 185l-47 -54l167 -142h-389v-72h284l-184 -308h-100v-72h140l228 380h84v-365h-123v-72h195v437h283v-167h72z" />
    <glyph glyph-name="uni2F6E" unicode="&#x2f6e;" 
d="M172 830v-126l-106 -118l54 -48l105 117h239v-251h-413v-72h378l-368 -329l48 -54l391 349l391 -349l48 54l-368 329h378v72h-413v251h350v72h-642v103h-72z" />
    <glyph glyph-name="uni2F6E" unicode="&#x77e2;" 
d="M172 830v-126l-106 -118l54 -48l105 117h239v-251h-413v-72h378l-368 -329l48 -54l391 349l391 -349l48 54l-368 329h378v72h-413v251h350v72h-642v103h-72z" />
    <glyph glyph-name="uni2F6F" unicode="&#x2f6f;" 
d="M949 785h-899v-72h311l-294 -438l59 -39l99 147v-435h653v505h-606l175 260h502v72zM806 381v-361h-509v361h509z" />
    <glyph glyph-name="uni2F6F" unicode="&#x77f3;" 
d="M949 785h-899v-72h311l-294 -438l59 -39l99 147v-435h653v505h-606l175 260h502v72zM806 381v-361h-509v361h509z" />
    <glyph glyph-name="uni2F70" unicode="&#x2f70;" 
d="M937 532h-875v-72h401v-442h-144v-72h216v514h402v72zM855 789h-711v-72h711v72zM677 330l185 -334l63 34l-185 334zM258 364l-184 -334l63 -34l184 334z" />
    <glyph glyph-name="uni2F70" unicode="&#x793a;" 
d="M937 532h-875v-72h401v-442h-144v-72h216v514h402v72zM855 789h-711v-72h711v72zM677 330l185 -334l63 34l-185 334zM258 364l-184 -334l63 -34l184 334z" />
    <glyph glyph-name="uni2F72" unicode="&#x2f72;" 
d="M833 811l-65 -58h-662v-72h358v-191h-414v-72h323l-309 -364l56 -47l344 406v-484h72v484l345 -406l54 47l-309 364h323v72h-413v191h261l85 76z" />
    <glyph glyph-name="uni2F72" unicode="&#x79be;" 
d="M833 811l-65 -58h-662v-72h358v-191h-414v-72h323l-309 -364l56 -47l344 406v-484h72v484l345 -406l54 47l-309 364h323v72h-413v191h261l85 76z" />
    <glyph glyph-name="uni2F73" unicode="&#x2f73;" 
d="M640 480v-182l227 -358l61 38l-216 340v162h-72zM288 480v-162l-216 -340l61 -38l227 358v182h-72zM567 731l-83 82l-51 -50l83 -83zM174 477v125h652v-125h72v197h-796v-197h72z" />
    <glyph glyph-name="uni2F73" unicode="&#x7a74;" 
d="M640 480v-182l227 -358l61 38l-216 340v162h-72zM288 480v-162l-216 -340l61 -38l227 358v182h-72zM567 731l-83 82l-51 -50l83 -83zM174 477v125h652v-125h72v197h-796v-197h72z" />
    <glyph glyph-name="uni2F74" unicode="&#x2f74;" 
d="M695 66l101 424l-70 16l-101 -424zM374 82l-102 424l-70 -16l102 -424zM572 710l-95 95l-51 -50l96 -95zM913 639h-827v-72h827v72zM947 22h-895v-72h895v72z" />
    <glyph glyph-name="uni2F74" unicode="&#x7acb;" 
d="M695 66l101 424l-70 16l-101 -424zM374 82l-102 424l-70 -16l102 -424zM572 710l-95 95l-51 -50l96 -95zM913 639h-827v-72h827v72zM947 22h-895v-72h895v72z" />
    <glyph glyph-name="uni2F75" unicode="&#x2f75;" 
d="M586 830v-148l-111 -127l54 -47l109 125h98v-627h-143v-72h215v699h126v72h-276v125h-72zM309 -69v702h167v72h-226v125h-72v-148l-112 -127l54 -47l110 125h7v-702h72z" />
    <glyph glyph-name="uni2F75" unicode="&#x7af9;" 
d="M586 830v-148l-111 -127l54 -47l109 125h98v-627h-143v-72h215v699h126v72h-276v125h-72zM309 -69v702h167v72h-226v125h-72v-148l-112 -127l54 -47l110 125h7v-702h72z" />
    <glyph glyph-name="uni2F76" unicode="&#x2f76;" 
d="M115 -18q58 58 174 178q116 119 175 178v-407h72v405l347 -354l53 51l-350 356h363v72h-413v369h-72v-369h-414v-72h365l-351 -356zM139 699l199 -179l49 54l-199 179zM811 753l-199 -179l49 -54l199 179z" />
    <glyph glyph-name="uni2F76" unicode="&#x7c73;" 
d="M115 -18q58 58 174 178q116 119 175 178v-407h72v405l347 -354l53 51l-350 356h363v72h-413v369h-72v-369h-414v-72h365l-351 -356zM139 699l199 -179l49 54l-199 179zM811 753l-199 -179l49 -54l199 179z" />
    <glyph glyph-name="uni2F77" unicode="&#x2f77;" 
d="M806 443l-79 -102h-461l499 369l-43 58l-214 -158h-231l191 149l-45 56l-239 -187v-90h227l-241 -179v-90h301v-249h-92v-72h164v321h220l101 131zM934 20l-251 186l-44 -58l252 -185zM109 -37l251 185l-43 58l-251 -186z" />
    <glyph glyph-name="uni2F77" unicode="&#x7cf8;" 
d="M806 443l-79 -102h-461l499 369l-43 58l-214 -158h-231l191 149l-45 56l-239 -187v-90h227l-241 -179v-90h301v-249h-92v-72h164v321h220l101 131zM934 20l-251 186l-44 -58l252 -185zM109 -37l251 185l-43 58l-251 -186z" />
    <glyph glyph-name="uni2F78" unicode="&#x2f78;" 
d="M132 544l86 110h246v-210h-414v-72h414v-349h-280v271h-72v-343h775v343h-72v-271h-279v349h413v72h-413v210h358v72h-659v105h-72v-129l-89 -113z" />
    <glyph glyph-name="uni2F78" unicode="&#x7f36;" 
d="M132 544l86 110h246v-210h-414v-72h414v-349h-280v271h-72v-343h775v343h-72v-271h-279v349h413v72h-413v210h358v72h-659v105h-72v-129l-89 -113z" />
    <glyph glyph-name="uni2F79" unicode="&#x2f79;" 
d="M727 -50h174v862h-802v-860h72v788h658v-718h-102v-72zM512 619l100 -229l-110 -266l66 -27l84 203l68 -155l66 29l-96 218l95 230l-66 27l-69 -167l-72 165zM216 611l101 -222l-101 -253l66 -27l76 190l47 -103l64 30l-75 164l85 211l-66 27l-60 -148l-73 162z" />
    <glyph glyph-name="uni2F79" unicode="&#x7f51;" 
d="M727 -50h174v862h-802v-860h72v788h658v-718h-102v-72zM512 619l100 -229l-110 -266l66 -27l84 203l68 -155l66 29l-96 218l95 230l-66 27l-69 -167l-72 165zM216 611l101 -222l-101 -253l66 -27l76 190l47 -103l64 30l-75 164l85 211l-66 27l-60 -148l-73 162z" />
    <glyph glyph-name="uni2F7A" unicode="&#x2f7a;" 
d="M536 -71v210h414v72h-414v145h335v72h-335v142h372v72h-816v-72h372v-142h-335v-72h335v-145h-414v-72h414v-210h72zM355 708l-95 95l-51 -50l96 -95zM695 658l96 95l-51 50l-95 -95z" />
    <glyph glyph-name="uni2F7A" unicode="&#x7f8a;" 
d="M536 -71v210h414v72h-414v145h335v72h-335v142h372v72h-816v-72h372v-142h-335v-72h335v-145h-414v-72h414v-210h72zM355 708l-95 95l-51 -50l96 -95zM695 658l96 95l-51 50l-95 -95z" />
    <glyph glyph-name="uni2F7B" unicode="&#x2f7b;" 
d="M280 494l-95 95l-50 -50l95 -96zM767 325l-236 -164l41 -59l237 164zM527 724h330v-702h-143v-72h215v846h-402v-72zM736 494l-96 95l-50 -50l95 -96zM313 325l-231 -164l42 -59l230 164zM71 724h331v-702h-143v-72h215v846h-403v-72z" />
    <glyph glyph-name="uni2F7B" unicode="&#x7fbd;" 
d="M280 494l-95 95l-50 -50l95 -96zM767 325l-236 -164l41 -59l237 164zM527 724h330v-702h-143v-72h215v846h-402v-72zM736 494l-96 95l-50 -50l95 -96zM313 325l-231 -164l42 -59l230 164zM71 724h331v-702h-143v-72h215v846h-403v-72z" />
    <glyph glyph-name="uni2F7C" unicode="&#x2f7c;" 
d="M718 712h-246v118h-72v-118h-245v-72h245v-133h-349v-72h387l-375 -222l36 -62l158 93v-294h529l125 120l-50 53l-52 -50q-35 -33 -53 -51h-427v63l532 195l-25 69l-507 -186v124l250 148h370v72h-248l235 139l-36 62l-340 -201h-88v133h246v72z" />
    <glyph glyph-name="uni2F7C" unicode="&#x8001;" 
d="M718 712h-246v118h-72v-118h-245v-72h245v-133h-349v-72h387l-375 -222l36 -62l158 93v-294h529l125 120l-50 53l-52 -50q-35 -33 -53 -51h-427v63l532 195l-25 69l-507 -186v124l250 148h370v72h-248l235 139l-36 62l-340 -201h-88v133h246v72z" />
    <glyph glyph-name="uni2F7D" unicode="&#x2f7d;" 
d="M187 -65v546h166v-546h72v546h149v-546h72v546h166v-463h-100v-72h172v607h-412l76 154h397v72h-891v-72h413l-75 -154h-277v-618h72z" />
    <glyph glyph-name="uni2F7D" unicode="&#x800c;" 
d="M187 -65v546h166v-546h72v546h149v-546h72v546h166v-463h-100v-72h172v607h-412l76 154h397v72h-891v-72h413l-75 -154h-277v-618h72z" />
    <glyph glyph-name="uni2F7E" unicode="&#x2f7e;" 
d="M140 -33l319 331h5v-365h72v365h4l320 -331l52 50l-271 281h307v72h-412v108h335v72h-335v105h367v72h-367v102h-72v-102h-367v-72h367v-105h-335v-72h335v-108h-412v-72h307l-271 -281z" />
    <glyph glyph-name="uni2F7E" unicode="&#x8012;" 
d="M140 -33l319 331h5v-365h72v365h4l320 -331l52 50l-271 281h307v72h-412v108h335v72h-335v105h367v72h-367v102h-72v-102h-367v-72h367v-105h-335v-72h335v-108h-412v-72h307l-271 -281z" />
    <glyph glyph-name="uni2F7F" unicode="&#x2f7f;" 
d="M52 71h677v-142h72v142h146v72h-146v579h146v72h-895v-72h146v-579h-146v-72zM270 722h459v-579h-459v579zM578 277l-108 108l-50 -50l108 -108zM578 529l-108 108l-50 -50l108 -108z" />
    <glyph glyph-name="uni2F7F" unicode="&#x8033;" 
d="M52 71h677v-142h72v142h146v72h-146v579h146v72h-895v-72h146v-579h-146v-72zM270 722h459v-579h-459v579zM578 277l-108 108l-50 -50l108 -108zM578 529l-108 108l-50 -50l108 -108z" />
    <glyph glyph-name="uni2F80" unicode="&#x2f80;" 
d="M51 54h413v-124h72v124h413v72h-413v87h363v72h-363v89h305v150h108v72h-108v147h-305v85h-72v-85h-336v-72h336v-75h-413v-72h413v-78h-336v-72h336v-89h-363v-72h363v-87h-413v-72zM536 446v78h233v-78h-233zM769 596h-233v75h233v-75z" />
    <glyph glyph-name="uni2F80" unicode="&#x807f;" 
d="M51 54h413v-124h72v124h413v72h-413v87h363v72h-363v89h305v150h108v72h-108v147h-305v85h-72v-85h-336v-72h336v-75h-413v-72h413v-78h-336v-72h336v-89h-363v-72h363v-87h-413v-72zM536 446v78h233v-78h-233zM769 596h-233v75h233v-75z" />
    <glyph glyph-name="uni2F81" unicode="&#x2f81;" 
d="M694 -52h182v747h-340v135h-72v-135h-341v-745h72v673h269v-64l-195 -141l43 -58l188 137l188 -137l43 58l-195 141v64h268v-603h-110v-72zM312 89l187 135l189 -135l43 58l-195 141v114h-72v-115l-195 -140z" />
    <glyph glyph-name="uni2F81" unicode="&#x8089;" 
d="M694 -52h182v747h-340v135h-72v-135h-341v-745h72v673h269v-64l-195 -141l43 -58l188 137l188 -137l43 58l-195 141v64h268v-603h-110v-72zM312 89l187 135l189 -135l43 58l-195 141v114h-72v-115l-195 -140z" />
    <glyph glyph-name="uni2F82" unicode="&#x2f82;" 
d="M904 789h-809v-842h809v72h-325v182h303v346h-303v170h325v72zM167 273v202h643v-202h-643zM167 201h340v-182h-340v182zM167 717h340v-170h-340v170z" />
    <glyph glyph-name="uni2F82" unicode="&#x81e3;" 
d="M904 789h-809v-842h809v72h-325v182h303v346h-303v170h325v72zM167 273v202h643v-202h-643zM167 201h340v-182h-340v182zM167 717h340v-170h-340v170z" />
    <glyph glyph-name="uni2F83" unicode="&#x2f83;" 
d="M143 -51h713v760h-321v115h-72v-115h-320v-760zM215 637h569v-616h-569v616zM578 160l-108 107l-50 -52l108 -107zM578 427l-108 108l-50 -51l108 -108z" />
    <glyph glyph-name="uni2F83" unicode="&#x81ea;" 
d="M143 -51h713v760h-321v115h-72v-115h-320v-760zM215 637h569v-616h-569v616zM578 160l-108 107l-50 -52l108 -107zM578 427l-108 108l-50 -51l108 -108z" />
    <glyph glyph-name="uni2F84" unicode="&#x2f84;" 
d="M905 281h-369v136h275l81 143l-63 36l-61 -107h-563l144 230h599v72h-897v-72h213l-131 -211v-91h331v-136h-370v-72h370v-175h-413v-72h897v72h-412v175h369v72z" />
    <glyph glyph-name="uni2F84" unicode="&#x81f3;" 
d="M905 281h-369v136h275l81 143l-63 36l-61 -107h-563l144 230h599v72h-897v-72h213l-131 -211v-91h331v-136h-370v-72h370v-175h-413v-72h897v72h-412v175h369v72z" />
    <glyph glyph-name="uni2F85" unicode="&#x2f85;" 
d="M420 321l-108 108l-51 -50l108 -108zM630 271l108 108l-50 50l-108 -108zM435 816l-78 -82h-243v-783h772v783h-331v-72h259v-639h-628v639h201l100 104z" />
    <glyph glyph-name="uni2F85" unicode="&#x81fc;" 
d="M420 321l-108 108l-51 -50l108 -108zM630 271l108 108l-50 50l-108 -108zM435 816l-78 -82h-243v-783h772v783h-331v-72h259v-639h-628v639h201l100 104z" />
    <glyph glyph-name="uni2F86" unicode="&#x2f86;" 
d="M122 692h341v-148h-413v-72h413v-132h-316v-391h705v391h-317v132h414v72h-414v148h268l94 63l-40 59l-75 -50h-660v-72zM780 268v-247h-561v247h561z" />
    <glyph glyph-name="uni2F86" unicode="&#x820c;" 
d="M122 692h341v-148h-413v-72h413v-132h-316v-391h705v391h-317v132h414v72h-414v148h268l94 63l-40 59l-75 -50h-660v-72zM780 268v-247h-561v247h561z" />
    <glyph glyph-name="uni2F87" unicode="&#x2f87;" 
d="M940 672h-155v158h-72v-158h-200v-72h200v-342h-107v231h-72v-303h179v-255h72v255h153v72h-153v342h155v72zM110 505l136 126h138v-291l-82 -87l-148 155l-52 -50l150 -158l-192 -204l52 -49l344 366v390h-187v113h-72v-134l-135 -125z" />
    <glyph glyph-name="uni2F87" unicode="&#x821b;" 
d="M940 672h-155v158h-72v-158h-200v-72h200v-342h-107v231h-72v-303h179v-255h72v255h153v72h-153v342h155v72zM110 505l136 126h138v-291l-82 -87l-148 155l-52 -50l150 -158l-192 -204l52 -49l344 366v390h-187v113h-72v-134l-135 -125z" />
    <glyph glyph-name="uni2F88" unicode="&#x2f88;" 
d="M630 -49h193v346h126v72h-126v358h-345v103h-72v-103h-216v-358h-139v-72h139v-175l-114 -129l54 -47l132 151v200h489v-274h-121v-72zM751 369h-489v286h489v-286zM578 498l-95 95l-51 -50l96 -96zM578 127l-95 95l-51 -50l96 -95z" />
    <glyph glyph-name="uni2F88" unicode="&#x821f;" 
d="M630 -49h193v346h126v72h-126v358h-345v103h-72v-103h-216v-358h-139v-72h139v-175l-114 -129l54 -47l132 151v200h489v-274h-121v-72zM751 369h-489v286h489v-286zM578 498l-95 95l-51 -50l96 -96zM578 127l-95 95l-51 -50l96 -95z" />
    <glyph glyph-name="uni2F89" unicode="&#x2f89;" 
d="M891 19h-175l-49 60l173 141l-45 56l-173 -141l-153 188h348v461h-709v-837h243l126 101l-45 56l-106 -85h-146v304h196l306 -376h209v72zM180 395v317h565v-317h-565zM542 526l-108 105l-50 -52l108 -105z" />
    <glyph glyph-name="uni2F89" unicode="&#x826e;" 
d="M891 19h-175l-49 60l173 141l-45 56l-173 -141l-153 188h348v461h-709v-837h243l126 101l-45 56l-106 -85h-146v304h196l306 -376h209v72zM180 395v317h565v-317h-565zM542 526l-108 105l-50 -52l108 -105z" />
    <glyph glyph-name="uni2F8A" unicode="&#x2f8a;" 
d="M125 553l116 139h541v-15l-82 -110h-556v-618h717l70 170l-67 27l-52 -125h-596v196h648v350h-75l65 87v110h-593v66h-72v-88l-120 -142zM216 289v206h576v-206h-576zM585 376l-108 108l-50 -50l108 -108z" />
    <glyph glyph-name="uni2F8A" unicode="&#x8272;" 
d="M125 553l116 139h541v-15l-82 -110h-556v-618h717l70 170l-67 27l-52 -125h-596v196h648v350h-75l65 87v110h-593v66h-72v-88l-120 -142zM216 289v206h576v-206h-576zM585 376l-108 108l-50 -50l108 -108z" />
    <glyph glyph-name="uni2F8C" unicode="&#x2f8c;" 
d="M916 400v186h-416v100h384v72h-384v70h-72v-242h-293v-507l-66 -94l59 -42l79 113v458h637v-114h72zM256 240h165v-291h431l79 113l-59 41q-19 -28 -59 -82h-320v219h397v72h-397v157h-72v-157h-165v-72z" />
    <glyph glyph-name="uni2F8C" unicode="&#x864d;" 
d="M916 400v186h-416v100h384v72h-384v70h-72v-242h-293v-507l-66 -94l59 -42l79 113v458h637v-114h72zM256 240h165v-291h431l79 113l-59 41q-19 -28 -59 -82h-320v219h397v72h-397v157h-72v-157h-165v-72z" />
    <glyph glyph-name="uni2F8D" unicode="&#x2f8d;" 
d="M58 -48h802l81 142l-63 36l-61 -106h-274v240h357v385h-357v180h-72v-180h-356v-385h356v-240h-413v-72zM543 336v241h285v-241h-285zM187 577h284v-241h-284v241z" />
    <glyph glyph-name="uni2F8D" unicode="&#x866b;" 
d="M58 -48h802l81 142l-63 36l-61 -106h-274v240h357v385h-357v180h-72v-180h-356v-385h356v-240h-413v-72zM543 336v241h285v-241h-285zM187 577h284v-241h-284v241z" />
    <glyph glyph-name="uni2F8E" unicode="&#x2f8e;" 
d="M948 21h-102v658h-331l52 113l-64 30l-67 -143h-281v-658h-103v-72h896v72zM431 607h139v-586h-139v586zM227 607h132v-586h-132v586zM774 21h-132v586h132v-586z" />
    <glyph glyph-name="uni2F8E" unicode="&#x8840;" 
d="M948 21h-102v658h-331l52 113l-64 30l-67 -143h-281v-658h-103v-72h896v72zM431 607h139v-586h-139v586zM227 607h132v-586h-132v586zM774 21h-132v586h132v-586z" />
    <glyph glyph-name="uni2F8F" unicode="&#x2f8f;" 
d="M426 420h330v-397h-198v-72h270v469h113v72h-515v-72zM333 574l-274 -225l45 -55l110 90v-454h72v513l92 75zM452 692h463v72h-463v-72zM333 814l-274 -224l45 -56l274 224z" />
    <glyph glyph-name="uni2F8F" unicode="&#x884c;" 
d="M426 420h330v-397h-198v-72h270v469h113v72h-515v-72zM333 574l-274 -225l45 -55l110 90v-454h72v513l92 75zM452 692h463v72h-463v-72zM333 814l-274 -224l45 -56l274 224z" />
    <glyph glyph-name="uni2F90" unicode="&#x2f90;" 
d="M524 23h-161v406l109 113l403 -569l60 42l-190 267l168 166l-50 50l-160 -157l-177 249h412v72h-872v-72h351l-355 -368l52 -51l177 184v-404h233v72zM568 727l-82 83l-51 -50l83 -83z" />
    <glyph glyph-name="uni2F90" unicode="&#x8863;" 
d="M524 23h-161v406l109 113l403 -569l60 42l-190 267l168 166l-50 50l-160 -157l-177 249h412v72h-872v-72h351l-355 -368l52 -51l177 184v-404h233v72zM568 727l-82 83l-51 -50l83 -83z" />
    <glyph glyph-name="uni2F93" unicode="&#x2f93;" 
d="M138 -59l86 112v75h269v-193h72v193h281v-107h-107v-72h179v641h-116l61 69v104h-597v64h-72v-88l-109 -144l58 -43l9 12v-485l-71 -95zM704 590h-533l76 101h544v-3zM846 393h-281v125h281v-125zM565 321h281v-121h-281v121zM224 518h269v-125h-269v125zM224 321h269
v-121h-269v121z" />
    <glyph glyph-name="uni2F93" unicode="&#x89d2;" 
d="M138 -59l86 112v75h269v-193h72v193h281v-107h-107v-72h179v641h-116l61 69v104h-597v64h-72v-88l-109 -144l58 -43l9 12v-485l-71 -95zM704 590h-533l76 101h544v-3zM846 393h-281v125h281v-125zM565 321h281v-121h-281v121zM224 518h269v-125h-269v125zM224 321h269
v-121h-269v121z" />
    <glyph glyph-name="uni2F94" unicode="&#x2f94;" 
d="M881 264h-761v-313h761v313zM809 23h-617v169h617v-169zM948 733h-412v96h-72v-96h-412v-72h896v72zM875 571h-749v-72h749v72zM875 417h-749v-72h749v72z" />
    <glyph glyph-name="uni2F94" unicode="&#x8a00;" 
d="M881 264h-761v-313h761v313zM809 23h-617v169h617v-169zM948 733h-412v96h-72v-96h-412v-72h896v72zM875 571h-749v-72h749v72zM875 417h-749v-72h749v72z" />
    <glyph glyph-name="uni2F95" unicode="&#x2f95;" 
d="M200 312v-362h600v362h-600zM728 240v-218h-456v218h456zM464 691v-90l-391 -251l40 -61l386 249l388 -249l40 61l-391 251v90h-72zM369 809l-296 -191l40 -61l296 191zM591 748l296 -191l40 61l-297 191z" />
    <glyph glyph-name="uni2F95" unicode="&#x8c37;" 
d="M200 312v-362h600v362h-600zM728 240v-218h-456v218h456zM464 691v-90l-391 -251l40 -61l386 249l388 -249l40 61l-391 251v90h-72zM369 809l-296 -191l40 -61l296 191zM591 748l296 -191l40 61l-297 191z" />
    <glyph glyph-name="uni2F96" unicode="&#x2f96;" 
d="M336 114l-108 108l-50 -50l108 -108zM714 64l108 108l-50 50l-108 -108zM950 21h-900v-72h900v72zM188 339v220h624v-220h-624zM884 267v364h-768v-364h768zM932 803h-864v-72h864v72z" />
    <glyph glyph-name="uni2F96" unicode="&#x8c46;" 
d="M336 114l-108 108l-50 -50l108 -108zM714 64l108 108l-50 50l-108 -108zM950 21h-900v-72h900v72zM188 339v220h624v-220h-624zM884 267v364h-768v-364h768zM932 803h-864v-72h864v72z" />
    <glyph glyph-name="uni2F97" unicode="&#x2f97;" 
d="M935 54l-217 412l191 109l-36 63l-293 -167v106l-115 92l112 59h337v72h-822v-72h330l-326 -170l34 -63l266 138q119 -96 112 -91v-4l-443 -244l34 -63l409 225v-161l-392 -225l36 -63l356 204v-191h-117v-72h189v440l76 43l216 -411z" />
    <glyph glyph-name="uni2F97" unicode="&#x8c55;" 
d="M935 54l-217 412l191 109l-36 63l-293 -167v106l-115 92l112 59h337v72h-822v-72h330l-326 -170l34 -63l266 138q119 -96 112 -91v-4l-443 -244l34 -63l409 225v-161l-392 -225l36 -63l356 204v-191h-117v-72h189v440l76 43l216 -411z" />
    <glyph glyph-name="uni2F98" unicode="&#x2f98;" 
d="M838 657l-298 -120l-53 122l-66 -29l52 -121l-89 -35l-67 156l-66 -29l66 -154l-173 -70l27 -66l314 127l84 -51l-406 -168l27 -67l441 183v-89l-497 -212l28 -67l469 200v-89l-150 -66l29 -67l193 84v360l-135 82l297 120zM760 816l-72 -48h-510v-72h531l91 60z" />
    <glyph glyph-name="uni2F98" unicode="&#x8c78;" 
d="M838 657l-298 -120l-53 122l-66 -29l52 -121l-89 -35l-67 156l-66 -29l66 -154l-173 -70l27 -66l314 127l84 -51l-406 -168l27 -67l441 183v-89l-497 -212l28 -67l469 200v-89l-150 -66l29 -67l193 84v360l-135 82l297 120zM760 816l-72 -48h-510v-72h531l91 60z" />
    <glyph glyph-name="uni2F9A" unicode="&#x2f9a;" 
d="M233 -55l146 114v360h241v-396h-130v-72h202v468h253v72h-410v171h346v72h-346v97h-72v-97h-345v-72h345v-171h-409v-72h253v-323l-119 -93zM142 149l110 110l-50 51l-111 -111zM916 195l-96 113l-54 -47l96 -112z" />
    <glyph glyph-name="uni2F9A" unicode="&#x8d64;" 
d="M233 -55l146 114v360h241v-396h-130v-72h202v468h253v72h-410v171h346v72h-346v97h-72v-97h-345v-72h345v-171h-409v-72h253v-323l-119 -93zM142 149l110 110l-50 51l-111 -111zM916 195l-96 113l-54 -47l96 -112z" />
    <glyph glyph-name="uni2F9B" unicode="&#x2f9b;" 
d="M123 -55l87 115l120 -109h618v72h-413v173h336v72h-336v141h414v72h-414v146h356v72h-356v132h-72v-132h-355v-72h355v-146h-413v-72h413v-386h-105l-116 106v227h-72v-231l-105 -137z" />
    <glyph glyph-name="uni2F9B" unicode="&#x8d70;" 
d="M123 -55l87 115l120 -109h618v72h-413v173h336v72h-336v141h414v72h-414v146h356v72h-356v132h-72v-132h-355v-72h355v-146h-413v-72h413v-386h-105l-116 106v227h-72v-231l-105 -137z" />
    <glyph glyph-name="uni2F9C" unicode="&#x2f9c;" 
d="M107 -58l100 99l119 -93h618v72h-395v184h330v72h-330v150h315v382h-704v-382h317v-406h-125l-113 89v249h-72v-254l-111 -110zM792 736v-238h-560v238h560z" />
    <glyph glyph-name="uni2F9C" unicode="&#x8db3;" 
d="M107 -58l100 99l119 -93h618v72h-395v184h330v72h-330v150h315v382h-704v-382h317v-406h-125l-113 89v249h-72v-254l-111 -110zM792 736v-238h-560v238h560z" />
    <glyph glyph-name="uni2F9D" unicode="&#x2f9d;" 
d="M568 -49h242v282l136 58l-28 66l-108 -46v431h-282v88h-72v-88h-282v-447h-120v-72h549l-491 -209l29 -67l597 255v-179h-170v-72zM738 295h-492v375h492v-375zM565 378l-96 96l-50 -51l95 -95zM565 542l-96 95l-50 -50l95 -95z" />
    <glyph glyph-name="uni2F9D" unicode="&#x8eab;" 
d="M568 -49h242v282l136 58l-28 66l-108 -46v431h-282v88h-72v-88h-282v-447h-120v-72h549l-491 -209l29 -67l597 255v-179h-170v-72zM738 295h-492v375h492v-375zM565 378l-96 96l-50 -51l95 -95zM565 542l-96 95l-50 -50l95 -95z" />
    <glyph glyph-name="uni2F9E" unicode="&#x2f9e;" 
d="M536 607v76h409v72h-409v74h-72v-74h-410v-72h410v-76h-331v-404h331v-82h-410v-72h410v-116h72v116h410v72h-410v82h330v404h-330zM464 535v-96h-259v96h259zM794 439h-258v96h258v-96zM205 367h259v-92h-259v92zM536 275v92h258v-92h-258z" />
    <glyph glyph-name="uni2F9E" unicode="&#x8eca;" 
d="M536 607v76h409v72h-409v74h-72v-74h-410v-72h410v-76h-331v-404h331v-82h-410v-72h410v-116h72v116h410v72h-410v82h330v404h-330zM464 535v-96h-259v96h259zM794 439h-258v96h258v-96zM205 367h259v-92h-259v92zM536 275v92h258v-92h-258z" />
    <glyph glyph-name="uni2F9F" unicode="&#x2f9f;" 
d="M536 -69v201h360v72h-360v142h413v72h-899v-72h414v-142h-361v-72h361v-201h72zM907 732h-371v97h-72v-97h-372v-72h815v72zM374 485l-126 152l-56 -45l126 -152zM682 440l126 152l-56 45l-126 -152z" />
    <glyph glyph-name="uni2F9F" unicode="&#x8f9b;" 
d="M536 -69v201h360v72h-360v142h413v72h-899v-72h414v-142h-361v-72h361v-201h72zM907 732h-371v97h-72v-97h-372v-72h815v72zM374 485l-126 152l-56 -45l126 -152zM682 440l126 152l-56 45l-126 -152z" />
    <glyph glyph-name="uni2FA0" unicode="&#x2fa0;" 
d="M550 20h-154v345h125l251 -417h167v72h-127l-73 121l161 97l-36 62l-162 -98l-97 163h335v72h-723v-72h107v-417h226v72zM939 795h-804v-715l-75 -95l56 -45l91 115v668h732v72zM891 618h-581v-72h581v72z" />
    <glyph glyph-name="uni2FA0" unicode="&#x8fb0;" 
d="M550 20h-154v345h125l251 -417h167v72h-127l-73 121l161 97l-36 62l-162 -98l-97 163h335v72h-723v-72h107v-417h226v72zM939 795h-804v-715l-75 -95l56 -45l91 115v668h732v72zM891 618h-581v-72h581v72z" />
    <glyph glyph-name="uni2FA2" unicode="&#x2fa2;" 
d="M855 125q-10 -19 -25 -51l-25 -52h-653v186h724v288h-796v-546h770l69 143zM846 558v248h-743v-248h743zM552 333l-90 91h342v-144h-652v144h310l-50 -51l90 -90zM175 630v104h599v-104h-599z" />
    <glyph glyph-name="uni2FA2" unicode="&#x9091;" 
d="M855 125q-10 -19 -25 -51l-25 -52h-653v186h724v288h-796v-546h770l69 143zM846 558v248h-743v-248h743zM552 333l-90 91h342v-144h-652v144h310l-50 -51l90 -90zM175 630v104h599v-104h-599z" />
    <glyph glyph-name="uni2FA3" unicode="&#x2fa3;" 
d="M951 801h-902v-72h279v-134h-218v-647h780v647h-232v134h293v72zM264 246l136 112v165h186v-248h196v72h-124v176h160v-349h-636v349h146v-131l-109 -90zM182 20v82h636v-82h-636zM400 729h186v-134h-186v134z" />
    <glyph glyph-name="uni2FA3" unicode="&#x9149;" 
d="M951 801h-902v-72h279v-134h-218v-647h780v647h-232v134h293v72zM264 246l136 112v165h186v-248h196v72h-124v176h160v-349h-636v349h146v-131l-109 -90zM182 20v82h636v-82h-636zM400 729h186v-134h-186v134z" />
    <glyph glyph-name="uni2FA5" unicode="&#x2fa5;" 
d="M464 347v-114h-368v-72h368v-141h-414v-72h899v72h-413v141h367v72h-367v114h328v458h-729v-458h329zM207 541h257v-122h-257v122zM536 419v122h256v-122h-256zM207 733h257v-120h-257v120zM792 613h-256v120h256v-120z" />
    <glyph glyph-name="uni2FA5" unicode="&#x91cc;" 
d="M464 347v-114h-368v-72h368v-141h-414v-72h899v72h-413v141h367v72h-367v114h328v458h-729v-458h329zM207 541h257v-122h-257v122zM536 419v122h256v-122h-256zM207 733h257v-120h-257v120zM792 613h-256v120h256v-120z" />
    <glyph glyph-name="uni2FA6" unicode="&#x2fa6;" 
d="M731 514h-463v-72h195v-137h-310v-72h310v-212h-406v-72h885v72h-407v212h311v72h-311v137h196v72zM935 512q-134 76 -400 230v88h-72v-88l-399 -230l36 -63l399 229l400 -229zM694 54l95 95l-51 50l-94 -94zM355 105l-94 94l-51 -50l95 -95z" />
    <glyph glyph-name="uni2FA6" unicode="&#x91d1;" 
d="M731 514h-463v-72h195v-137h-310v-72h310v-212h-406v-72h885v72h-407v212h311v72h-311v137h196v72zM935 512q-134 76 -400 230v88h-72v-88l-399 -230l36 -63l399 229l400 -229zM694 54l95 95l-51 50l-94 -94zM355 105l-94 94l-51 -50l95 -95z" />
    <glyph glyph-name="uni2FA9" unicode="&#x2fa9;" 
d="M543 -68v137h406v72h-406v66h304v231h-608v88h608v232h-304v69h-72v-69h-304v-551h304v-66h-420v-72h420v-137h72zM239 598v88h536v-88h-536zM239 279v87h536v-87h-536z" />
    <glyph glyph-name="uni2FA9" unicode="&#x961c;" 
d="M543 -68v137h406v72h-406v66h304v231h-608v88h608v232h-304v69h-72v-69h-304v-551h304v-66h-420v-72h420v-137h72zM239 598v88h536v-88h-536zM239 279v87h536v-87h-536z" />
    <glyph glyph-name="uni2FAA" unicode="&#x2faa;" 
d="M100 -1l353 238v-215h-120v-72h192v286l354 -237l39 59l-393 265v65h326v152h88v72h-88v151h-326v68h-72v-68h-336v-72h336v-79h-378v-72h378v-80h-336v-72h336v-65l-392 -265zM525 460v80h254v-80h-254zM779 612h-254v79h254v-79zM282 263l-83 83l-50 -50l83 -83z
M752 213l82 83l-51 50l-81 -83z" />
    <glyph glyph-name="uni2FAA" unicode="&#x96b6;" 
d="M100 -1l353 238v-215h-120v-72h192v286l354 -237l39 59l-393 265v65h326v152h88v72h-88v151h-326v68h-72v-68h-336v-72h336v-79h-378v-72h378v-80h-336v-72h336v-65l-392 -265zM525 460v80h254v-80h-254zM779 612h-254v79h254v-79zM282 263l-83 83l-50 -50l83 -83z
M752 213l82 83l-51 50l-81 -83z" />
    <glyph glyph-name="uni2FAB" unicode="&#x2fab;" 
d="M940 687h-308l43 43l-82 82l-51 -50l76 -75h-353v97h-72v-119l-133 -148l54 -49l79 88v-623h72v67h675v72h-295v132h295v72h-295v133h295v72h-295v134h295v72zM265 615h308v-134h-308v134zM265 409h308v-133h-308v133zM265 204h308v-132h-308v132z" />
    <glyph glyph-name="uni2FAB" unicode="&#x96b9;" 
d="M940 687h-308l43 43l-82 82l-51 -50l76 -75h-353v97h-72v-119l-133 -148l54 -49l79 88v-623h72v67h675v72h-295v132h295v72h-295v133h295v72h-295v134h295v72zM265 615h308v-134h-308v134zM265 409h308v-133h-308v133zM265 204h308v-132h-308v132z" />
    <glyph glyph-name="uni2FAC" unicode="&#x2fac;" 
d="M536 -70v609h301v-517h-96v-72h168v661h-373v114h412v72h-896v-72h412v-114h-373v-681h72v609h301v-609h72zM764 110l-96 96l-50 -51l95 -95zM764 342l-96 96l-50 -51l95 -95zM383 110l-95 96l-51 -51l96 -95zM383 342l-95 96l-51 -51l96 -95z" />
    <glyph glyph-name="uni2FAC" unicode="&#x96e8;" 
d="M536 -70v609h301v-517h-96v-72h168v661h-373v114h412v72h-896v-72h412v-114h-373v-681h72v609h301v-609h72zM764 110l-96 96l-50 -51l95 -95zM764 342l-96 96l-50 -51l95 -95zM383 110l-95 96l-51 -51l96 -95zM383 342l-95 96l-51 -51l96 -95z" />
    <glyph glyph-name="uni2FAE" unicode="&#x2fae;" 
d="M675 -68v135h274v72h-274v217h274v72h-274v218h274v72h-274v111h-72v-897h72zM396 -68v897h-72v-111h-273v-72h273v-218h-273v-72h273v-217h-273v-72h273v-135h72z" />
    <glyph glyph-name="uni2FAE" unicode="&#x975e;" 
d="M675 -68v135h274v72h-274v217h274v72h-274v218h274v72h-274v111h-72v-897h72zM396 -68v897h-72v-111h-273v-72h273v-218h-273v-72h273v-217h-273v-72h273v-135h72z" />
    <glyph glyph-name="uni2FAF" unicode="&#x2faf;" 
d="M103 -51h794v649h-383l47 134h375v72h-873v-72h422l-47 -134h-335v-649zM403 526h194v-505h-194v505zM669 21v505h156v-505h-156zM175 526h156v-505h-156v505zM567 353l-83 82l-51 -50l83 -83zM567 148l-83 83l-51 -50l83 -83z" />
    <glyph glyph-name="uni2FAF" unicode="&#x9762;" 
d="M103 -51h794v649h-383l47 134h375v72h-873v-72h422l-47 -134h-335v-649zM403 526h194v-505h-194v505zM669 21v505h156v-505h-156zM175 526h156v-505h-156v505zM567 353l-83 82l-51 -50l83 -83zM567 148l-83 83l-51 -50l83 -83z" />
    <glyph glyph-name="uni2FB0" unicode="&#x2fb0;" 
d="M536 -68v124h412v72h-412v75h338v259h-338v70h255v149h157v72h-157v75h-72v-75h-438v75h-72v-75h-157v-72h157v-149h255v-70h-338v-259h338v-75h-412v-72h412v-124h72zM281 604v77h438v-77h-438zM198 390h266v-115h-266v115zM536 275v115h266v-115h-266z" />
    <glyph glyph-name="uni2FB0" unicode="&#x9769;" 
d="M536 -68v124h412v72h-412v75h338v259h-338v70h255v149h157v72h-157v75h-72v-75h-438v75h-72v-75h-157v-72h157v-149h255v-70h-338v-259h338v-75h-412v-72h412v-124h72zM281 604v77h438v-77h-438zM198 390h266v-115h-266v115zM536 275v115h266v-115h-266z" />
    <glyph glyph-name="uni2FB2" unicode="&#x2fb2;" 
d="M947 24h-272v169h251v72h-251v159h251v72h-251v160h251v72h-251v102h-72v-806h-207v806h-72v-102h-252v-72h252v-160h-252v-72h252v-159h-252v-72h252v-169h-272v-72h895v72z" />
    <glyph glyph-name="uni2FB2" unicode="&#x97ed;" 
d="M947 24h-272v169h251v72h-251v159h251v72h-251v160h251v72h-251v102h-72v-806h-207v806h-72v-102h-252v-72h252v-160h-252v-72h252v-159h-252v-72h252v-169h-272v-72h895v72z" />
    <glyph glyph-name="uni2FB3" unicode="&#x2fb3;" 
d="M148 347v-395h704v395h-704zM780 275v-251h-560v251h560zM910 744h-374v86h-72v-86h-374v-72h820v72zM949 495h-898v-72h898v72zM576 123l-108 108l-50 -51l108 -108zM694 520l96 96l-51 50l-95 -96zM357 570l-96 96l-50 -50l95 -96z" />
    <glyph glyph-name="uni2FB3" unicode="&#x97f3;" 
d="M148 347v-395h704v395h-704zM780 275v-251h-560v251h560zM910 744h-374v86h-72v-86h-374v-72h820v72zM949 495h-898v-72h898v72zM576 123l-108 108l-50 -51l108 -108zM694 520l96 96l-51 50l-95 -96zM357 570l-96 96l-50 -50l95 -96z" />
    <glyph glyph-name="uni2FB5" unicode="&#x2fb5;" 
d="M523 500v89h216v72h-504v-72h216v-89h-187v-331h187v-114h-222v-72h442l93 75l-45 55q-12 -9 -36 -29l-36 -29h-124v114h188v331h-188zM942 21h-84v778h-744v-719l-57 -110l65 -32l64 124v665h600v-778h156v72zM523 241v187h116v-187h-116zM451 428v-187h-115v187h115z
" />
    <glyph glyph-name="uni2FB5" unicode="&#x98a8;" 
d="M523 500v89h216v72h-504v-72h216v-89h-187v-331h187v-114h-222v-72h442l93 75l-45 55q-12 -9 -36 -29l-36 -29h-124v114h188v331h-188zM942 21h-84v778h-744v-719l-57 -110l65 -32l64 124v665h600v-778h156v72zM523 241v187h116v-187h-116zM451 428v-187h-115v187h115z
" />
    <glyph glyph-name="uni2FB6" unicode="&#x2fb6;" 
d="M948 20h-224v334h-216v307h-72v-307h-208v217h78l69 54l-43 57l-51 -39h-227v-72h102v-217h-105v-72h105v-187l-88 -108l56 -45l104 129v211h208v-352h72v352h144v-334h296v72zM948 488h-224v311h-673v-72h601v-311h296v72zM917 113l-77 76l-50 -50l76 -77zM840 683
l77 77l-51 50l-76 -76zM840 215l77 77l-51 50l-76 -76zM917 580l-77 76l-50 -50l76 -77z" />
    <glyph glyph-name="uni2FB6" unicode="&#x98db;" 
d="M948 20h-224v334h-216v307h-72v-307h-208v217h78l69 54l-43 57l-51 -39h-227v-72h102v-217h-105v-72h105v-187l-88 -108l56 -45l104 129v211h208v-352h72v352h144v-334h296v72zM948 488h-224v311h-673v-72h601v-311h296v72zM917 113l-77 76l-50 -50l76 -77zM840 683
l77 77l-51 50l-76 -76zM840 215l77 77l-51 50l-76 -76zM917 580l-77 76l-50 -50l76 -77z" />
    <glyph glyph-name="uni2FB7" unicode="&#x2fb7;" 
d="M909 23h-173l110 111l-52 51l-123 -124l38 -38h-4l-208 199h329v324l83 -42l32 65l-405 209v53h-72v-53l-405 -209l32 -65l83 42v-596h318v72h-246v200h146l283 -271h234v72zM246 294v184h508v-184h-508zM464 550h-283l319 164l319 -164h-283v95h-72v-95zM573 362l-96 96
l-50 -51l95 -95z" />
    <glyph glyph-name="uni2FB7" unicode="&#x98df;" 
d="M909 23h-173l110 111l-52 51l-123 -124l38 -38h-4l-208 199h329v324l83 -42l32 65l-405 209v53h-72v-53l-405 -209l32 -65l83 42v-596h318v72h-246v200h146l283 -271h234v72zM246 294v184h508v-184h-508zM464 550h-283l319 164l319 -164h-283v95h-72v-95zM573 362l-96 96
l-50 -51l95 -95z" />
    <glyph glyph-name="uni2FB8" unicode="&#x2fb8;" 
d="M250 830v-108h-200v-72h414v-111h-317v-587h705v587h-316v111h413v72h-200v108h-72v-108h-355v108h-72zM780 467v-443h-561v443h561zM573 123l-96 95l-51 -50l96 -96zM573 319l-96 96l-51 -50l96 -96z" />
    <glyph glyph-name="uni2FB8" unicode="&#x9996;" 
d="M250 830v-108h-200v-72h414v-111h-317v-587h705v587h-316v111h413v72h-200v108h-72v-108h-355v108h-72zM780 467v-443h-561v443h561zM573 123l-96 95l-51 -50l96 -96zM573 319l-96 96l-51 -50l96 -96z" />
    <glyph glyph-name="uni2FB9" unicode="&#x2fb9;" 
d="M160 353v-404h680v404h-680zM874 814l-72 -36h-692v-72h354v-81h-411v-72h290l-281 -147l34 -63l368 192v-140h72v140l368 -192l34 63l-281 147h290v72h-411v81h282l87 43zM768 281v-260h-536v260h536zM573 129l-96 95l-50 -51l95 -94z" />
    <glyph glyph-name="uni2FB9" unicode="&#x9999;" 
d="M160 353v-404h680v404h-680zM874 814l-72 -36h-692v-72h354v-81h-411v-72h290l-281 -147l34 -63l368 192v-140h72v140l368 -192l34 63l-281 147h290v72h-411v81h282l87 43zM768 281v-260h-536v260h536zM573 129l-96 95l-50 -51l95 -94z" />
    <glyph glyph-name="uni2FBB" unicode="&#x2fbb;" 
d="M137 350v87h726v-87h72v159h-119v297h-631v-297h-120v-159h72zM257 -67v371h487v-284h-75v-72h147v428h-631v-443h72zM257 666v68h487v-225h-162v157h-325zM510 509h-253v85h253v-85zM572 187l-95 96l-51 -51l96 -95zM572 12l-95 95l-51 -50l96 -96z" />
    <glyph glyph-name="uni2FBB" unicode="&#x9aa8;" 
d="M137 350v87h726v-87h72v159h-119v297h-631v-297h-120v-159h72zM257 -67v371h487v-284h-75v-72h147v428h-631v-443h72zM257 666v68h487v-225h-162v157h-325zM510 509h-253v85h253v-85zM572 187l-95 96l-51 -51l96 -95zM572 12l-95 95l-51 -50l96 -96z" />
    <glyph glyph-name="uni2FBC" unicode="&#x2fbc;" 
d="M156 620v-213h687v213h-687zM245 213v-232h509v232h-509zM915 -69v419h-831v-419h72v347h687v-347h72zM948 748h-413v80h-72v-80h-412v-72h897v72zM771 548v-69h-543v69h543zM682 141v-88h-365v88h365z" />
    <glyph glyph-name="uni2FBC" unicode="&#x9ad8;" 
d="M156 620v-213h687v213h-687zM245 213v-232h509v232h-509zM915 -69v419h-831v-419h72v347h687v-347h72zM948 748h-413v80h-72v-80h-412v-72h897v72zM771 548v-69h-543v69h543zM682 141v-88h-365v88h365z" />
    <glyph glyph-name="uni2FBD" unicode="&#x2fbd;" 
d="M504 808h-374v-487h-73v-72h102l-56 -210v-90h378l44 165l-70 18q2 9 -30 -111h-250v6l59 222h315v72h-347v415h302v72zM898 458l-94 -74h-219v-72h244l114 90zM898 96l-94 -74h-219v-72h244l114 90zM898 816l-94 -73h-219v-72h244l114 89zM435 594l-95 96l-51 -51
l96 -95zM435 419l-95 95l-51 -50l96 -95z" />
    <glyph glyph-name="uni2FBD" unicode="&#x9adf;" 
d="M504 808h-374v-487h-73v-72h102l-56 -210v-90h378l44 165l-70 18q2 9 -30 -111h-250v6l59 222h315v72h-347v415h302v72zM898 458l-94 -74h-219v-72h244l114 90zM898 96l-94 -74h-219v-72h244l114 90zM898 816l-94 -73h-219v-72h244l114 89zM435 594l-95 96l-51 -51
l96 -95zM435 419l-95 95l-51 -50l96 -95z" />
    <glyph glyph-name="uni2FBE" unicode="&#x2fbe;" 
d="M683 -48h222v877h-72v-805h-150v-72zM479 415h-96v105h96v72h-96v107h96v72h-265v-72h97v-107h-97v-72h97v-105h-97v-72h265v72zM784 415h-96v105h96v72h-96v107h96v72h-264v-72h96v-107h-96v-72h96v-105h-96v-72h264v72zM167 -69v898h-72v-898h72z" />
    <glyph glyph-name="uni2FBE" unicode="&#x9b25;" 
d="M683 -48h222v877h-72v-805h-150v-72zM479 415h-96v105h96v72h-96v107h96v72h-265v-72h97v-107h-97v-72h97v-105h-97v-72h265v72zM784 415h-96v105h96v72h-96v107h96v72h-264v-72h96v-107h-96v-72h96v-105h-96v-72h264v72zM167 -69v898h-72v-898h72z" />
    <glyph glyph-name="uni2FBF" unicode="&#x2fbf;" 
d="M839 141l-28 -118h-649v92l725 79l-7 72l-718 -78v102h-72v-339h779l40 174zM804 801v-400h-642v400h-72v-472h786v472h-72zM254 727l161 -101l-201 -125l38 -61l231 144l231 -144l38 61l-202 125l161 101l-37 61l-191 -119l-191 119zM540 479l-63 63l-51 -51l63 -63z
M540 761l-63 63l-51 -51l63 -63zM303 620l-64 64l-50 -50l63 -64zM777 620l-64 64l-50 -50l64 -64z" />
    <glyph glyph-name="uni2FBF" unicode="&#x9b2f;" 
d="M839 141l-28 -118h-649v92l725 79l-7 72l-718 -78v102h-72v-339h779l40 174zM804 801v-400h-642v400h-72v-472h786v472h-72zM254 727l161 -101l-201 -125l38 -61l231 144l231 -144l38 61l-202 125l161 101l-37 61l-191 -119l-191 119zM540 479l-63 63l-51 -51l63 -63z
M540 761l-63 63l-51 -51l63 -63zM303 620l-64 64l-50 -50l63 -64zM777 620l-64 64l-50 -50l64 -64z" />
    <glyph glyph-name="uni2FC0" unicode="&#x2fc0;" 
d="M140 668v-213h720v213h-720zM740 -52h175v441h-831v-458h72v386h687v-297h-103v-72zM948 807h-897v-72h897v72zM536 -69v168h245v72h-563v-72h246v-168h72zM788 596v-69h-576v69h576zM628 176l83 83l-51 51l-83 -83zM422 227l-82 83l-51 -51l82 -83z" />
    <glyph glyph-name="uni2FC0" unicode="&#x9b32;" 
d="M140 668v-213h720v213h-720zM740 -52h175v441h-831v-458h72v386h687v-297h-103v-72zM948 807h-897v-72h897v72zM536 -69v168h245v72h-563v-72h246v-168h72zM788 596v-69h-576v69h576zM628 176l83 83l-51 51l-83 -83zM422 227l-82 83l-51 -51l82 -83z" />
    <glyph glyph-name="uni2FC1" unicode="&#x2fc1;" 
d="M116 -52l343 317v-316h381l92 87l-49 52l-70 -67h-282v291h340v420h-423v97h-72v-97h-248v-420h276l-337 -312zM852 208l-49 -49h-106l90 91l-50 51l-141 -142v-72h236l70 71zM531 384v102h268v-102h-268zM799 558h-268v102h268v-102zM459 660v-102h-259v102h259z
M200 486h259v-102h-259v102z" />
    <glyph glyph-name="uni2FC1" unicode="&#x9b3c;" 
d="M116 -52l343 317v-316h381l92 87l-49 52l-70 -67h-282v291h340v420h-423v97h-72v-97h-248v-420h276l-337 -312zM852 208l-49 -49h-106l90 91l-50 51l-141 -142v-72h236l70 71zM531 384v102h268v-102h-268zM799 558h-268v102h268v-102zM459 660v-102h-259v102h259z
M200 486h259v-102h-259v102z" />
    <glyph glyph-name="uni2FC5" unicode="&#x2fc5;" 
d="M938 766h-372v64h-72v-64h-368v-692l-65 -89l57 -44l80 109v302h707v229h-201v109h-72v-109h-185v109h-72v-109h-177v113h740v72zM656 305v-354h209l64 109l-63 36q-7 -13 -21 -36q-16 -26 -22 -37h-95v282h-72zM288 305v-354h288v72h-216v282h-72zM447 509h185v-85h-185
v85zM198 509h177v-85h-177v85zM704 424v85h129v-85h-129zM831 124l82 83l-50 50l-82 -83zM489 124l82 83l-50 50l-82 -83z" />
    <glyph glyph-name="uni2FC5" unicode="&#x9e7f;" 
d="M938 766h-372v64h-72v-64h-368v-692l-65 -89l57 -44l80 109v302h707v229h-201v109h-72v-109h-185v109h-72v-109h-177v113h740v72zM656 305v-354h209l64 109l-63 36q-7 -13 -21 -36q-16 -26 -22 -37h-95v282h-72zM288 305v-354h288v72h-216v282h-72zM447 509h185v-85h-185
v85zM198 509h177v-85h-177v85zM704 424v85h129v-85h-129zM831 124l82 83l-50 50l-82 -83zM489 124l82 83l-50 50l-82 -83z" />
    <glyph glyph-name="uni2FC6" unicode="&#x2fc6;" 
d="M538 347v124l366 -204l34 63l-310 171l95 75l148 -114l43 57l-155 121v57h187v72h-408v59h-72v-59h-413v-72h186v-57l-155 -121l43 -57l147 114l97 -76l-311 -170l34 -63l372 204v-124h72zM75 -51l394 127l316 -126l27 66l-236 94l207 67v141h-424v45h-72v-63l-174 -132
l43 -57l77 58l131 -52l-310 -100zM472 152l-171 68l34 26h376v-17zM441 539q-103 79 -130 101v57h155v-145zM559 540l-21 12v145h149v-57z" />
    <glyph glyph-name="uni2FC6" unicode="&#x9ea5;" 
d="M538 347v124l366 -204l34 63l-310 171l95 75l148 -114l43 57l-155 121v57h187v72h-408v59h-72v-59h-413v-72h186v-57l-155 -121l43 -57l147 114l97 -76l-311 -170l34 -63l372 204v-124h72zM75 -51l394 127l316 -126l27 66l-236 94l207 67v141h-424v45h-72v-63l-174 -132
l43 -57l77 58l131 -52l-310 -100zM472 152l-171 68l34 26h376v-17zM441 539q-103 79 -130 101v57h155v-145zM559 540l-21 12v145h149v-57z" />
    <glyph glyph-name="uni2FC7" unicode="&#x2fc7;" 
d="M904 520h-125v99h-72v-99h-125v-72h108l-117 -300l-117 300h109v72h-125v99h-72v-99h-125v-72h108l-130 -332l67 -27l80 203v-361h72v361l80 -203l53 22l55 -22l79 203v-361h72v362l80 -204l67 27l-131 332h109v72zM941 735h-355v93h-72v-93h-379v-642l-76 -109l58 -41
l90 127v593h734v72z" />
    <glyph glyph-name="uni2FC7" unicode="&#x9ebb;" 
d="M904 520h-125v99h-72v-99h-125v-72h108l-117 -300l-117 300h109v72h-125v99h-72v-99h-125v-72h108l-130 -332l67 -27l80 203v-361h72v361l80 -203l53 22l55 -22l79 203v-361h72v362l80 -204l67 27l-131 332h109v72zM941 735h-355v93h-72v-93h-379v-642l-76 -109l58 -41
l90 127v593h734v72z" />
    <glyph glyph-name="uni2FC9" unicode="&#x2fc9;" 
d="M112 175l388 246l387 -246l38 61l-389 247v81h22l333 -215l39 61l-238 154h257v72h-413v69h274l81 46l-34 63l-65 -37h-666v-72h338v-69h-413v-72h263l-238 -154l40 -61l332 215h16v-81l-390 -247zM369 -51h166v382h-72v-310h-94v-72zM372 133l-292 -122l27 -67l292 123z
M601 67l291 -123l27 67l-291 122zM675 145l76 76l-50 51l-77 -77zM376 195l-77 77l-50 -51l76 -76z" />
    <glyph glyph-name="uni2FC9" unicode="&#x9ecd;" 
d="M112 175l388 246l387 -246l38 61l-389 247v81h22l333 -215l39 61l-238 154h257v72h-413v69h274l81 46l-34 63l-65 -37h-666v-72h338v-69h-413v-72h263l-238 -154l40 -61l332 215h16v-81l-390 -247zM369 -51h166v382h-72v-310h-94v-72zM372 133l-292 -122l27 -67l292 123z
M601 67l291 -123l27 67l-291 122zM675 145l76 76l-50 51l-77 -77zM376 195l-77 77l-50 -51l76 -76z" />
    <glyph glyph-name="uni2FCA" unicode="&#x2fca;" 
d="M947 206h-411v73h371v72h-371v72h340v389h-751v-389h339v-72h-371v-72h371v-73h-411v-72h894v72zM536 495v245h268v-245h-268zM464 740v-245h-267v245h267zM914 4l-95 95l-51 -50l96 -95zM688 4l-95 95l-51 -50l96 -95zM136 -46l96 95l-51 50l-95 -95zM458 4l-95 95
l-50 -50l94 -95zM406 604l-82 83l-51 -50l83 -83zM644 554l83 83l-51 50l-82 -83z" />
    <glyph glyph-name="uni2FCA" unicode="&#x9ed1;" 
d="M947 206h-411v73h371v72h-371v72h340v389h-751v-389h339v-72h-371v-72h371v-73h-411v-72h894v72zM536 495v245h268v-245h-268zM464 740v-245h-267v245h267zM914 4l-95 95l-51 -50l96 -95zM688 4l-95 95l-51 -50l96 -95zM136 -46l96 95l-51 50l-95 -95zM458 4l-95 95
l-50 -50l94 -95zM406 604l-82 83l-51 -50l83 -83zM644 554l83 83l-51 50l-82 -83z" />
    <glyph glyph-name="uni2FCB" unicode="&#x2fcb;" 
d="M342 830v-215h-290v-72h411v-160h-342v-453h72v381h270v-379h72v379h271v-289h-103v-72h175v433h-343v160h412v72h-290v215h-72v-215h-171v215h-72zM350 262l-93 -171l63 -34l93 171zM586 228l93 -171l63 34l-93 171zM293 714l-82 83l-50 -51l82 -83zM756 663l82 83
l-50 51l-82 -83zM356 447l-83 83l-50 -50l83 -83zM693 397l82 83l-50 50l-82 -83z" />
    <glyph glyph-name="uni2FCB" unicode="&#x9ef9;" 
d="M342 830v-215h-290v-72h411v-160h-342v-453h72v381h270v-379h72v379h271v-289h-103v-72h175v433h-343v160h412v72h-290v215h-72v-215h-171v215h-72zM350 262l-93 -171l63 -34l93 171zM586 228l93 -171l63 34l-93 171zM293 714l-82 83l-50 -51l82 -83zM756 663l82 83
l-50 51l-82 -83zM356 447l-83 83l-50 -50l83 -83zM693 397l82 83l-50 50l-82 -83z" />
    <glyph glyph-name="uni2FCD" unicode="&#x2fcd;" 
d="M273 809v-403h473v403h-473zM444 -69v408h-274v412h-72v-484h274v-65h-294v-72h120l-39 -110h-81v-72h132l66 182h96v-199h72zM647 -69v199h202v-201h72v273h-274v65h274v484h-72v-412h-274v-408h72zM674 737v-259h-329v259h329zM576 650l-82 83l-51 -51l82 -83zM576 536
l-82 82l-51 -50l82 -82z" />
    <glyph glyph-name="uni2FCD" unicode="&#x9f0e;" 
d="M273 809v-403h473v403h-473zM444 -69v408h-274v412h-72v-484h274v-65h-294v-72h120l-39 -110h-81v-72h132l66 182h96v-199h72zM647 -69v199h202v-201h72v273h-274v65h274v484h-72v-412h-274v-408h72zM674 737v-259h-329v259h329zM576 650l-82 83l-51 -51l82 -83zM576 536
l-82 82l-51 -50l82 -82z" />
    <glyph glyph-name="uni2FCE" unicode="&#x2fce;" 
d="M537 -55l176 151l177 -151l46 54l-168 145l153 131v207h-170v148h192v72h-192v123h-72v-123h-193v-72h193v-148h-191v-72h361v-102l-136 -117l-135 117v69h-72v-102l152 -131l-168 -145zM81 468v-255h371v255h-371zM475 751h-172v79h-72v-79h-172v-72h172v-74h-172v-72
h416v72h-172v74h172v72zM477 25h-421v-72h421v72zM380 396v-111h-227v111h227zM222 107l-77 76l-50 -51l76 -75zM362 57l77 75l-51 51l-76 -76z" />
    <glyph glyph-name="uni2FCE" unicode="&#x9f13;" 
d="M537 -55l176 151l177 -151l46 54l-168 145l153 131v207h-170v148h192v72h-192v123h-72v-123h-193v-72h193v-148h-191v-72h361v-102l-136 -117l-135 117v69h-72v-102l152 -131l-168 -145zM81 468v-255h371v255h-371zM475 751h-172v79h-72v-79h-172v-72h172v-74h-172v-72
h416v72h-172v74h172v72zM477 25h-421v-72h421v72zM380 396v-111h-227v111h227zM222 107l-77 76l-50 -51l76 -75zM362 57l77 75l-51 51l-76 -76z" />
    <glyph glyph-name="uni2FCF" unicode="&#x2fcf;" 
d="M922 24h-95v397h-72v-469h167v72zM654 24h-159v397h-72v-469h231v72zM348 134l-83 83l-50 -50l82 -83zM348 308l-83 83l-50 -51l82 -82zM684 121l-83 83l-51 -51l83 -83zM684 303l-83 82l-51 -50l83 -83zM597 550l83 83l-50 50l-83 -82zM389 601l-83 82l-50 -50l83 -83z
M309 24h-159v397h-72v-469h231v72zM512 709h273v-181h-635v181h147l94 32l-23 68q-14 -4 -42 -14l-41 -14h-207v-325h779v325h-345v-72z" />
    <glyph glyph-name="uni2FCF" unicode="&#x9f20;" 
d="M922 24h-95v397h-72v-469h167v72zM654 24h-159v397h-72v-469h231v72zM348 134l-83 83l-50 -50l82 -83zM348 308l-83 83l-50 -51l82 -82zM684 121l-83 83l-51 -51l83 -83zM684 303l-83 82l-51 -50l83 -83zM597 550l83 83l-50 50l-83 -82zM389 601l-83 82l-50 -50l83 -83z
M309 24h-159v397h-72v-469h231v72zM512 709h273v-181h-635v181h147l94 32l-23 68q-14 -4 -42 -14l-41 -14h-207v-325h779v325h-345v-72z" />
    <glyph glyph-name="uni2FD0" unicode="&#x2fd0;" 
d="M850 782h-314v47h-72v-47h-314v-311h700v311zM114 448v-261h772v261h-772zM54 89h202l-42 -78h-99v-72h141l81 150h331v-156h72v156h206v72h-892v-72zM778 543h-257l36 35l-44 42l44 44l-47 46h268v-167zM222 710h253l-33 -33l43 -44l-43 -42l49 -48h-269v167zM536 259
v28h278v-28h-278zM186 287h278v-28h-278v28zM464 376v-26h-278v26h278zM814 350h-278v26h278v-26z" />
    <glyph glyph-name="uni2FD0" unicode="&#x9f3b;" 
d="M850 782h-314v47h-72v-47h-314v-311h700v311zM114 448v-261h772v261h-772zM54 89h202l-42 -78h-99v-72h141l81 150h331v-156h72v156h206v72h-892v-72zM778 543h-257l36 35l-44 42l44 44l-47 46h268v-167zM222 710h253l-33 -33l43 -44l-43 -42l49 -48h-269v167zM536 259
v28h278v-28h-278zM186 287h278v-28h-278v28zM464 376v-26h-278v26h278zM814 350h-278v26h278v-26z" />
    <glyph glyph-name="uni2FD3" unicode="&#x2fd3;" 
d="M949 25h-327v374h308v219h-308v73h327v72h-327v64h-72v-281h308v-75h-308v-518h399v72zM154 -67v420h242v-420h72v492h-386v-492h72zM498 771h-186v58h-72v-58h-187v-72h445v72zM496 557h-445v-72h445v72zM366 563l82 83l-51 50l-82 -83zM342 20l-82 83l-51 -51l83 -82z
M842 93l-83 83l-50 -51l83 -82zM842 201l-83 83l-50 -51l83 -82zM236 613l-83 83l-50 -50l83 -83zM842 313l-83 83l-50 -50l83 -83zM342 198l-82 82l-51 -50l83 -82z" />
    <glyph glyph-name="uni2FD3" unicode="&#x9f8d;" 
d="M949 25h-327v374h308v219h-308v73h327v72h-327v64h-72v-281h308v-75h-308v-518h399v72zM154 -67v420h242v-420h72v492h-386v-492h72zM498 771h-186v58h-72v-58h-187v-72h445v72zM496 557h-445v-72h445v72zM366 563l82 83l-51 50l-82 -83zM342 20l-82 83l-51 -51l83 -82z
M842 93l-83 83l-50 -51l83 -82zM842 201l-83 83l-50 -51l83 -82zM236 613l-83 83l-50 -50l83 -83zM842 313l-83 83l-50 -50l83 -83zM342 198l-82 82l-51 -50l83 -82z" />
    <glyph glyph-name="uni2FD5" unicode="&#x2fd5;" 
d="M207 -50v134h150v-137h72v137h142v-137h72v137h149v-64h-73v-72h145v363h-729v-361h72zM934 671l-398 120v36h-72v-36l-399 -120l20 -68l167 50v-53h495v53l167 -50zM383 562v-201h233v201h-233zM644 562v-201h233v201h-233zM123 562v-201h232v201h-232zM207 239h150v-83
h-150v83zM792 156h-149v83h149v-83zM429 239h142v-83h-142v83zM500 728l185 -56h-372zM544 490v-57h-89v57h89zM805 490v-57h-89v57h89zM283 490v-57h-88v57h88z" />
    <glyph glyph-name="uni2FD5" unicode="&#x9fa0;" 
d="M207 -50v134h150v-137h72v137h142v-137h72v137h149v-64h-73v-72h145v363h-729v-361h72zM934 671l-398 120v36h-72v-36l-399 -120l20 -68l167 50v-53h495v53l167 -50zM383 562v-201h233v201h-233zM644 562v-201h233v201h-233zM123 562v-201h232v201h-232zM207 239h150v-83
h-150v83zM792 156h-149v83h149v-83zM429 239h142v-83h-142v83zM500 728l185 -56h-372zM544 490v-57h-89v57h89zM805 490v-57h-89v57h89zM283 490v-57h-88v57h88z" />
    <glyph glyph-name="uni3000" unicode="&#x3000;" 
 />
    <glyph glyph-name="uni3001" unicode="&#x3001;" 
d="M77 67l111 -115l58 56l-111 115z" />
    <glyph glyph-name="uni3002" unicode="&#x3002;" 
d="M201 -43l37 35v114l-37 37h-106l-37 -37v-114l38 -35h105zM177 18h-58v64h58v-64z" />
    <glyph glyph-name="uni3005" unicode="&#x3005;" 
d="M381 690v-194l-254 -342l64 -48l250 336h351v-14l-193 -271l-153 105l-46 -66l348 -238l46 66l-129 88l207 290v120h-411v168h-80z" />
    <glyph glyph-name="uni3007" unicode="&#x3007;" 
d="M260 35l-62 63v491l61 67h480l62 -66v-492l-63 -63h-478zM773 -45l108 110v555l-108 116h-548l-107 -116v-555l107 -110h548z" />
    <glyph glyph-name="uni3008" unicode="&#x3008;" 
d="M883 836l-229 -465l229 -465l72 36l-212 429l212 429z" />
    <glyph glyph-name="uni3009" unicode="&#x3009;" 
d="M43 800l212 -429l-212 -429l72 -36l229 465l-229 465z" />
    <glyph glyph-name="uni300A" unicode="&#x300a;" 
d="M726 834l-206 -463l206 -463l74 32l-192 431l192 431zM877 834l-206 -463l206 -463l74 32l-192 431l192 431z" />
    <glyph glyph-name="uni300B" unicode="&#x300b;" 
d="M206 802l192 -431l-192 -431l74 -32l206 463l-206 463zM55 802l192 -431l-192 -431l74 -32l206 463l-206 463z" />
    <glyph glyph-name="uni300C" unicode="&#x300c;" 
d="M732 -45v744l57 77h134v80h-174l-97 -131v-770h80z" />
    <glyph glyph-name="uni300D" unicode="&#x300d;" 
d="M267 784v-742l-57 -77h-134v-80h174l97 131v768h-80z" />
    <glyph glyph-name="uni300E" unicode="&#x300e;" 
d="M697 1v724l47 63h134v-57h-88l-42 -59v-671h-51zM828 -79v725l3 5h127v217h-255l-86 -117v-830h211z" />
    <glyph glyph-name="uni300F" unicode="&#x300f;" 
d="M302 757v-727l-47 -63h-122v37h78l42 59v694h49zM173 837v-748l-3 -5h-117v-197h243l86 117v833h-209z" />
    <glyph glyph-name="uni3010" unicode="&#x3010;" 
d="M947 -125q-122 286 -122 513q0 225 122 510h-258l-101 -116v-791l101 -116h258z" />
    <glyph glyph-name="uni3011" unicode="&#x3011;" 
d="M313 -125l101 116v791l-101 116h-257q122 -285 122 -510q0 -227 -122 -513h257z" />
    <glyph glyph-name="uni3016" unicode="&#x3016;" 
d="M753 -21l-59 59v676l59 59h121q-83 -196 -83 -395q0 -195 84 -399h-122zM1000 -101q-129 270 -129 479t130 475h-280l-107 -107v-740l107 -107h279z" />
    <glyph glyph-name="uni3017" unicode="&#x3017;" 
d="M280 -101l107 107v740l-107 107h-280q130 -266 130 -475t-129 -479h279zM126 -21q84 194 84 399q0 199 -83 395h121l59 -59v-676l-59 -59h-122z" />
    <glyph glyph-name="uni306E" unicode="&#x306e;" 
d="M462 1l142 605h55l99 -79v-374l-99 -72h-130v-80h156l153 110v454l-152 121h-358l-166 -109v-459l91 -117h209zM353 606h169l-124 -525h-105l-51 64v388z" />
    <glyph glyph-name="uni4E01" unicode="&#x4e01;" 
d="M949 788h-898v-72h444v-696h-196v-72h268v768h382v72z" />
    <glyph glyph-name="uni4E03" unicode="&#x4e03;" 
d="M943 571l-516 -37v292h-72v-297l-303 -21l5 -72l298 21v-507h464l111 186l-61 36l-89 -150h-353v440l521 37z" />
    <glyph glyph-name="uni4E07" unicode="&#x4e07;" 
d="M949 802h-898v-72h214l-80 -623l-122 -109l48 -54l143 127l50 393h491v-444h-182v-72h254v588h-553l25 194h610v72z" />
    <glyph glyph-name="uni4E08" unicode="&#x4e08;" 
d="M729 828v-113h-678v-72h678v-271l-237 -131l-249 131v158h-72v-202l246 -129l-348 -192l34 -63l390 215l412 -215l34 63q-88 45 -370 194l232 128v314h148v72h-148v113h-72z" />
    <glyph glyph-name="uni4E09" unicode="&#x4e09;" 
d="M933 782h-865v-72h865v72zM905 387h-809v-72h809v72zM949 19h-898v-72h898v72z" />
    <glyph glyph-name="uni4E0A" unicode="&#x4e0a;" 
d="M949 22h-467v807h-72v-807h-359v-72h898v72zM675 413l108 108l-51 51l-108 -108z" />
    <glyph glyph-name="uni4E0B" unicode="&#x4e0b;" 
d="M949 796h-898v-72h375v-794h72v794h451v72zM810 367l-108 107l-51 -53l108 -106z" />
    <glyph glyph-name="uni4E0C" unicode="&#x4e0c;" 
d="M949 793h-898v-72h182v-616l-107 -119l54 -47l125 140v642h383v-792h72v792h189v72z" />
    <glyph glyph-name="uni4E0D" unicode="&#x4e0d;" 
d="M949 793h-898v-72h365l-347 -566l61 -38l334 544v-731h72v791h413v72zM577 599l296 -482l62 38l-296 481z" />
    <glyph glyph-name="uni4E0E" unicode="&#x4e0e;" 
d="M184 826l-58 -343v-88h735v-374h-395v-72h467v518h-735v13l25 153h718v72h-706l19 109zM58 162h690v72h-690v-72z" />
    <glyph glyph-name="uni4E10" unicode="&#x4e10;" 
d="M50 737h414v-381h-305v12l33 300l-72 7l-33 -300v-91h756v-264h-558v-72h630v408h-379v381h414v72h-900v-72zM818 574l-96 -96l-50 50l95 97z" />
    <glyph glyph-name="uni4E11" unicode="&#x4e11;" 
d="M98 374h151l-34 -352h-165v-72h899v72h-94v793h-741v-72h172l-30 -297h-158v-72zM322 374h461v-352h-495zM783 446h-454l30 297h424v-297z" />
    <glyph glyph-name="uni4E13" unicode="&#x4e13;" 
d="M410 824l-46 -110h-288v-72h258l-49 -120h-235v-72h205l-42 -103v-86h552v-4l-265 -173l-396 64l-11 -71l795 -127l11 70l-293 47l231 151v115h-552l48 117h617v72h-587l50 120h511v72h-482l35 83z" />
    <glyph glyph-name="uni4E14" unicode="&#x4e14;" 
d="M949 20h-126v792h-646v-792h-127v-72h899v72zM751 20h-502v720h502v-720zM572 495l-104 105l-50 -51l104 -104zM572 242l-104 105l-50 -51l104 -104z" />
    <glyph glyph-name="uni4E15" unicode="&#x4e15;" 
d="M949 810h-899v-72h357l-337 -461l57 -43l336 457v-607h72v654h414v72zM949 20h-899v-72h899v72zM579 636l295 -402l58 43l-295 403z" />
    <glyph glyph-name="uni4E16" unicode="&#x4e16;" 
d="M949 608h-144v222h-72v-222h-281v222h-72v-222h-158v182h-72v-182h-100v-72h100v-587h799v72h-727v515h158v-388h425v388h144v72zM452 220v316h281v-316h-281z" />
    <glyph glyph-name="uni4E18" unicode="&#x4e18;" 
d="M949 20h-198v386h151v72h-659v221h547l95 50l-34 63l-79 -41h-601v-751h-121v-72h899v72zM243 406h436v-386h-436v386z" />
    <glyph glyph-name="uni4E19" unicode="&#x4e19;" 
d="M160 -70v582h274l-218 -349l61 -38l223 356l223 -356l61 38l-219 349h275v-492h-96v-72h168v636h-376v159h413v72h-898v-72h413v-159h-376v-654h72z" />
    <glyph glyph-name="uni4E1A" unicode="&#x4e1a;" 
d="M949 21h-292v809h-72v-809h-171v809h-72v-809h-292v-72h899v72zM81 657l106 -502l70 14l-105 503zM847 672l-104 -503l70 -14l105 502z" />
    <glyph glyph-name="uni4E1B" unicode="&#x4e1b;" 
d="M474 147q-28 68 -85 201l-86 200v280h-72v-280l-171 -401l66 -29l141 329l140 -329zM588 118l141 329l139 -329l67 29l-170 401v280h-72v-280l-171 -401zM949 18h-898v-72h898v72z" />
    <glyph glyph-name="uni4E1C" unicode="&#x4e1c;" 
d="M297 820l-56 -121h-190v-72h157l-102 -221v-87h379v-302h-135v-72h207v374h348v72h-348v191h-72v-191h-307l108 236h663v72h-630l42 90zM214 263l-143 -291l64 -32l144 291zM720 231l144 -291l64 32l-144 291z" />
    <glyph glyph-name="uni4E1D" unicode="&#x4e1d;" 
d="M523 141h416v72h-245l231 393l-61 36l-65 -111h-174l155 246l-61 38l-181 -288v-68h218l-144 -246h-89v-72zM61 141h416v72h-246l228 377l-61 37l-58 -96h-188l147 242l-61 38l-172 -284v-68h231l-149 -246h-87v-72zM51 -55h898v72h-898v-72z" />
    <glyph glyph-name="uni4E1E" unicode="&#x4e1e;" 
d="M936 113l-203 281l213 137l-39 61l-216 -139l-92 128l247 112v115h-729v-72h652l-289 -131v-434h-156v-72h228v426l326 -453zM949 17h-899v-72h899v72zM121 70l275 396v120h-344v-72h272v-25l-262 -378z" />
    <glyph glyph-name="uni4E22" unicode="&#x4e22;" 
d="M886 815l-83 -33h-703v-72h364v-154h-373v-72h373v-150h-413v-72h159l-104 -215v-102h759l68 176l-67 25l-49 -129h-639v15l112 230h659v72h-413v150h373v72h-373v154h281l96 38z" />
    <glyph glyph-name="uni4E24" unicode="&#x4e24;" 
d="M159 -71v591h137l-111 -417l70 -18l90 340l90 -167l63 34l-122 228h225l-103 -442l70 -17l77 328l72 -216l68 22l-108 325h163v-503h-96v-72h168v647h-237v151h274v72h-898v-72h247v-151h-211v-663h72zM370 743h233v-151h-233v151z" />
    <glyph glyph-name="uni4E25" unicode="&#x4e25;" 
d="M69 742h296v-288h-247v-390l-62 -79l56 -45l78 99v343h754v72h-297v288h297v72h-875v-72zM437 742h138v-288h-138v288zM266 569l-95 97l-53 -51l96 -97zM798 518l96 97l-52 51l-96 -97z" />
    <glyph glyph-name="uni4E27" unicode="&#x4e27;" 
d="M463 829v-75h-391v-72h391v-263h-413v-72h85v-401h300v72h-228v329h186l366 -401h190v72h-157l-114 125l203 92l-29 65l-225 -102l-135 149h456v72h-413v263h391v72h-391v75h-72zM279 527l-96 97l-50 -51l95 -96zM770 477l96 96l-50 51l-96 -97z" />
    <glyph glyph-name="uni4E2A" unicode="&#x4e2a;" 
d="M936 385q-79 70 -201 180l-200 179v80h-72v-80l-400 -359l49 -54l387 347l388 -347zM535 -69v548h-72v-548h72z" />
    <glyph glyph-name="uni4E2B" unicode="&#x4e2b;" 
d="M65 753l399 -309v-513h72v513l399 309l-45 57l-391 -302l-391 302z" />
    <glyph glyph-name="uni4E2C" unicode="&#x4e2c;" 
d="M443 287l-95 -96l50 -50l96 96zM494 567l-96 96l-50 -50l95 -96zM580 827v-895h72v895h-72z" />
    <glyph glyph-name="uni4E2D" unicode="&#x4e2d;" 
d="M536 645v182h-72v-182h-395v-469h395v-244h72v244h395v469h-395zM464 573v-325h-323v325h323zM536 248v325h323v-325h-323z" />
    <glyph glyph-name="uni4E30" unicode="&#x4e30;" 
d="M913 723h-377v104h-72v-104h-378v-72h378v-199h-357v-72h357v-195h-414v-72h414v-181h72v181h413v72h-413v195h356v72h-356v199h377v72z" />
    <glyph glyph-name="uni4E32" unicode="&#x4e32;" 
d="M536 735v92h-72v-92h-365v-294h365v-102h-395v-297h395v-110h72v110h395v297h-395v102h366v294h-366zM464 267v-153h-323v153h323zM536 114v153h323v-153h-323zM536 513v150h294v-150h-294zM464 663v-150h-293v150h293z" />
    <glyph glyph-name="uni4E34" unicode="&#x4e34;" 
d="M423 399v-450h485v450h-485zM836 327v-306h-341v306h341zM239 827v-895h72v895h-72zM463 827v-133l-106 -175l61 -38l101 167h410v72h-394v107h-72zM71 742v-725h72v725h-72zM774 499l-95 97l-52 -50l95 -98zM743 145l-96 96l-51 -50l97 -96z" />
    <glyph glyph-name="uni4E38" unicode="&#x4e38;" 
d="M57 -51h169l85 299l195 -137l42 60l-216 152l77 270h268v-646h202l64 280l-70 16l-52 -224h-72v646h-319l40 140l-68 20l-46 -160h-284v-72h263l-65 -227l-142 101l-41 -59l162 -116l-77 -271h-115v-72z" />
    <glyph glyph-name="uni4E39" unicode="&#x4e39;" 
d="M120 -56l133 149v225h493v-299h-96v-72h168v371h131v72h-131v420h-637v-420h-130v-72h130v-196l-115 -129zM746 390h-493v348h493v-348zM581 526l-95 98l-53 -51l96 -97z" />
    <glyph glyph-name="uni4E3A" unicode="&#x4e3a;" 
d="M76 533h324l-183 -511h-142v-72h194l208 583h376v-513h-159v-72h231v657h-422l68 191l-68 25l-78 -216h-349v-72zM705 262l-95 96l-51 -50l96 -97zM321 704l-96 97l-50 -51l95 -96z" />
    <glyph glyph-name="uni4E3B" unicode="&#x4e3b;" 
d="M949 22h-414v234h357v72h-357v223h378v72h-827v-72h377v-223h-356v-72h356v-234h-413v-72h899v72zM573 708l-96 97l-51 -51l96 -96z" />
    <glyph glyph-name="uni4E3D" unicode="&#x4e3d;" 
d="M803 290l-96 96l-50 -50l96 -96zM347 290l-95 96l-51 -50l96 -96zM609 -73v631h229v-557h-93v-72h165v701h-373v-703h72zM162 -71v629h230v-557h-99v-72h171v701h-374v-701h72zM949 800h-898v-72h898v72z" />
    <glyph glyph-name="uni4E3E" unicode="&#x4e3e;" 
d="M748 357h-212v131h-72v-131h-212v-72h212v-136h-375v-72h375v-146h72v146h376v72h-376v136h212v72zM123 256l206 282h342l206 -282l58 43l-174 239h188v72h-898v-72h188l-174 -239zM303 706l-96 97l-51 -51l96 -96zM747 656l97 96l-51 51l-96 -97zM573 706l-96 97
l-50 -51l95 -96z" />
    <glyph glyph-name="uni4E43" unicode="&#x4e43;" 
d="M85 741h125v-589l-144 -157l54 -49l162 177v618h530l-251 -237v-96h301v-385h-209v-72h281v529h-295l246 231v102h-800v-72z" />
    <glyph glyph-name="uni4E45" unicode="&#x4e45;" 
d="M263 828v-151l-200 -151l43 -58l204 154h425v-100l-672 -517l44 -58l385 297l402 -297l43 58l-386 284l256 198v207h-472v134h-72z" />
    <glyph glyph-name="uni4E47" unicode="&#x4e47;" 
d="M52 342h356v-396h432l93 123l-58 43l-71 -94h-324v324h468v72h-468v286h338l97 49l-31 65l-83 -42h-701v-72h308v-286h-356v-72z" />
    <glyph glyph-name="uni4E48" unicode="&#x4e48;" 
d="M715 683l-645 -630v-108h766l97 233l-67 27l-79 -188h-645v4l623 609zM443 819l-377 -359l51 -52l377 359z" />
    <glyph glyph-name="uni4E49" unicode="&#x4e49;" 
d="M937 3l-375 262l267 187v317h-72v-279l-258 -181l-257 181v279h-72v-317l266 -187l-374 -262l41 -59l396 277l397 -277zM574 691l-97 97l-52 -50l97 -98z" />
    <glyph glyph-name="uni4E4B" unicode="&#x4e4b;" 
d="M949 22h-678l584 506v118h-774v-72h702v-14l-620 -538h-112v-72h898v72zM573 720l-96 96l-50 -51l95 -96z" />
    <glyph glyph-name="uni4E4C" unicode="&#x4e4c;" 
d="M670 459h259v284h-522v86h-72v-86h-164v-439h686v-283h-302v-72h374v427h-686v295h614v-140h-187v-72zM753 192h-683v-72h683v72z" />
    <glyph glyph-name="uni4E4D" unicode="&#x4e4d;" 
d="M422 -70v188h501v72h-501v190h501v72h-501v187h521v72h-655v116h-72v-138l-159 -184l54 -47l157 181h82v-709h72z" />
    <glyph glyph-name="uni4E4E" unicode="&#x4e4e;" 
d="M89 690h372v-331h-410v-72h410v-267h-152v-72h224v339h416v72h-416v331h304l94 61l-40 61l-39 -25q-26 -16 -39 -25h-724v-72zM298 503l-95 96l-50 -51l95 -95zM752 453l95 95l-50 51l-95 -96z" />
    <glyph glyph-name="uni4E4F" unicode="&#x4e4f;" 
d="M949 22h-596l503 354v98h-773v-72h684l-542 -380h-175v-72h899v72zM78 691h754l92 60l-40 61l-75 -49h-731v-72zM573 560l-96 95l-50 -50l95 -95z" />
    <glyph glyph-name="uni4E50" unicode="&#x4e50;" 
d="M941 430h-400v223h-72v-223h-282v278h600l95 37l-26 66l-80 -31h-661v-422h354v-339h-147v-72h219v411h400v72zM243 306l-185 -334l63 -34l185 333zM681 271l184 -333l63 34l-184 334z" />
    <glyph glyph-name="uni4E52" unicode="&#x4e52;" 
d="M949 236h-199v253h151v72h-658v145h549l84 43l-32 64q-17 -8 -70 -35h-603v-542h-120v-72h898v72zM243 489h435v-253h-435v253zM180 -42l96 96l-51 50l-95 -95z" />
    <glyph glyph-name="uni4E53" unicode="&#x4e53;" 
d="M949 236h-199v253h151v72h-658v145h549l83 43l-32 64q-11 -5 -69 -35h-603v-542h-120v-72h898v72zM243 489h435v-253h-435v253zM861 9l-96 95l-50 -50l95 -96z" />
    <glyph glyph-name="uni4E54" unicode="&#x4e54;" 
d="M872 812l-71 -38h-711v-72h373v-132h-400v-72h326l-328 -235l41 -58l396 284l399 -285l41 60l-327 234h324v72h-400v132h284l85 45zM201 -57l141 115v225h-72v-191l-114 -94zM730 -71v354h-72v-354h72z" />
    <glyph glyph-name="uni4E56" unicode="&#x4e56;" 
d="M536 -70v611h413v72h-413v99h296l89 37l-27 67l-75 -32h-743v-72h388v-99h-414v-72h414v-611h72zM643 481v-404h212l81 83l-51 50l-59 -61h-111v332h-72zM355 64v417h-72v-417h72zM141 102l83 83l-51 50l-83 -83zM90 394l83 -83l51 50l-83 83zM828 282l82 83l-50 50
l-83 -83z" />
    <glyph glyph-name="uni4E58" unicode="&#x4e58;" 
d="M536 -70v231l354 -213l37 61l-391 236v335h413v72h-413v86h388v72h-848v-72h388v-86h-413v-72h413v-347l-394 -223l36 -63l358 202v-219h72zM643 531v-303h228l67 56l-45 55l-47 -39h-131v231h-72zM355 213v318h-72v-318h72zM825 368l83 83l-51 50l-83 -82zM225 435
l-82 83l-51 -51l83 -83zM143 215l82 82l-50 50l-83 -81z" />
    <glyph glyph-name="uni4E5C" unicode="&#x4e5c;" 
d="M570 245h317v447h-648v138h-72v-138h-109v-72h109v-668h657l118 146l-56 45l-96 -119h-551v596h576v-303h-245v-72z" />
    <glyph glyph-name="uni4E5D" unicode="&#x4e5d;" 
d="M874 124q-7 -17 -23 -51l-23 -52h-66v615h-342l46 166l-70 19l-51 -185h-256v-72h236l-151 -545h-115v-72h171l170 617h290v-615h186l65 146z" />
    <glyph glyph-name="uni4E5E" unicode="&#x4e5e;" 
d="M879 119l-79 -98h-572l627 384v93h-723v-72h620l-610 -384v-93h692l101 125zM161 829v-124l-97 -118l56 -45l93 115h713v72h-693v100h-72z" />
    <glyph glyph-name="uni4E5F" unicode="&#x4e5f;" 
d="M707 202h202v484h-354v144h-72v-144h-249v144h-72v-144h-103v-72h103v-662h624l155 127l-47 55l-136 -110h-524v590h249v-476h72v476h282v-340h-130v-72z" />
    <glyph glyph-name="uni4E60" unicode="&#x4e60;" 
d="M504 460l-300 183l-38 -61l300 -183zM712 416l-633 -398l38 -61l633 398zM687 -52h241v864h-857v-72h785v-720h-169v-72z" />
    <glyph glyph-name="uni4E61" unicode="&#x4e61;" 
d="M495 817l-384 -233v-93h349l-352 -221v-107h508l-214 -140h-346v-72h369l519 338l-40 62l-178 -116h-539l635 398l-38 61l-209 -131h-358l316 193z" />
    <glyph glyph-name="uni4E66" unicode="&#x4e66;" 
d="M714 10h211v381h-120v298h-332v141h-72v-141h-295v-72h295v-226h-343v-72h343v-387h72v387h380v-237h-139v-72zM733 391h-260v226h260v-226zM941 730l-83 83l-50 -50l83 -83z" />
    <glyph glyph-name="uni4E69" unicode="&#x4e69;" 
d="M282 406v424h-72v-424h-142v-456h427v456h-213zM423 334v-312h-283v312h283zM599 829v-879h257l76 177l-67 29l-57 -134h-137v807h-72zM400 563l95 95l-50 51l-95 -96z" />
    <glyph glyph-name="uni4E70" unicode="&#x4e70;" 
d="M521 678v-390h-470v-72h438l-429 -203l30 -64l463 218l342 -223l40 61l-324 211h338v72h-356v390h-72zM929 589v222h-856v-72h784v-150h72zM286 411l-96 96l-50 -51l95 -95zM418 569l-95 95l-51 -50l96 -96z" />
    <glyph glyph-name="uni4E71" unicode="&#x4e71;" 
d="M77 701h196v-139h-214v-72h214v-140h-182v-400h437v400h-183v140h215v72h-215v139h119l91 48l-33 65l-76 -41h-369v-72zM626 828v-877h239l76 183l-67 27l-57 -138h-119v805h-72zM456 278v-256h-293v256h293z" />
    <glyph glyph-name="uni4E73" unicode="&#x4e73;" 
d="M147 -52h215v238h203v72h-162l140 165v86h-483v-72h399l-151 -179h-248v-72h230v-166h-143v-72zM624 828v-877h240l75 183l-66 27l-58 -138h-119v805h-72zM565 813h-505v-72h505v72zM199 610l-76 77l-51 -51l77 -76zM476 560l75 76l-50 51l-76 -77zM375 610l-76 77
l-50 -51l75 -76z" />
    <glyph glyph-name="uni4E7E" unicode="&#x4e7e;" 
d="M293 -69v107h166v72h-166v95h149v398h-149v88h166v72h-166v65h-72v-65h-167v-72h167v-88h-149v-398h149v-95h-167v-72h167v-107h72zM867 149l-48 -127h-218l291 393v88h-397v-72h320l-293 -395v-86h346l66 174zM370 531v-254h-226v254h226zM531 830v-128l-63 -93l59 -42
l59 88h359v72h-342v103h-72zM330 381l-96 95l-50 -50l95 -95z" />
    <glyph glyph-name="uni4E86" unicode="&#x4e86;" 
d="M279 -51h283v483l378 265v114h-881v-72h809v-4l-378 -265v-449h-211v-72z" />
    <glyph glyph-name="uni4E88" unicode="&#x4e88;" 
d="M938 194v255h-343l276 254v111h-744v-72h672v-8l-297 -274l-273 237l-47 -54l224 -194h-345v-72h406v-356h-175v-72h247v428h327v-183h72z" />
    <glyph glyph-name="uni4E89" unicode="&#x4e89;" 
d="M129 129h321v-107h-164v-72h236v179h330v188h97v72h-97v190h-117l89 103v95h-576v52h-72v-75l-104 -123l54 -47l102 121h522l-108 -126h-513v-72h321v-118h-400v-72h400v-116h-321v-72zM780 389h-258v118h258v-118zM522 201v116h258v-116h-258z" />
    <glyph glyph-name="uni4E8B" unicode="&#x4e8b;" 
d="M79 70h391v-58h-137v-72h209v130h374v133h33v72h-33v130h-374v56h374v202h-374v50h407v72h-407v45h-72v-45h-419v-72h419v-50h-386v-202h386v-56h-391v-72h391v-58h-419v-72h419v-61h-391v-72zM542 142v61h302v-61h-302zM470 591v-58h-314v58h314zM542 533v58h302v-58
h-302zM844 275h-302v58h302v-58z" />
    <glyph glyph-name="uni4E8D" unicode="&#x4e8d;" 
d="M949 486h-898v-72h432v-394h-240v-72h312v466h394v72zM913 799h-826v-72h826v72z" />
    <glyph glyph-name="uni4E8E" unicode="&#x4e8e;" 
d="M913 799h-826v-72h374v-294h-410v-72h410v-341h-218v-72h290v413h416v72h-416v294h380v72z" />
    <glyph glyph-name="uni4E8F" unicode="&#x4e8f;" 
d="M949 560h-899v-72h128l-77 -138v-102h706v-228h-459v-72h531v372h-706v10l88 158h688v72zM924 811h-849v-72h849v72z" />
    <glyph glyph-name="uni4E91" unicode="&#x4e91;" 
d="M949 496h-899v-72h203l-184 -378v-97h796l68 169l-67 25l-49 -122h-676v7l193 396h615v72zM924 811h-849v-72h849v72z" />
    <glyph glyph-name="uni4E92" unicode="&#x4e92;" 
d="M949 21h-176l79 488v86h-579l28 144h636v72h-874v-72h165l-93 -477v-90h591l-24 -151h-652v-72h899v72zM737 244h-530v13l52 266h521v-14z" />
    <glyph glyph-name="uni4E93" unicode="&#x4e93;" 
d="M949 493h-899v-72h159v-319l-117 -108l49 -52l140 129v350h433v-490h72v490h163v72zM918 810h-837v-72h837v72z" />
    <glyph glyph-name="uni4E94" unicode="&#x4e94;" 
d="M937 811h-874v-72h287l-44 -222h-212v-72h198l-84 -424h-158v-72h900v72h-107v496h-464l44 222h514v72zM771 21h-490l84 424h406v-424z" />
    <glyph glyph-name="uni4E95" unicode="&#x4e95;" 
d="M927 666h-179v164h-72v-164h-346v163h-72v-163h-186v-72h186v-270h-207v-72h207v-114l-139 -145l52 -50l159 164v145h346v-321h72v321h201v72h-201v270h179v72zM330 594h346v-270h-346v270z" />
    <glyph glyph-name="uni4E98" unicode="&#x4e98;" 
d="M578 350l-108 108l-50 -50l108 -108zM141 636v-515h716v515h-716zM785 564v-371h-572v371h572zM937 811h-876v-72h876v72zM949 21h-899v-72h899v72z" />
    <glyph glyph-name="uni4E9A" unicode="&#x4e9a;" 
d="M949 21h-292v718h281v72h-877v-72h280v-718h-291v-72h899v72zM413 739h172v-718h-172v718zM791 140l120 451l-70 18l-121 -451zM257 168l-99 440l-70 -17l99 -440z" />
    <glyph glyph-name="uni4E9B" unicode="&#x4e9b;" 
d="M135 791v-423h-82v-72h468v72h-141v462h-72v-462h-101v423h-72zM949 22h-899v-72h899v72zM913 198h-827v-72h827v72zM876 430l-44 -62h-139v461h-72v-533h249l66 93zM818 564l82 82l-50 51l-83 -83zM481 562l83 83l-51 50l-82 -83z" />
    <glyph glyph-name="uni4E9F" unicode="&#x4e9f;" 
d="M98 740h651l-278 -132v-456h-147v-72h219v483l302 143v106h-747v-72zM71 589v-378h295v378h-295zM936 149l-142 168l130 176v94h-320v-72h246l-104 -141l-73 86l-56 -47l84 -100l-123 -166l58 -43l113 152l131 -154zM949 21h-899v-72h899v72zM294 517v-234h-151v234h151z
" />
    <glyph glyph-name="uni4EA1" unicode="&#x4ea1;" 
d="M949 635h-898v-72h124v-614h723v72h-651v542h702v72zM567 727l-83 82l-51 -50l83 -82z" />
    <glyph glyph-name="uni4EA2" unicode="&#x4ea2;" 
d="M141 -55l134 125v402h420v-527h144l91 207l-66 29l-72 -164h-25v527h-564v-443l-111 -104zM949 717h-413v112h-72v-112h-413v-72h898v72z" />
    <glyph glyph-name="uni4EA4" unicode="&#x4ea4;" 
d="M220 589v-107l-118 -108l49 -52l107 98l180 -133l-378 -279l43 -58l395 292l396 -292l43 58l-378 279l180 133l107 -98l49 52l-118 108v107h-72v-105l-207 -153l-206 153v105h-72zM948 718h-413v113h-72v-113h-412v-72h897v72z" />
    <glyph glyph-name="uni4EA5" unicode="&#x4ea5;" 
d="M949 729h-413v102h-72v-102h-413v-72h337l-254 -155v-98h334l-408 -239l36 -63l749 438l-36 63l-218 -127h-363l299 181h422v72zM893 446l-749 -438l36 -63l393 230l327 -225l41 59l-299 206l287 168z" />
    <glyph glyph-name="uni4EA6" unicode="&#x4ea6;" 
d="M949 667h-898v-72h257v-450l-150 -149l50 -52l172 169v482h232v-574h-131v-72h203v646h265v72zM135 260l96 96l-51 50l-95 -95zM915 311l-96 95l-50 -50l95 -96zM567 731l-83 83l-51 -51l83 -83z" />
    <glyph glyph-name="uni4EA7" unicode="&#x4ea7;" 
d="M115 -60l78 99v345h748v72h-820v-391l-62 -80zM941 746h-397v85h-72v-85h-397v-72h866v72zM710 491l95 96l-50 50l-96 -95zM357 542l-96 95l-50 -50l95 -96z" />
    <glyph glyph-name="uni4EA8" unicode="&#x4ea8;" 
d="M117 624v-212h765v212h-765zM98 267h640l-267 -104v-142h-147v-72h219v166l339 132v92h-784v-72zM949 763h-413v68h-72v-68h-413v-72h898v72zM810 552v-68h-621v68h621z" />
    <glyph glyph-name="uni4EA9" unicode="&#x4ea9;" 
d="M109 564v-615h782v615h-782zM949 735h-413v96h-72v-96h-413v-72h898v72zM464 492v-204h-283v204h283zM819 288h-283v204h283v-204zM536 21v195h283v-195h-283zM181 216h283v-195h-283v195z" />
    <glyph glyph-name="uni4EAB" unicode="&#x4eab;" 
d="M117 619v-212h765v212h-765zM99 258h634l-227 -86h-455v-72h421v-79h-148v-72h220v151h405v72h-243l176 67v91h-783v-72zM949 763h-413v68h-72v-68h-413v-72h898v72zM810 547v-68h-621v68h621z" />
    <glyph glyph-name="uni4EAC" unicode="&#x4eac;" 
d="M126 560v-287h338v-251h-115v-72h187v323h337v287h-747zM801 488v-143h-603v143h603zM949 734h-413v95h-72v-95h-413v-72h898v72zM216 210l-144 -225l62 -40l144 225zM722 170l143 -225l62 40l-144 225z" />
    <glyph glyph-name="uni4EAD" unicode="&#x4ead;" 
d="M143 624v-217h714v217h-714zM141 162v115h718v-115h72v187h-862v-187h72zM803 198h-605v-72h298v-104h-197v-72h269v176h235v72zM949 754h-413v75h-72v-75h-413v-72h898v72zM785 552v-73h-570v73h570z" />
    <glyph glyph-name="uni4EAE" unicode="&#x4eae;" 
d="M144 639v-207h711v207h-711zM134 -53l180 90v131h375v-213h179l64 92l-59 39l-43 -59h-69v213h-519v-158l-141 -70zM143 202v103h714v-103h72v175h-858v-175h72zM946 761h-410v68h-72v-68h-410v-72h892v72zM783 567v-63h-567v63h567z" />
    <glyph glyph-name="uni4EB2" unicode="&#x4eb2;" 
d="M947 473h-895v-72h413v-109h-402v-72h402v-198h-125v-72h197v270h399v72h-399v109h410v72zM936 738h-400v91h-72v-91h-401v-72h873v72zM725 133l144 -189l58 43l-144 189zM219 176l-144 -189l58 -43l144 189zM708 498l95 95l-50 50l-96 -95zM342 548l-96 95l-50 -50
l95 -95z" />
    <glyph glyph-name="uni4EB3" unicode="&#x4eb3;" 
d="M804 298h-608v-72h268v-63h-404v-72h404v-141h394l69 61l-49 54l-50 -43h-292v69h404v72h-404v63h268v72zM126 652v-186h748v186h-748zM138 254v95h724v-95h72v167h-868v-167h72zM949 768h-413v61h-72v-61h-413v-72h898v72zM802 580v-42h-604v42h604z" />
    <glyph glyph-name="uni4EB5" unicode="&#x4eb5;" 
d="M423 436l83 -42l-46 -101l65 -29l45 98l137 -68l32 65l-139 69l53 118h142v-301h152v72h-80v301h-181l35 78h227v72h-413v61h-72v-61h-412v-72h592l-36 -78h-166v-72h134l-39 -86l-80 40zM376 345v-85l-313 -200l39 -61l176 113v-161h255v72h-183v135l63 41l490 -253
l33 65l-167 85l45 78l-63 36l-46 -80l-257 132v83h-72zM189 670v-54h-138v-72h138v-89h-138v-72h138v-66h-98v-72h170v138h135v72h-135v89h135v72h-135v54h-72z" />
    <glyph glyph-name="uni4EBB" unicode="&#x4ebb;" 
d="M676 815l-397 -295l44 -58l201 149v-680h72v734l124 92z" />
    <glyph glyph-name="uni4EBF" unicode="&#x4ebf;" 
d="M873 131l-69 -110h-333v17l401 637v111h-472v-72h400v-20l-401 -636v-109h445l90 144zM300 815l-234 -300l58 -43l83 106v-644h72v737l79 101z" />
    <glyph glyph-name="uni4EC0" unicode="&#x4ec0;" 
d="M943 516h-261v312h-72v-312h-262v-72h262v-512h72v512h261v72zM307 817l-251 -299l56 -47l95 113v-650h72v736l84 101z" />
    <glyph glyph-name="uni4EC1" unicode="&#x4ec1;" 
d="M295 815l-238 -300l56 -45l86 108v-645h72v736l80 101zM942 19h-604v-72h604v72zM909 721h-540v-72h540v72z" />
    <glyph glyph-name="uni4EC2" unicode="&#x4ec2;" 
d="M366 588h110v-472l-101 -127l56 -45l117 148v496h300v-567h-114v-72h186v711h-372v167h-72v-167h-110v-72zM315 816l-236 -300l56 -45l85 108v-644h72v735l79 101z" />
    <glyph glyph-name="uni4EC3" unicode="&#x4ec3;" 
d="M376 717h294v-697h-184v-72h256v769h199v72h-565v-72zM296 815l-237 -300l56 -45l85 108v-644h72v735l79 101z" />
    <glyph glyph-name="uni4EC4" unicode="&#x4ec4;" 
d="M126 -63l68 160v638h747v72h-819v-694l-63 -147zM926 -19l-311 453v226h-72v-226l-309 -453l59 -41l286 418l287 -418z" />
    <glyph glyph-name="uni4EC5" unicode="&#x4ec5;" 
d="M376 693h421v-198l-168 -177l-167 178v129h-72v-158l190 -201l-259 -274l52 -50l256 271l257 -271l52 50l-259 274l190 201v298h-493v-72zM285 814l-224 -300l57 -43l77 103v-641h72v737l75 101z" />
    <glyph glyph-name="uni4EC6" unicode="&#x4ec6;" 
d="M403 816l-324 -299l48 -53l145 134v-668h72v735l107 99zM611 828v-897h72v897h-72zM921 392l-95 95l-51 -50l96 -96z" />
    <glyph glyph-name="uni4EC7" unicode="&#x4ec7;" 
d="M348 588h110v-410l-119 -200l63 -36l128 216v430h234v-637h178v72h-106v637h-306v167h-72v-167h-110v-72zM291 812l-234 -300l58 -43l83 106v-644h72v737l79 101z" />
    <glyph glyph-name="uni4EC9" unicode="&#x4ec9;" 
d="M398 -62l101 166v630h277v-787h166v72h-94v787h-421v-683l-90 -147zM292 813l-235 -300l56 -45l85 108v-645h72v737l78 100z" />
    <glyph glyph-name="uni4ECA" unicode="&#x4eca;" 
d="M495 -55l351 285v118h-720v-72h648v-11l-324 -264zM937 469l-401 297v63h-72v-63l-401 -297l43 -58l394 291l394 -291zM522 432l-95 95l50 51l96 -96z" />
    <glyph glyph-name="uni4ECB" unicode="&#x4ecb;" 
d="M944 506l-409 241v79h-72v-79l-408 -241l36 -61l408 241l409 -241zM183 -57l137 153v360h-72v-331l-119 -133zM763 -69v525h-72v-525h72z" />
    <glyph glyph-name="uni4ECD" unicode="&#x4ecd;" 
d="M371 713h87v-603l-90 -124l57 -43l105 144v626h314l-170 -232v-87h181v-374h-159v-72h231v518h-176l165 224v95h-545v-72zM282 813l-209 -300l60 -41l65 93v-633h72v736l72 104z" />
    <glyph glyph-name="uni4ECE" unicode="&#x4ece;" 
d="M484 -43l-171 552v319h-72v-320l-170 -551l68 -21l138 446l138 -446zM585 -64l137 446l139 -446l68 21l-171 552v319h-72v-320l-170 -551z" />
    <glyph glyph-name="uni4ED1" unicode="&#x4ed1;" 
d="M218 464v-513h587l122 151l-55 45l-101 -124h-481v135l505 159l-21 69l-484 -153v231h-72zM938 471l-402 296v63h-72v-63l-402 -296l43 -58l395 290l395 -290z" />
    <glyph glyph-name="uni4ED3" unicode="&#x4ed3;" 
d="M489 174h287v301h-558v-525h586l117 145l-56 45q-32 -39 -94 -118h-481v381h414v-157h-215v-72zM936 472l-400 294v64h-72v-63l-401 -295l43 -58l394 289l393 -289z" />
    <glyph glyph-name="uni4ED4" unicode="&#x4ed4;" 
d="M384 723h451v-4l-213 -208v-98h-281v-72h281v-320h-130v-72h202v392h250v72h-250v69l213 208v105h-523v-72zM280 814l-224 -301l58 -43l76 102v-640h72v737l76 102z" />
    <glyph glyph-name="uni4ED5" unicode="&#x4ed5;" 
d="M350 -50h572v72h-250v452h270v72h-270v283h-72v-283h-269v-72h269v-452h-250v-72zM300 816l-243 -301l56 -45l89 110v-647h72v736l82 102z" />
    <glyph glyph-name="uni4ED6" unicode="&#x4ed6;" 
d="M765 198h148v484h-238v144h-72v-144h-145v144h-72v-144h-59v-72h59v-660h441l109 136l-56 45q-7 -8 -88 -109h-334v588h145v-476h72v476h166v-340h-76v-72zM263 813l-199 -301l60 -39l59 89v-629h72v737l68 103z" />
    <glyph glyph-name="uni4ED7" unicode="&#x4ed7;" 
d="M376 459l187 -193l-244 -273l54 -48l240 269l263 -271l52 50l-266 275l155 173v164h123v72h-123v153h-72v-153h-424v-72h424v-135l-134 -150l-183 190zM263 813l-204 -300l59 -39l63 92v-632h72v737l70 102z" />
    <glyph glyph-name="uni4ED8" unicode="&#x4ed8;" 
d="M942 656h-101v172h-72v-172h-431v-72h431v-580h-206v-72h278v652h101v72zM283 815l-226 -301l58 -43l78 103v-641h72v737l76 101zM428 353l95 -95l51 50l-96 95z" />
    <glyph glyph-name="uni4ED9" unicode="&#x4ed9;" 
d="M402 699v-750h525v750h-72v-678h-155v809h-72v-809h-154v678h-72zM297 815l-225 -301l58 -43l77 103v-641h72v737l76 102z" />
    <glyph glyph-name="uni4EDD" unicode="&#x4edd;" 
d="M54 -50h891v72h-410v302h281v72h-634v-72h281v-302h-409v-72zM937 447l-402 312v68h-72v-68l-402 -312l43 -57l395 305l395 -305z" />
    <glyph glyph-name="uni4EDE" unicode="&#x4ede;" 
d="M389 722h125v-595l-112 -137l56 -45l128 156v621h261v-703h-113v-72h185v847h-530v-72zM297 814l-217 -299l57 -43l73 100v-636h72v735l73 100zM441 478l-95 -96l50 -50l96 95z" />
    <glyph glyph-name="uni4EDF" unicode="&#x4edf;" 
d="M941 413h-263v277h176l72 61l-45 56l-53 -45h-447v-72h225v-277h-263v-72h263v-411h72v411h263v72zM296 815l-238 -300l56 -45l86 109v-646h72v737l79 100z" />
    <glyph glyph-name="uni4EE1" unicode="&#x4ee1;" 
d="M869 129q-50 -72 -77 -108h-305l386 376v90h-492v-72h407l-386 -376v-90h428l98 138zM289 815l-224 -300l58 -43l76 101v-639h72v735l76 102zM403 826v-123l-93 -122l58 -44l89 117h477v72h-459v100h-72z" />
    <glyph glyph-name="uni4EE3" unicode="&#x4ee3;" 
d="M935 546l-303 -3l-29 278l-72 -8l28 -270l-226 -2v-72l233 2l55 -522h195l92 221l-67 27q-21 -54 -74 -176h-81l-47 450l296 3v72zM306 815l-242 -299l56 -45l88 109v-647h72v736l81 101zM905 687l-95 95l-51 -50l96 -95z" />
    <glyph glyph-name="uni4EE4" unicode="&#x4ee4;" 
d="M812 21l-218 33l279 188v114h-769v-72h697v-4l-311 -211l-319 49l-11 -72l641 -97zM958 501l-425 271v56h-72v-58l-420 -283l40 -59l415 280l422 -269zM424 541l96 -95l50 50l-95 95z" />
    <glyph glyph-name="uni4EE5" unicode="&#x4ee5;" 
d="M498 -58l182 241l183 -241l57 43l-203 269v575h-72v-574l-204 -270zM80 829v-854h219l109 130l-56 47l-87 -105h-113v782h-72zM461 450l-95 95l-51 -50l96 -96z" />
    <glyph glyph-name="uni4EE8" unicode="&#x4ee8;" 
d="M284 810l-225 -300l58 -43l77 102v-639h72v735l76 102zM940 20h-593v-72h593v72zM914 758h-541v-72h541v72zM914 394h-541v-72h541v72z" />
    <glyph glyph-name="uni4EEA" unicode="&#x4eea;" 
d="M934 -15q-39 50 -119 150l-119 150l188 238v240h-72v-215l-162 -205q-39 49 -161 205v215h-72v-240l188 -238l-237 -300l55 -45l227 288l228 -288zM291 813l-226 -300l58 -43l77 102v-639h72v734l77 103zM578 752l96 -96l50 51l-95 95z" />
    <glyph glyph-name="uni4EEB" unicode="&#x4eeb;" 
d="M765 665l-412 -614v-103h481l102 136l-58 43q-15 -21 -40 -54l-41 -53h-372v10l400 596zM289 813l-225 -300l58 -43l77 102v-639h72v735l76 102zM592 813l-241 -359l60 -40l240 359z" />
    <glyph glyph-name="uni4EEC" unicode="&#x4eec;" 
d="M572 712h280v-710h-114v-72h186v854h-352v-72zM295 811l-219 -300l58 -43l73 100v-638h72v737l73 101zM476 -69v680h-72v-680h72zM521 727l-83 83l-51 -50l83 -83z" />
    <glyph glyph-name="uni4EEE" unicode="&#x4eee;" 
d="M497 -48l191 201l187 -204l52 49l-190 207l164 172v177h-451v138h405l81 68l-47 56q3 2 -61 -52h-450v-686l-72 -84l54 -47l90 106v429h379v-75l-141 -149l-166 182l-52 -49l169 -185l-194 -204zM261 810l-198 -300l60 -40l59 89v-630h72v740l67 102z" />
    <glyph glyph-name="uni4EF0" unicode="&#x4ef0;" 
d="M700 -70v771h154v-552h-103v-72h175v696h-298v-843h72zM276 809l-203 -300l60 -39l62 92v-632h72v739l68 101zM565 782h-194v-723h203v72h-131v579h122v72z" />
    <glyph glyph-name="uni4EF2" unicode="&#x4ef2;" 
d="M683 641v186h-72v-186h-251v-469h251v-242h72v242h249v469h-249zM281 811l-214 -300l59 -41l70 97v-636h72v737l73 102zM611 569v-325h-179v325h179zM683 244v325h177v-325h-177z" />
    <glyph glyph-name="uni4EF3" unicode="&#x4ef3;" 
d="M873 96l-47 -75h-94v808h-72v-880h205l69 109zM268 810l-202 -300l60 -39l61 91v-631h72v738l68 102zM582 21h-137v808h-72v-880h209v72zM873 572l-96 -96l51 -50l95 95zM576 572l-95 -96l50 -50l96 95z" />
    <glyph glyph-name="uni4EF5" unicode="&#x4ef5;" 
d="M676 -69v357h265v72h-265v278h241v72h-441v116h-72v-141l-99 -150l59 -40l95 143h145v-278h-264v-72h264v-357h72zM289 812l-230 -300l58 -43l80 104v-642h72v736l78 102z" />
    <glyph glyph-name="uni4EF6" unicode="&#x4ef6;" 
d="M918 620h-241v208h-72v-208h-130v128h-72v-156l-76 -136l63 -35l70 127h145v-235h-264v-72h264v-310h72v310h265v72h-265v235h241v72zM288 812l-231 -300l58 -43l81 105v-643h72v737l77 101z" />
    <glyph glyph-name="uni4EF7" unicode="&#x4ef7;" 
d="M294 812l-231 -300l58 -43l80 104v-642h72v736l78 102zM936 477l-274 296v54h-72v-55l-273 -295l52 -49l257 278l257 -278zM799 -68v516h-72v-516h72zM430 -59l97 158v349h-72v-328l-86 -142z" />
    <glyph glyph-name="uni4EFB" unicode="&#x4efb;" 
d="M925 20h-245v314h264v72h-264v293h135l84 49l-36 63q-11 -6 -34 -20l-34 -20h-413v-72h226v-293h-264v-72h264v-314h-245v-72h562v72zM297 812l-241 -300l56 -45l88 109v-646h72v736l81 101z" />
    <glyph glyph-name="uni4EFD" unicode="&#x4efd;" 
d="M415 -58l121 132v274h271v-327h-111v-72h183v471h-501v-72h86v-246l-103 -111zM296 811l-230 -299l58 -43l80 104v-642h72v735l77 101zM680 784l192 -323l61 36l-192 323zM522 820l-191 -323l61 -36l191 323z" />
    <glyph glyph-name="uni4EFF" unicode="&#x4eff;" 
d="M942 660h-599v-72h88v-507l-100 -81l45 -56l127 102v327h320v-352h-111v-72h183v496h-392v143h439v72zM288 811l-231 -300l58 -43l81 105v-642h72v736l77 101zM715 710l-95 96l-51 -51l96 -95z" />
    <glyph glyph-name="uni4F01" unicode="&#x4f01;" 
d="M948 23h-377v529h-72v-529h-190v421h-72v-421h-185v-72h896v72zM938 511l-402 260v59h-72v-62l-405 -286l41 -60l401 284l398 -257zM719 251l95 95l-50 50l-96 -95z" />
    <glyph glyph-name="uni4F09" unicode="&#x4f09;" 
d="M389 -57l105 96v378h294v-470h154v72h-82v470h-438v-417l-81 -75zM282 811l-224 -300l58 -43l76 102v-640h72v736l76 102zM942 667h-597v-72h597v72zM711 729l-83 83l-51 -50l83 -83z" />
    <glyph glyph-name="uni4F0A" unicode="&#x4f0a;" 
d="M460 -58l139 159v151h265v220h77v72h-77v227h-492v-72h155v-155h-205v-72h205v-148h-155v-72h155v-124l-121 -139zM283 812l-225 -300l58 -43l77 102v-640h72v736l76 102zM792 544h-193v155h193v-155zM599 324v148h193v-148h-193z" />
    <glyph glyph-name="uni4F0D" unicode="&#x4f0d;" 
d="M942 20h-67v470h-304l24 211h314v72h-549v-72h162l-24 -211h-135v-72h127l-46 -398h-117v-72h615v72zM803 20h-286l46 398h240v-398zM282 812l-224 -301l58 -43l76 102v-640h72v737l76 102z" />
    <glyph glyph-name="uni4F0E" unicode="&#x4f0e;" 
d="M366 409h437v-97l-172 -110l-198 127h-71v-72h48l153 -99l-237 -151l40 -61l264 169l265 -169l40 61l-237 152l177 114v208h-199v137h265v72h-265v138h-72v-138h-264v-72h264v-137h-238v-72zM284 813l-225 -301l58 -43l77 103v-641h72v737l76 102z" />
    <glyph glyph-name="uni4F0F" unicode="&#x4f0f;" 
d="M941 562h-270v267h-72v-267h-269v-72h248l-235 -521l67 -29l225 499l225 -499l67 29l-235 521h249v72zM283 813l-225 -301l58 -43l76 101v-639h72v736l77 103zM743 725l95 -96l51 51l-96 95z" />
    <glyph glyph-name="uni4F10" unicode="&#x4f10;" 
d="M855 124l-36 -104h-111l-36 191l231 180l-45 58l-201 -157l-44 234h328v72h-342l-42 226l-71 -12l40 -214h-185v-72h198l54 -284l-246 -192l45 -57l216 168l40 -213h222l54 151zM297 814l-239 -301l56 -45l86 109v-646h72v737l80 101zM699 749l95 -96l51 51l-96 95z" />
    <glyph glyph-name="uni4F11" unicode="&#x4f11;" 
d="M932 645h-246v184h-72v-184h-245v-72h181l-183 -546l68 -23l179 533v-606h72v610l184 -537l68 23l-186 546h180v72zM294 816l-232 -301l57 -43l82 106v-644h72v737l78 101z" />
    <glyph glyph-name="uni4F17" unicode="&#x4f17;" 
d="M937 495l-402 276v59h-72v-58l-401 -277l41 -60l396 273l397 -273zM935 -22l-214 348v180h-72v-180l-214 -348l61 -38l189 308l188 -308zM279 506v-180l-213 -348l61 -38l199 327l161 -107l40 59l-176 116v171h-72z" />
    <glyph glyph-name="uni4F18" unicode="&#x4f18;" 
d="M427 -58l127 134v438h112v-567h197l70 81l-54 47l-48 -56h-93v495h201v72h-385v234h-72v-234h-155v-72h155v-408l-107 -114zM270 811l-210 -300l59 -42l67 95v-634h72v737l71 102zM833 700l-83 83l-50 -51l83 -83z" />
    <glyph glyph-name="uni4F19" unicode="&#x4f19;" 
d="M933 -23l-256 426v425h-72v-425l-254 -426l61 -36l229 384l231 -384zM292 812l-225 -300l58 -43l77 102v-639h72v735l76 102zM501 492l-96 96l-50 -51l95 -95zM832 442l95 95l-50 51l-95 -96z" />
    <glyph glyph-name="uni4F1A" unicode="&#x4f1a;" 
d="M947 320h-894v-72h212l-105 -199v-100h644l79 157l-64 33l-61 -118h-526v12l114 215h601v72zM937 500l-401 271v57h-72v-57l-401 -271l39 -60l398 269l398 -269zM753 511h-506v-72h506v72z" />
    <glyph glyph-name="uni4F1B" unicode="&#x4f1b;" 
d="M942 21h-499v696h499v72h-571v-840h571v72zM281 811l-224 -300l58 -43l76 102v-639h72v735l76 102zM586 110l118 187l119 -187l61 38l-137 216l137 216l-61 38l-119 -187l-118 187l-61 -38l137 -216l-137 -216z" />
    <glyph glyph-name="uni4F1E" unicode="&#x4f1e;" 
d="M949 217h-413v372h-72v-372h-413v-72h413v-213h72v213h413v72zM937 499l-401 272v56h-72v-56l-401 -272l39 -60l398 269l398 -269zM744 447l-89 -94l52 -49l89 95zM204 399l89 -95l52 49l-89 94z" />
    <glyph glyph-name="uni4F1F" unicode="&#x4f1f;" 
d="M940 717h-311v110h-72v-110h-218v-72h218v-125h-187v-72h187v-121h-236v-72h236v-324h72v324h223v-175h-96v-72h168v319h-295v121h280v72h-280v125h311v72zM285 812l-225 -300l57 -43l78 104v-641h72v737l75 100z" />
    <glyph glyph-name="uni4F20" unicode="&#x4f20;" 
d="M582 823l-38 -113h-192v-72h168l-40 -120h-145v-72h121l-34 -102v-99h382l-163 -172l-272 53l-15 -70l528 -103l14 70l-171 33l152 159v102h-383v14l38 115h409v72h-385l40 120h328v72h-304l30 90zM276 811l-218 -299l58 -43l73 100v-637h72v736l72 100z" />
    <glyph glyph-name="uni4F22" unicode="&#x4f22;" 
d="M430 670l-50 -178v-100h149l-175 -425l67 -27l187 452h139v-372h-171v-72h243v444h121v72h-121v253h122v72h-572v-72h378v-253h-295v14l48 172zM267 810l-208 -300l59 -41l65 93v-631h72v735l71 103z" />
    <glyph glyph-name="uni4F24" unicode="&#x4f24;" 
d="M418 -55l140 153v276h279v-353h-109v-72h181v497h-351v136h-72v-136h-140v-72h140v-247l-122 -133zM269 811l-208 -300l59 -41l66 95v-633h72v737l70 101zM399 825v-133l-87 -126l59 -39l82 119h486v72h-468v107h-72z" />
    <glyph glyph-name="uni4F25" unicode="&#x4f25;" 
d="M640 21h-137v365h178l120 -437h140v72h-84l-101 365h185v72h-438v372h-72v-372h-110v-72h110v-437h209v72zM266 809l-208 -298l59 -42l66 95v-632h72v735l70 101zM855 811l-262 -237l48 -54l263 237z" />
    <glyph glyph-name="uni4F26" unicode="&#x4f26;" 
d="M414 465v-516h429l91 138l-61 39l-71 -105h-316v131l373 171l-29 65l-344 -157v234h-72zM283 811l-218 -300l58 -41l73 100v-638h72v737l73 101zM935 509l-278 261v57h-72v-57l-278 -261l49 -53l265 249l265 -249z" />
    <glyph glyph-name="uni4F27" unicode="&#x4f27;" 
d="M598 173h225v301h-409v-526h424l97 125l-58 43q-36 -48 -75 -96h-316v382h265v-157h-153v-72zM292 812l-227 -300l58 -43l78 103v-640h72v735l77 102zM934 514q-51 48 -277 257v57h-72v-57l-277 -257l49 -52l264 245l264 -245z" />
    <glyph glyph-name="uni4F2A" unicode="&#x4f2a;" 
d="M448 -60l180 595h220v-515h-113v-72h185v659h-270l59 194l-69 22l-66 -216h-201v-72h180l-174 -574zM297 812l-218 -299l57 -43l73 99v-637h72v736l74 101zM537 710l-77 77l-50 -51l76 -76zM781 293l-77 77l-50 -51l76 -76z" />
    <glyph glyph-name="uni4F2B" unicode="&#x4f2b;" 
d="M278 811l-220 -300l58 -43l73 100v-639h72v737l74 102zM424 437v124h425v-124h72v196h-569v-196h72zM942 19h-610v-72h610v72zM710 709l-96 96l-50 -51l95 -95z" />
    <glyph glyph-name="uni4F2F" unicode="&#x4f2f;" 
d="M702 691v138h-72v-138h-221v-742h515v742h-222zM852 619v-598h-371v598h371zM316 813l-241 -300l56 -45l88 109v-647h72v737l81 101zM739 309l-95 95l-50 -50l95 -96z" />
    <glyph glyph-name="uni4F30" unicode="&#x4f30;" 
d="M941 644h-265v185h-72v-185h-264v-72h264v-188h-215v-435h502v435h-215v188h265v72zM819 312v-291h-358v291h358zM298 813l-240 -300l56 -45l88 110v-648h72v738l80 100z" />
    <glyph glyph-name="uni4F32" unicode="&#x4f32;" 
d="M450 68v444h468v285h-540v-708l-72 -112l62 -38zM567 464v-516h293l69 110l-61 37l-48 -75h-181v180l299 111l-25 68l-274 -102v187h-72zM256 809l-194 -300l61 -39l56 86v-626h72v738l66 102zM450 584v141h396v-141h-396z" />
    <glyph glyph-name="uni4F34" unicode="&#x4f34;" 
d="M922 465h-252v364h-72v-364h-252v-72h252v-154h-271v-72h271v-235h72v235h271v72h-271v154h252v72zM284 812l-225 -300l58 -43l77 102v-641h72v737l76 102zM818 576l95 96l-50 50l-96 -95zM501 627l-96 95l-50 -50l95 -96z" />
    <glyph glyph-name="uni4F36" unicode="&#x4f36;" 
d="M854 19l-173 50l204 204v98h-535v-72h461l-207 -207l-226 66l-19 -68l475 -139zM274 811l-211 -300l60 -41l67 95v-635h72v738l71 102zM936 492l-282 276v60h-72v-60l-282 -276l51 -52l267 261l267 -261zM684 487l-82 83l-51 -51l83 -82z" />
    <glyph glyph-name="uni4F38" unicode="&#x4f38;" 
d="M687 673v156h-72v-156h-239v-555h239v-187h72v187h240v555h-240zM307 812l-234 -300l58 -43l83 106v-645h72v738l79 101zM855 429h-168v172h168v-172zM615 601v-172h-167v172h167zM687 190v167h168v-167h-168zM448 357h167v-167h-167v167z" />
    <glyph glyph-name="uni4F3A" unicode="&#x4f3a;" 
d="M396 441v-367h349v367h-349zM739 -52h183v837l-537 1v-72l465 -1v-693h-111v-72zM281 809l-204 -300l59 -39l63 92v-632h72v737l70 103zM673 369v-223h-205v223h205zM772 608h-403v-72h403v72z" />
    <glyph glyph-name="uni4F3C" unicode="&#x4f3c;" 
d="M639 -62l115 220l117 -220l63 34l-143 270v586h-72v-585l-143 -271zM278 811l-213 -300l60 -41l68 96v-635h72v737l72 102zM371 808v-799h137l59 123l-64 31q-13 -28 -40 -82h-20v727h-72zM520 525l83 -83l50 50l-83 83z" />
    <glyph glyph-name="uni4F3D" unicode="&#x4f3d;" 
d="M681 762v-813h246v813h-246zM295 609h67v-498l-83 -131l61 -39l94 146v522h93v-588h-75v-72h147v732h-165v148h-72v-148h-67v-72zM246 808l-174 -299l63 -36l43 74v-616h72v739l59 102zM855 690v-669h-102v669h102z" />
    <glyph glyph-name="uni4F43" unicode="&#x4f43;" 
d="M387 774v-826h535v826h-535zM275 809l-197 -300l59 -39l60 91v-631h72v741l65 99zM459 334h160v-314h-160v314zM691 20v314h159v-314h-159zM619 702v-296h-160v296h160zM850 406h-159v296h159v-296z" />
    <glyph glyph-name="uni4F46" unicode="&#x4f46;" 
d="M366 781v-651h515v651h-515zM809 709v-507h-371v507h371zM255 809l-197 -300l59 -39l59 89v-629h72v738l67 102zM941 20h-635v-72h635v72zM696 433l-95 95l-51 -50l96 -95z" />
    <glyph glyph-name="uni4F4D" unicode="&#x4f4d;" 
d="M272 809l-212 -298l59 -42l69 97v-636h72v737l72 101zM940 19h-601v-72h601v72zM940 659h-601v-72h601v72zM403 496l83 -424l71 15l-84 424zM806 511l-84 -424l70 -15l84 424zM706 730l-83 83l-50 -50l83 -83z" />
    <glyph glyph-name="uni4F4E" unicode="&#x4f4e;" 
d="M882 812l-66 -38h-453v-827h133l80 129l-61 38q-13 -22 -59 -95h-21v379h286l73 -451h148v72h-87l-61 379h147v72h-159l-37 232h89l82 47zM270 810l-213 -300l60 -41l68 96v-635h72v736l73 103zM435 702h237l37 -232h-274v232zM733 -4l-83 82l-50 -50l83 -83z" />
    <glyph glyph-name="uni4F4F" unicode="&#x4f4f;" 
d="M941 20h-271v252h258v72h-258v231h271v72h-614v-72h271v-231h-259v-72h259v-252h-271v-72h614v72zM280 811l-222 -300l58 -43l75 101v-639h72v736l75 102zM707 708l-95 97l-51 -51l96 -96z" />
    <glyph glyph-name="uni4F50" unicode="&#x4f50;" 
d="M941 21h-226v304h205v72h-426l69 205h378v72h-353l42 125l-69 23l-50 -148h-183v-72h159l-157 -470l68 -23l72 216h173v-304h-315v-72h613v72zM291 812l-233 -300l58 -43l82 105v-643h72v735l79 102z" />
    <glyph glyph-name="uni4F51" unicode="&#x4f51;" 
d="M377 203l61 133v-388h455v466h-420l88 192h379v72h-346l52 113l-65 30l-66 -143h-188v-72h155l-170 -372zM821 342v-322h-311v322h311zM277 811l-218 -299l58 -43l72 99v-638h72v737l73 100z" />
    <glyph glyph-name="uni4F53" unicode="&#x4f53;" 
d="M660 -68v148h105v72h-105v432l204 -592l69 24l-203 584h179v72h-249v158h-72v-158h-248v-72h180l-200 -584l68 -24l200 584v-424h-106v-72h106v-148h72zM250 811l-183 -300l61 -37l50 81v-623h72v741l61 100z" />
    <glyph glyph-name="uni4F55" unicode="&#x4f55;" 
d="M377 578v-431h324v431h-324zM641 -70h231v772h69v72h-588v-72h447v-700h-159v-72zM279 818l-220 -303l58 -41l74 101v-645h72v744l74 102zM629 506v-287h-180v287h180z" />
    <glyph glyph-name="uni4F57" unicode="&#x4f57;" 
d="M409 494v-545h444l81 126l-61 39l-60 -93h-332v178l420 158l-25 67l-395 -148v218h-72zM286 817l-221 -301l58 -43l75 102v-644h72v743l73 100zM436 528v117h425v-117h72v189h-249v111h-72v-111h-248v-189h72z" />
    <glyph glyph-name="uni4F58" unicode="&#x4f58;" 
d="M921 358h-842v-72h390v-265h-122v-72h194v337h380v72zM938 560l-201 114q-134 76 -201 113v42h-72v-42l-402 -227l36 -63l402 226l402 -226zM774 551h-549v-72h549v72zM151 -60l157 243l-61 40l-157 -243zM910 -20l-157 243l-61 -40l157 -243z" />
    <glyph glyph-name="uni4F59" unicode="&#x4f59;" 
d="M774 551h-549v-72h244v-121h-390v-72h390v-265h-122v-72h194v337h380v72h-380v121h233v72zM937 560l-200 114q-134 76 -201 113v42h-72v-42l-402 -227l36 -63l402 226l401 -226zM150 -60l158 243l-61 40l-158 -243zM910 -20l-158 243l-61 -40l158 -243z" />
    <glyph glyph-name="uni4F5A" unicode="&#x4f5a;" 
d="M405 793v-144l-90 -111l55 -45l87 107h137v-208h-276v-72h244l-230 -339l59 -39l239 350l237 -350l60 39l-115 169q-73 106 -116 170h244v72h-274v208h255v72h-255v157h-72v-157h-117v121h-72zM269 810l-209 -300l59 -41l67 96v-634h72v737l70 101z" />
    <glyph glyph-name="uni4F5B" unicode="&#x4f5b;" 
d="M743 -69v314h112v-152h-61v-72h133v296h-184v118h179v290h-179v103h-72v-103h-104v103h-72v-103h-136v-72h136v-146h-139l-14 -262h153v-132l-123 -116l49 -53l146 137v164h104v-314h72zM270 810l-197 -299l60 -39l58 88v-628h72v738l66 101zM743 507v146h107v-146h-107z
M567 653h104v-146h-104v146zM567 435h104v-118h-104v118zM418 317q3 55 5 118h72v-118h-77z" />
    <glyph glyph-name="uni4F5C" unicode="&#x4f5c;" 
d="M569 -68v189h371v72h-371v177h371v72h-371v188h371v72h-436v126h-72v-150l-106 -133l56 -45l103 130h12v-698h72zM279 812l-219 -299l57 -43l73 99v-637h72v736l74 101z" />
    <glyph glyph-name="uni4F5D" unicode="&#x4f5d;" 
d="M405 511v-412h348v412h-348zM436 828v-114l-113 -172l59 -40l109 166h358v-646h-110v-72h182v790h-413v88h-72zM284 811l-205 -299l59 -41l64 93v-632h72v737l69 101zM681 439v-268h-204v268h204z" />
    <glyph glyph-name="uni4F5E" unicode="&#x4f5e;" 
d="M940 595h-613v-72h81v-129h-81v-72h81v-126l143 -73l-221 -113l32 -65l269 137l270 -137l33 65q-74 37 -222 113l143 73v126h85v72h-460v129h460v72zM242 808l-183 -299l61 -37l49 80v-621h72v738l62 101zM910 799h-553v-72h553v72zM632 164l-152 77v81h303v-81z" />
    <glyph glyph-name="uni4F5F" unicode="&#x4f5f;" 
d="M334 209l280 212l281 -212l43 58l-264 199l190 144v146h-402v72h-72v-99l-96 -192l65 -33l40 80l156 -118l-264 -199zM244 809l-182 -299l61 -37l48 78v-619h72v736l63 103zM614 511l-183 139l17 34h344v-38zM684 207l-95 96l-50 -51l95 -95zM684 14l-95 95l-50 -50
l95 -96z" />
    <glyph glyph-name="uni4F60" unicode="&#x4f60;" 
d="M286 813l-221 -299l58 -43l75 102v-640h72v738l73 99zM444 826v-123l-108 -143l58 -43l104 139h364v-163h72v235h-418v98h-72zM620 551v-548h-112v-72h184v620h-72zM753 418l109 -368l68 20l-109 367zM463 437l-108 -367l68 -20l108 368z" />
    <glyph glyph-name="uni4F63" unicode="&#x4f63;" 
d="M691 -68v274h160v-185h-82v-72h154v835h-534v-701l-69 -100l59 -41l82 118v146h158v-274h72zM283 811l-207 -299l59 -41l65 94v-633h72v737l70 101zM851 529h-160v183h160v-183zM461 712h158v-183h-158v183zM691 457h160v-179h-160v179zM461 457h158v-179h-158v179z" />
    <glyph glyph-name="uni4F64" unicode="&#x4f64;" 
d="M339 700h105l-62 -666v-86h271v72h-199l43 473h284v-545h159v72h-87v545h-349l13 135h422v72h-600v-72zM258 810l-198 -299l59 -39l60 90v-630h72v739l66 100zM701 229l-96 95l-50 -50l95 -96z" />
    <glyph glyph-name="uni4F65" unicode="&#x4f65;" 
d="M940 471l-202 148q-134 99 -202 148v63h-72v-63l-404 -296l43 -58l397 290l397 -290zM947 22h-895v-72h895v72zM797 456h-595v-72h595v72zM727 125l95 96l-50 50l-96 -95zM573 176l-96 95l-50 -50l95 -96zM324 176l-96 95l-50 -50l95 -96z" />
    <glyph glyph-name="uni4F67" unicode="&#x4f67;" 
d="M286 813l-226 -299l57 -43l78 103v-641h72v736l76 101zM940 495h-329v334h-72v-334h-209v-72h610v72zM611 -67v444h-72v-444h72zM711 231l96 -96l50 51l-95 95zM762 589l95 95l-50 51l-96 -96z" />
    <glyph glyph-name="uni4F69" unicode="&#x4f69;" 
d="M940 21h-77v763h-549v-703l-63 -103l61 -38l74 121v651h405v-763h149v72zM625 -69v482h52v-358h72v430h-124v68h119v72h-311v-72h120v-68h-124v-430h72v358h52v-482h72zM201 805l-141 -298l65 -31l20 42v-587h72v740l49 104z" />
    <glyph glyph-name="uni4F6C" unicode="&#x4f6c;" 
d="M787 713h-187v114h-72v-114h-187v-72h187v-131h-231v-72h254l-278 -230l45 -56l97 80v-284h450l62 121l-65 32l-42 -81h-333v47l343 284l-45 56l-298 -246v131l176 146h277v72h-190l177 146l-45 56l-244 -202h-38v131h187v72zM247 810l-188 -299l61 -37l52 82v-623h72
v737l64 102z" />
    <glyph glyph-name="uni4F6F" unicode="&#x4f6f;" 
d="M680 -68v204h260v72h-260v131h235v72h-235v142h260v72h-592v-72h260v-142h-235v-72h235v-131h-260v-72h260v-204h72zM291 813l-232 -299l58 -45l81 104v-641h72v734l79 102zM765 660l95 95l-50 51l-96 -96zM574 710l-96 96l-50 -51l95 -95z" />
    <glyph glyph-name="uni4F70" unicode="&#x4f70;" 
d="M611 560l55 148h276v72h-582v-72h229l-57 -148h-145v-612h526v612h-302zM841 488v-468h-382v468h382zM290 813l-233 -299l58 -45l82 105v-642h72v734l79 102zM723 232l-95 95l-51 -50l96 -96z" />
    <glyph glyph-name="uni4F73" unicode="&#x4f73;" 
d="M927 249h-250v129h-72v-129h-250v-72h250v-156h-263v-72h599v72h-264v156h250v72zM927 704h-250v123h-72v-123h-250v-72h250v-140h-263v-72h599v72h-264v140h250v72zM290 814l-232 -299l58 -45l82 105v-642h72v735l78 101z" />
    <glyph glyph-name="uni4F74" unicode="&#x4f74;" 
d="M860 -70v140h81v72h-81v562h81v72h-609v-72h81v-562h-81v-72h456v-140h72zM485 704h303v-562h-303v562zM261 809l-203 -300l59 -39l63 92v-632h72v738l69 102zM563 326l95 -96l51 51l-96 95zM563 568l95 -95l51 50l-96 95z" />
    <glyph glyph-name="uni4F76" unicode="&#x4f76;" 
d="M391 315v-366h500v366h-500zM942 703h-265v125h-72v-125h-264v-72h264v-149h-247v-72h566v72h-247v149h265v72zM819 243v-222h-356v222h356zM290 812l-232 -300l58 -43l82 106v-644h72v737l78 101z" />
    <glyph glyph-name="uni4F7B" unicode="&#x4f7b;" 
d="M873 87q-10 -18 -40 -66h-87v807h-72v-879h198l63 100zM260 810l-196 -300l62 -39l56 86v-626h72v737l67 103zM406 -59l142 193v694h-72v-672l-127 -174zM343 195l96 96l-51 50l-95 -95zM293 591l95 -95l51 50l-96 96zM832 496l95 95l-50 51l-95 -96zM782 291l95 -96
l50 51l-95 95z" />
    <glyph glyph-name="uni4F7C" unicode="&#x4f7c;" 
d="M442 578v-94l-96 -90l49 -52l79 75l117 -139l-241 -287l55 -47l233 278l233 -278l56 47l-242 287l116 139l81 -75l49 52l-97 90v94h-72v-96l-124 -147l-124 147v96h-72zM273 811l-215 -300l59 -41l71 98v-637h72v737l73 102zM941 720h-266v108h-72v-108h-267v-72h605v72z
" />
    <glyph glyph-name="uni4F7E" unicode="&#x4f7e;" 
d="M514 819l-196 -320l61 -38l19 31v-561h72v534h313v-445h-90v-72h162v542l18 -29l62 38l-197 320l-61 -38l149 -244h-401l151 244zM288 811l-224 -299l58 -43l76 101v-640h72v736l76 102zM553 154l95 -96l51 51l-96 95zM553 361l95 -95l51 50l-96 96z" />
    <glyph glyph-name="uni4F7F" unicode="&#x4f7f;" 
d="M383 -57l137 154l389 -148l26 66l-364 140l108 121v7h242v288h-242v94h262v72h-262v92h-72v-92h-262v-72h262v-94h-242v-288h224l-89 -101l-122 47l-26 -67l97 -37l-120 -136zM270 810l-211 -299l59 -41l68 96v-635h72v736l72 102zM679 355v144h170v-144h-170zM607 499
v-144h-170v144h170z" />
    <glyph glyph-name="uni4F83" unicode="&#x4f83;" 
d="M365 786v-342h526v342h-526zM270 810l-212 -300l59 -41l69 97v-636h72v737l72 102zM819 714v-198h-382v198h382zM941 20h-75v363h-72v-435h147v72zM592 383v-453h72v453h-72zM367 -58l99 118v323h-72v-297l-83 -99z" />
    <glyph glyph-name="uni4F84" unicode="&#x4f84;" 
d="M941 20h-275v172h248v72h-248v155h160l58 132l-65 29l-38 -89h-337l98 225h372v72h-569v-72h119l-92 -215v-82h222v-155h-249v-72h249v-172h-276v-72h623v72zM271 810l-212 -300l59 -41l69 97v-636h72v737l72 102z" />
    <glyph glyph-name="uni4F88" unicode="&#x4f88;" 
d="M531 179l63 -99l-261 -60l17 -70l582 134v255h-416v62h-72v-80l-120 -91l43 -58l125 95h368v-126l-191 -44l-76 120zM531 613l59 -92h-216v-72h448l112 150v173h-418v56h-72v-75l-121 -97l45 -56l124 100h370v-78l-77 -101h-108l-84 132zM277 811l-211 -300l60 -41l67 95
v-634h72v737l71 102z" />
    <glyph glyph-name="uni4F89" unicode="&#x4f89;" 
d="M791 507l99 -85l46 54l-212 183h204v72h-263v97h-72v-97h-263v-72h203l-211 -183l47 -54l98 85v-66h324v66zM928 371h-598v-72h102l-27 -77v-86h397v-115h-313v-72h385v259h-397l32 91h419v72zM244 809l-181 -299l61 -38l48 79v-620h72v738l62 102zM629 647l155 -134
h-310z" />
    <glyph glyph-name="uni4F8B" unicode="&#x4f8b;" 
d="M360 330l110 200h79v-240l-112 59l-32 -65l119 -63l-130 -248l63 -34l164 314v349h-136v108h172v72h-325v-72h81v-136l-116 -209zM249 808l-174 -299l63 -36l42 72v-614h72v738l60 103zM708 -51h217v878h-72v-806h-145v-72zM771 124v619h-72v-619h72z" />
    <glyph glyph-name="uni4F8D" unicode="&#x4f8d;" 
d="M940 516h-265v136h247v72h-247v103h-72v-103h-247v-72h247v-136h-264v-72h601v72zM940 329h-103v84h-72v-84h-426v-72h426v-254h-201v-72h273v326h103v72zM276 811l-217 -300l58 -41l72 100v-639h72v739l72 100zM552 90l-95 95l-51 -50l96 -95z" />
    <glyph glyph-name="uni4F8F" unicode="&#x4f8f;" 
d="M666 -70v366l200 -298l60 40l-219 325h233v72h-274v175h249v72h-249v146h-72v-146h-139v88h-72v-112l-76 -102l58 -43l71 97h158v-175h-274v-72h233l-218 -325l60 -40l199 297v-365h72zM252 810l-193 -300l61 -39l56 86v-626h72v737l66 102z" />
    <glyph glyph-name="uni4F91" unicode="&#x4f91;" 
d="M551 820l-69 -115h-146v-72h104l-155 -261l61 -36l67 113v-519h72v523h337v-434h-98v-72h170v578h-436l64 108h419v72h-376l47 79zM266 811l-207 -300l59 -42l65 94v-633h72v737l70 102zM726 282l-96 96l-50 -51l95 -95zM726 68l-96 95l-50 -50l95 -95z" />
    <glyph glyph-name="uni4F94" unicode="&#x4f94;" 
d="M915 390h-249v106h-72v-106h-134v72h-72v-95l-73 -85l54 -47l70 83h155v-157h-274v-72h274v-159h72v159h274v72h-274v157h249v72zM279 811l-219 -299l57 -44l73 100v-638h72v736l74 102zM873 675q-30 -30 -63 -68h-364l138 166l-56 45l-158 -197v-86h470l85 92z" />
    <glyph glyph-name="uni4F97" unicode="&#x4f97;" 
d="M765 -53h159v838h-555v-854h72v782h411v-694h-87v-72zM510 441v-325h273v325h-273zM266 808l-190 -300l61 -37l54 85v-626h72v739l64 101zM711 369v-181h-129v181h129zM804 597h-316v-72h316v72z" />
    <glyph glyph-name="uni4F9B" unicode="&#x4f9b;" 
d="M916 659h-111v160h-72v-160h-217v160h-72v-160h-111v-72h111v-276h-134v-72h630v72h-135v276h111v72zM259 810l-199 -300l59 -40l60 90v-630h72v739l67 101zM516 587h217v-276h-217v276zM713 151l143 -209l60 41l-143 209zM477 191l-143 -208l60 -40l142 209z" />
    <glyph glyph-name="uni4F9D" unicode="&#x4f9d;" 
d="M486 387l100 145l275 -595l65 31l-155 334l137 67l-31 65l-136 -67l-92 199h291v72h-623v-72h204l-233 -341l59 -41l108 157v-393h199v72h-127v367h-41zM263 809l-204 -300l59 -39l63 92v-632h72v737l70 103zM702 710l-96 96l-50 -51l95 -95z" />
    <glyph glyph-name="uni4FA0" unicode="&#x4fa0;" 
d="M916 705h-250v123h-72v-123h-252v-72h252v-280h-277v-72h239l-225 -294l57 -44l242 314l241 -314l57 44q-108 140 -225 294h238v72h-275v280h250v72zM269 811l-211 -300l59 -41l68 96v-635h72v738l71 101zM803 422l96 96l-51 50l-95 -95zM505 473l-95 95l-50 -50l95 -96z
" />
    <glyph glyph-name="uni4FA3" unicode="&#x4fa3;" 
d="M372 338v-389h555v389h-555zM408 781v-342h483v342h-483zM855 266v-245h-411v245h411zM297 811l-225 -300l57 -43l78 104v-642h72v738l75 100zM819 709v-198h-339v198h339z" />
    <glyph glyph-name="uni4FA5" unicode="&#x4fa5;" 
d="M474 827v-83h-126v-72h126l133 -143l-257 -98l25 -66l284 109l106 -114h175v72h-145l-65 69l156 60l-25 66l-183 -70l-107 115h352v72h-377v83h-72zM940 304h-609v-72h124v-147l-109 -81l43 -58l138 103v183h202v-283h211v72h-139v211h139v72zM266 812l-207 -300l59 -41
l65 94v-633h72v737l70 102z" />
    <glyph glyph-name="uni4FA6" unicode="&#x4fa6;" 
d="M894 149v401h-269v130h297v72h-297v75h-72v-277h-173v-401h72v329h370v-329h72zM284 812l-219 -300l58 -43l73 100v-638h72v736l74 102zM935 2q-138 103 -262 199v223h-72v-223l-261 -199l43 -58l254 193l254 -193z" />
    <glyph glyph-name="uni4FA7" unicode="&#x4fa7;" 
d="M633 185v558h-316v-558h72v486h172v-486h72zM854 827v-806h-159v-72h231v878h-72zM222 818l-149 -304l65 -32l25 51v-602h72v749l52 106zM651 -13l-140 175v397h-72v-398l-140 -174l56 -45l120 150l120 -150zM772 109v653h-72v-653h72z" />
    <glyph glyph-name="uni4FA8" unicode="&#x4fa8;" 
d="M366 707h231v-128h-273v-72h221l-210 -211l51 -50l247 248l247 -248l50 50l-210 211h221v72h-272v128h169l71 47l-40 61l-53 -36h-450v-72zM262 809l-203 -299l59 -40l63 92v-632h72v738l69 102zM457 294v-211l-88 -90l53 -50l107 110v241h-72zM806 -70v362h-72v-362h72z
" />
    <glyph glyph-name="uni4FA9" unicode="&#x4fa9;" 
d="M930 318h-605v-72h151l-93 -196v-100h465l61 155l-66 26l-43 -109h-345v12l101 212h374v72zM260 810l-196 -300l62 -39l56 86v-626h72v737l67 103zM936 515l-272 257v57h-72v-57l-272 -257l50 -52l258 244l257 -244zM816 502h-377v-72h377v72z" />
    <glyph glyph-name="uni4FAA" unicode="&#x4faa;" 
d="M938 728h-263v102h-72v-102h-264v-72h72v-122l144 -69l-215 -103l30 -65l268 128l268 -128l30 65l-215 102l145 70v122h72v72zM246 809l-185 -299l61 -38l50 81v-623h72v739l63 102zM637 504l-154 74v78h311v-77zM447 294v-207l-89 -92l52 -51l109 114v236h-72zM837 -70
v362h-72v-362h72z" />
    <glyph glyph-name="uni4FAC" unicode="&#x4fac;" 
d="M600 827v-129h-258v-196h72v124h156l-286 -438l59 -39l111 169v-369h199v72h-127v407l81 125l263 -605l66 29l-132 305l132 72l-34 63l-126 -69l-120 278h204v-124h72v196h-260v129h-72zM261 810l-198 -300l59 -39l59 89v-630h72v739l67 101z" />
    <glyph glyph-name="uni4FAE" unicode="&#x4fae;" 
d="M882 -69v72h59v72h-59v185h60v72h-60v258h-499l66 92h493v72h-474v75h-72v-100l-86 -119l57 -41v-237h-72v-72h72v-257h443v-72h72zM256 810l-198 -300l59 -39l60 91v-632h72v741l66 100zM810 332h-371v186h371v-186zM439 260h371v-185h-371v185zM686 411l-75 77l-51 -50
l76 -77zM686 155l-75 76l-51 -50l76 -76z" />
    <glyph glyph-name="uni4FAF" unicode="&#x4faf;" 
d="M378 -56l251 217l251 -217l47 54l-203 175h217v72h-276v119h276v72h-497v63h-72v-90l-59 -95l61 -38l53 88h166v-119h-276v-72h216l-201 -175zM941 613h-77v188h-506v-72h434v-116h-475v-72h624v72zM252 809l-194 -300l61 -39l56 86v-627h72v738l66 102z" />
    <glyph glyph-name="uni4FB5" unicode="&#x4fb5;" 
d="M351 475h532v333h-532v-72h460v-58h-460v-72h460v-59h-460v-72zM366 133l142 -52l-166 -68l27 -67l240 99l272 -98l25 68l-197 71l128 53v149h-445v-72h373v-28l-157 -65l-217 79zM251 808l-185 -300l61 -37l51 82v-623h72v740l62 100zM934 263v153h-617v-153h72v81h473
v-81h72z" />
    <glyph glyph-name="uni4FBF" unicode="&#x4fbf;" 
d="M941 777h-599v-72h256v-90h-229v-372h190l-71 -88l-142 44l-22 -68l115 -36l-88 -109l55 -45l106 131l401 -125l22 68l-374 117l90 111h265v372h-246v90h271v72zM264 810l-205 -300l59 -41l64 93v-632h72v737l70 102zM844 464h-174v79h174v-79zM670 315v77h174v-77h-174z
M598 543v-79h-157v79h157zM441 392h157v-77h-157v77z" />
    <glyph glyph-name="uni4FC3" unicode="&#x4fc3;" 
d="M392 386v-310l-79 -84l52 -50l69 71l97 -65h410v72h-241v427h190v354h-501v-354h239v-427h-77l-87 59v307h-72zM818 729v-210h-357v210h357zM260 809l-202 -299l59 -39l63 93v-633h72v740l67 99zM812 187l83 83l-50 50l-83 -82z" />
    <glyph glyph-name="uni4FC4" unicode="&#x4fc4;" 
d="M331 -52h169v307l119 77l-40 61l-79 -52v147h182v-294l-146 -94l40 -60l106 69v-160h185l61 96l-61 38q-6 -11 -20 -31l-20 -31h-73v135l174 114l-39 59l-135 -88v247h188v72h-188v260h-72v-260h-182v136h8l81 45l-34 63l-66 -36h-162v-72h101v-136h-138v-72h138v-193
l-151 -98l39 -61l112 72v-188h-97v-72zM250 810l-192 -299l61 -40l54 84v-624h72v736l66 103zM930 673l-83 83l-50 -51l83 -82z" />
    <glyph glyph-name="uni4FC5" unicode="&#x4fc5;" 
d="M477 -52h182v381l213 -325l59 39l-175 267l166 164l-50 51l-156 -154l-57 87v119h281v72h-281v180h-72v-180h-263v-72h263v-215l-264 -261l50 -52l214 211v-240h-110v-72zM261 810l-202 -300l59 -39l62 92v-632h72v739l68 101zM476 402l-83 82l-51 -50l83 -82zM875 731
l-83 83l-50 -51l83 -82z" />
    <glyph glyph-name="uni4FCA" unicode="&#x4fca;" 
d="M459 170l104 -53l-212 -107l32 -64l260 131l261 -131l32 64l-214 107l124 63v162h-319v69h-72v-84l-113 -63l36 -63l124 69h272v-45l-132 -67l-150 76zM269 810l-206 -299l60 -42l64 93v-632h72v738l69 101zM513 818l-127 -172v-84h465l76 108l-60 41l-54 -77h-347
l104 140zM519 544l-191 -111l36 -63l191 111zM707 481l191 -111l36 63l-191 111z" />
    <glyph glyph-name="uni4FCE" unicode="&#x4fce;" 
d="M941 22h-61v777h-400v-777h-61v-72h522v72zM808 22h-256v705h256v-705zM409 425l-139 222v181h-72v-181l-139 -222l61 -37l114 181l114 -181zM409 -22l-139 221v181h-72v-181l-139 -221l61 -38l114 182l114 -182zM753 496l-96 94l-50 -50l95 -95zM753 213l-96 95l-50 -50
l95 -95z" />
    <glyph glyph-name="uni4FCF" unicode="&#x4fcf;" 
d="M739 -68h186v619h-229v276h-72v-276h-228v-621h72v549h385v-475h-114v-72zM283 811l-210 -300l60 -41l66 94v-633h72v737l71 102zM733 93l-95 95l-51 -50l96 -96zM733 319l-95 95l-51 -50l96 -96zM844 635l83 82l-51 51l-83 -82zM528 686l-83 82l-50 -51l82 -82z" />
    <glyph glyph-name="uni4FD0" unicode="&#x4fd0;" 
d="M516 -69v422l67 -138l65 31l-102 209h90v72h-120v152h65l67 40l-38 61l-50 -29h-227v-72h111v-152h-119v-72h90l-122 -306l67 -27l84 210v-401h72zM685 -52h241v881h-72v-809h-169v-72zM249 808l-176 -299l63 -36l44 74v-616h72v739l60 102zM763 114v616h-72v-616h72z
" />
    <glyph glyph-name="uni4FD1" unicode="&#x4fd1;" 
d="M680 -71v167h175v-94h-84v-72h156v613h-140l125 175v82h-546v-72h465l-132 -185h-109l-111 144l-57 -45l76 -99h-138v-614h72v167h176v-167h72zM266 809l-194 -300l62 -39l55 85v-625h72v736l66 103zM432 471h176v-116h-176v116zM855 355h-175v116h175v-116zM432 283h176
v-115h-176v115zM680 283h175v-115h-175v115z" />
    <glyph glyph-name="uni4FD7" unicode="&#x4fd7;" 
d="M936 300l-274 279v76h-72v-76l-275 -279l53 -50l26 26v-329h463v329l26 -26zM266 810l-202 -300l60 -40l61 91v-631h72v738l68 102zM785 214v-195h-319v195h319zM626 512l222 -226h-445zM498 819l-182 -275l60 -39l182 274zM694 779l181 -274l60 39l-181 275z" />
    <glyph glyph-name="uni4FD8" unicode="&#x4fd8;" 
d="M342 413h462l-185 -153h-277v-72h254v-168h-123v-72h195v240h272v72h-207l143 118v107h-534v-72zM246 809l-187 -299l61 -38l51 81v-622h72v737l64 103zM342 701h487l77 54l-40 59l-57 -41h-467v-72zM495 578l-82 83l-51 -50l83 -83zM794 528l83 83l-50 50l-83 -83z
M686 578l-83 83l-50 -50l83 -83z" />
    <glyph glyph-name="uni4FDA" unicode="&#x4fda;" 
d="M940 21h-278v124h245v72h-245v119h221v461h-514v-461h221v-119h-244v-72h244v-124h-278v-72h628v72zM262 810l-202 -299l59 -41l62 91v-630h72v736l69 102zM811 602h-149v123h149v-123zM590 725v-123h-149v123h149zM441 530h149v-122h-149v122zM662 408v122h149v-122
h-149z" />
    <glyph glyph-name="uni4FDC" unicode="&#x4fdc;" 
d="M651 756v72h-72v-72h-238v-354h550v354h-240zM941 340h-652v-72h113l-35 -67v-81h438v-99h-329v-72h401v243h-434l41 76h457v72zM246 809l-188 -299l61 -37l52 82v-623h72v737l64 102zM819 614h-168v70h168v-70zM579 684v-70h-166v70h166zM651 474v68h168v-68h-168z
M413 542h166v-68h-166v68z" />
    <glyph glyph-name="uni4FDD" unicode="&#x4fdd;" 
d="M657 -69v300l224 -236l52 48l-228 241h235v72h-283v106h223v327h-517v-327h222v-106h-282v-72h234l-226 -241l52 -48l222 236v-300h72zM261 809l-201 -299l59 -39l62 92v-632h72v738l68 101zM808 717v-183h-373v183h373z" />
    <glyph glyph-name="uni4FDE" unicode="&#x4fde;" 
d="M367 -51h155v519h-395v-535h72v463h251v-375h-83v-72zM940 585l-404 197v46h-72v-46l-404 -197l30 -65l410 199l409 -199zM695 -50h188v530h-72v-458h-116v-72zM699 606h-398v-72h398v72zM696 98v358h-72v-358h72zM391 257l-83 83l-50 -51l83 -83zM391 83l-83 83l-50 -51
l83 -82z" />
    <glyph glyph-name="uni4FDF" unicode="&#x4fdf;" 
d="M374 -55l254 229l254 -229l48 54l-209 188h219v72h-276v126h276v72h-499v61h-72v-85l-61 -83l58 -43l57 78h169v-126h-277v-72h219l-209 -188zM259 810l-200 -299l59 -40l61 91v-631h72v738l67 101zM495 818l-126 -169v-83h483l76 109l-59 41l-55 -78h-365l103 137z" />
    <glyph glyph-name="uni4FE1" unicode="&#x4fe1;" 
d="M380 255v-306h533v306h-533zM261 811l-203 -299l59 -41l63 92v-631h72v737l69 101zM841 183v-162h-389v162h389zM942 727h-259v102h-72v-102h-260v-72h591v72zM926 412h-559v-72h559v72zM926 566h-559v-72h559v72z" />
    <glyph glyph-name="uni4FE3" unicode="&#x4fe3;" 
d="M372 789v-268h522v268h-522zM918 444h-570v-72h249v-108h-272v-72h219l-205 -197l50 -52l244 235l244 -235l50 52l-205 197h218v72h-271v108h249v72zM262 810l-202 -299l59 -41l62 91v-630h72v736l69 102zM822 717v-124h-378v124h378z" />
    <glyph glyph-name="uni4FE6" unicode="&#x4fe6;" 
d="M551 828v-68h-219v-72h201l-36 -88h-165v-72h135l-37 -90h-121v-72h91l-121 -294l66 -27l65 157h373v-181h-139v-72h211v253h86v72h-86v92h86v72h-434l38 90h373v72h-344l37 88h307v72h-295v68h-72zM252 810l-193 -300l61 -39l56 86v-626h72v738l66 102zM478 366h305v-92
h-343zM588 44l-82 82l-50 -50l82 -82z" />
    <glyph glyph-name="uni4FE8" unicode="&#x4fe8;" 
d="M940 772h-603v-72h179v-253h-168v-378l-61 -90l59 -39l74 109v326h520v72h-178v253h178v72zM252 809l-193 -300l61 -39l56 86v-625h72v737l66 102zM588 700h102v-253h-102v253zM840 506l83 80l-50 52l-83 -80zM486 558l-81 80l-51 -52l82 -80z" />
    <glyph glyph-name="uni4FE9" unicode="&#x4fe9;" 
d="M637 135l44 -19l59 133l60 -133l44 19v-115h-83v-72h155v625h-140v140h160v72h-597v-72h160v-140h-139v-642h72v204l44 -19l59 133l59 -133zM261 810l-198 -300l60 -39l59 89v-629h72v738l67 102zM637 197l-66 150v154h133v-154zM571 713h133v-140h-133v140zM844 194
l-68 153v154h68v-307zM432 196v305h67v-154z" />
    <glyph glyph-name="uni4FEA" unicode="&#x4fea;" 
d="M460 -52h128v676h-263v-693h72v388l72 -71l47 46v-274h-56v-72zM789 -52h127v676h-262v-693h72v387l72 -70l46 46v-274h-55v-72zM231 808l-169 -299l63 -36l39 69v-611h72v738l58 103zM937 788h-634v-72h634v72zM397 327v225h119v-250l-73 72zM726 328v224h118v-250
l-72 72z" />
    <glyph glyph-name="uni4FED" unicode="&#x4fed;" 
d="M289 813l-224 -300l58 -43l76 102v-640h72v736l76 102zM934 531l-260 231v66h-72v-66l-261 -231l46 -54l251 221l249 -221zM933 21h-606v-72h606v72zM897 410h-519v-72h519v72zM514 167l-82 82l-51 -51l83 -82zM810 116l83 82l-50 51l-83 -82zM704 167l-83 82l-50 -51
l83 -82z" />
    <glyph glyph-name="uni4FEE" unicode="&#x4fee;" 
d="M449 356l227 135l224 -135l38 61l-192 115l153 91v130h-337v74h-72v-99l-89 -130l59 -42l31 46l116 -70l-194 -115zM244 810l-182 -300l61 -37l48 78v-619h72v737l63 103zM892 60l-44 -37h-444v-72h469l64 53zM382 67v519h-72v-519h72zM852 210l-44 -37h-367v-72h392
l64 53zM819 368l-44 -37h-301v-72h327l63 53zM677 574l-145 87l13 20h282v-18z" />
    <glyph glyph-name="uni4FEF" unicode="&#x4fef;" 
d="M940 733h-276v94h-72v-94h-259v-650l-54 -114l64 -30l62 129v293l21 -20l73 79v-489h72v568l68 74l-52 49l-182 -198v237h535v72zM239 809l-180 -300l61 -36l47 78v-619h72v739l61 102zM940 495h-61v123h-72v-123h-176v-72h176v-402h-114v-72h186v474h61v72zM751 226
l-83 83l-50 -51l83 -82z" />
    <glyph glyph-name="uni4FF1" unicode="&#x4ff1;" 
d="M941 211h-84v563h-479v-563h-83v-72h646v72zM785 211h-335v491h335v-491zM243 809l-184 -299l61 -38l50 81v-621h72v738l62 101zM893 3l-95 95l-51 -50l96 -96zM393 -48l95 96l-50 50l-96 -95zM691 590l-96 91l-50 -52l95 -92zM691 282l-96 92l-50 -53l95 -91zM691 435
l-96 92l-50 -53l95 -91z" />
    <glyph glyph-name="uni4FF3" unicode="&#x4ff3;" 
d="M771 -68v147h170v72h-170v188h170v72h-170v207h170v72h-170v137h-72v-895h72zM559 -68v895h-72v-137h-170v-72h170v-207h-170v-72h170v-188h-170v-72h170v-147h72zM254 811l-195 -300l61 -39l57 87v-627h72v738l66 101z" />
    <glyph glyph-name="uni4FF8" unicode="&#x4ff8;" 
d="M921 762h-252v67h-72v-67h-253v-72h253v-64h-244v-72h244v-62h-272v-72h206l-195 -157l45 -56l252 203l252 -203l45 56l-195 157h205v72h-271v62h244v72h-244v64h252v72zM808 257h-139v81h-72v-81h-138v-72h138v-83h-250v-72h250v-98h72v98h250v72h-250v83h139v72z
M253 811l-193 -300l61 -39l56 86v-626h72v738l66 102z" />
    <glyph glyph-name="uni4FFA" unicode="&#x4ffa;" 
d="M920 731h-256v98h-72v-98h-257v-72h197l-212 -184l47 -54l5 4v-319h216v-174h263l81 76l-49 53l-58 -57h-165v102h223v321l7 -6l46 54l-212 184h196v72zM239 809l-176 -299l63 -36l44 74v-615h72v738l60 102zM588 538v-73h-171l211 182l211 -182h-179v73h-72zM660 178v72
h151v-72h-151zM811 322h-151v71h151v-71zM444 250h144v-72h-144v72zM588 393v-71h-144v71h144z" />
    <glyph glyph-name="uni4FFE" unicode="&#x4ffe;" 
d="M940 189h-208v114h-72v-114h-199l183 150h256v406h-309v83h-72v-83h-147v-406h158l-126 -104l37 -46h-104v-72h323v-185h72v185h208v72zM278 812l-218 -300l57 -41l73 100v-639h72v738l73 101zM668 411v97h160v-97h-160zM828 580h-160v93h160v-93zM444 508h152v-97h-152
v97zM596 673v-93h-152v93h152z" />
    <glyph glyph-name="uni500C" unicode="&#x500c;" 
d="M477 222v89h423v252h-495v-614h495v273h-423zM278 813l-208 -300l59 -41l66 95v-634h72v738l70 101zM930 591v156h-242v81h-72v-81h-242v-156h72v84h412v-84h72zM477 21v129h351v-129h-351zM477 383v108h351v-108h-351z" />
    <glyph glyph-name="uni500D" unicode="&#x500d;" 
d="M379 302v-353h514v353h-514zM821 230v-209h-370v209h370zM276 813l-217 -300l58 -41l72 100v-639h72v739l72 100zM917 736h-245v92h-72v-92h-245v-72h562v72zM940 454h-608v-72h608v72zM538 545l-82 83l-51 -51l82 -83zM784 494l83 83l-50 51l-83 -83z" />
    <glyph glyph-name="uni500F" unicode="&#x500f;" 
d="M465 371l219 129l214 -129l38 61l-183 110l145 86v127h-323v71h-72v-92l-107 -118l54 -49l44 48l121 -73l-186 -110zM939 275h-84v87h-72v-87h-68v121h-72v-121h-223v-72h207l-199 -209l52 -51l199 209l199 -209l52 51l-200 209h209v72zM224 809l-163 -299l63 -35l35 64
v-606h72v739l56 103zM370 113v544h-72v-544h72zM684 584l-142 85l13 14h271v-15z" />
    <glyph glyph-name="uni5012" unicode="&#x5012;" 
d="M640 777h-323v-72h70l-57 -198v-78h113v-151h-126v-72h126v-184h-133v-72h338v72h-133v184h125v72h-125v151h68l40 148l-70 18l-13 -47q-9 -31 -13 -47h-123l58 204h178v72zM233 809l-160 -299l63 -35l34 63v-604h72v739l54 102zM731 -51h195v879h-72v-807h-123v-72z
M764 115v615h-72v-615h72z" />
    <glyph glyph-name="uni5014" unicode="&#x5014;" 
d="M432 60v511h500v226h-572v-718l-63 -99l61 -37zM859 492v-165h-103v204h-72v-204h-109v165h-72v-237h181v-235h-109v186h-72v-258h428v258h-72v-186h-103v235h175v237h-72zM257 810l-189 -300l61 -37l53 84v-625h72v739l64 101zM432 643v82h428v-82h-428z" />
    <glyph glyph-name="uni5018" unicode="&#x5018;" 
d="M764 -69h159v643h-241v252h-72v-252h-242v-641h72v569h411v-499h-87v-72zM517 409v-302h257v302h-257zM270 812l-194 -300l61 -39l56 86v-626h72v736l67 103zM702 337v-158h-113v158h113zM828 642l95 95l-50 51l-96 -96zM513 692l-95 96l-50 -51l95 -95z" />
    <glyph glyph-name="uni5019" unicode="&#x5019;" 
d="M494 -56l190 210l190 -210l54 49q-54 59 -162 179h175v72h-221v116h221v72h-402v62h-72v-88l-54 -93l63 -36l48 83h124v-116h-220v-72h174l-162 -179zM941 606h-62v185h-431v-72h359v-113h-379v-72h513v72zM232 809l-174 -299l63 -36l42 72v-614h72v738l60 103zM376 72
v592h-72v-592h72z" />
    <glyph glyph-name="uni501A" unicode="&#x501a;" 
d="M919 762h-249v64h-72v-64h-249v-72h197l-216 -156l41 -60l263 190l263 -190l41 60l-217 156h198v72zM360 306v-287h304v287h-304zM941 447h-615v-72h472v-355h-95v-72h167v427h71v72zM270 813l-211 -300l59 -41l69 97v-636h72v738l71 100zM592 234v-143h-160v143h160z
" />
    <glyph glyph-name="uni501C" unicode="&#x501c;" 
d="M770 -51h159v836h-560v-704l-64 -105l61 -36l75 124v649h416v-692h-87v-72zM266 811l-195 -300l61 -39l57 87v-627h72v738l66 102zM504 335v-260h288v260h-288zM809 619h-125v59h-72v-59h-125v-72h125v-74h-125v-72h322v72h-125v74h125v72zM720 263v-116h-144v116h144z
" />
    <glyph glyph-name="uni501F" unicode="&#x501f;" 
d="M388 353v-404h500v404h-500zM922 742h-105v86h-72v-86h-213v86h-72v-86h-106v-72h106v-153h-123v-72h603v72h-123v153h105v72zM816 281v-260h-356v260h356zM263 812l-204 -300l59 -39l63 92v-632h72v737l70 102zM532 670h213v-153h-213v153zM711 133l-95 96l-50 -51
l95 -95z" />
    <glyph glyph-name="uni5021" unicode="&#x5021;" 
d="M369 353v-405h557v405h-557zM406 794v-354h484v354h-484zM854 281v-261h-413v261h413zM297 812l-224 -300l58 -43l76 102v-640h72v736l76 102zM818 722v-210h-340v210h340zM720 593l-95 96l-50 -51l95 -95zM720 124l-95 96l-50 -51l95 -95z" />
    <glyph glyph-name="uni5025" unicode="&#x5025;" 
d="M941 20h-275v213h237v72h-547v-72h238v-213h-276v-72h623v72zM248 809l-189 -300l61 -37l53 84v-625h72v739l64 101zM424 543v113h411v-113h72v185h-241v97h-72v-97h-242v-185h72zM546 560l-222 -136l38 -61l222 136zM673 499l221 -136l38 61l-221 136z" />
    <glyph glyph-name="uni5026" unicode="&#x5026;" 
d="M913 653h-249v175h-72v-175h-250v-72h250v-82h-275v-72h209l-201 -162l45 -56l60 48v-309h415l84 93l-54 48q-12 -14 -32 -34l-32 -35h-309v204h246v-57h-195v-72h267v166l65 -52l45 56l-201 162h210v72h-275v82h249v72zM257 810l-197 -300l59 -39l60 91v-631h72v741
l65 99zM628 417l149 -121h-299zM799 689l76 76l-50 51l-77 -77zM508 739l-76 77l-51 -51l77 -76z" />
    <glyph glyph-name="uni5028" unicode="&#x5028;" 
d="M424 63v484h493v249h-565v-716l-62 -107l63 -34zM938 418h-204v82h-72v-82h-203v-72h203v-108h-172v-291h416v291h-172v108h204v72zM243 808l-182 -300l61 -37l49 80v-621h72v738l62 102zM424 619v105h421v-105h-421zM834 166v-147h-272v147h272z" />
    <glyph glyph-name="uni5029" unicode="&#x5029;" 
d="M925 770h-262v59h-72v-59h-261v-72h261v-61h-242v-72h242v-61h-276v-72h625v72h-277v61h243v72h-243v61h262v72zM737 -52h147v419h-515v-436h72v364h371v-275h-75v-72zM259 810l-200 -300l59 -39l61 91v-631h72v739l67 101zM693 22l-82 83l-51 -51l83 -83zM693 177
l-82 83l-51 -50l83 -83z" />
    <glyph glyph-name="uni502A" unicode="&#x502a;" 
d="M660 708h147v-332h-374v332h78l83 37l-29 67q-1 -1 -70 -32h-134v-476h98v-194l-105 -114l54 -49l123 134v223h150v-357h185l68 115l-63 36l-46 -79h-72v285h126v476h-219v-72zM258 809l-192 -299l61 -40l54 84v-624h72v737l66 103zM699 481l83 82l-51 50l-83 -82z
M592 531l-83 82l-50 -50l82 -82z" />
    <glyph glyph-name="uni502C" unicode="&#x502c;" 
d="M665 -69v148h277v72h-277v88h223v377h-263v84h281v72h-281v58h-72v-214h-184v-377h224v-88h-278v-72h278v-148h72zM816 544v-233h-375v233h375zM260 810l-202 -299l59 -40l62 92v-632h72v739l68 101zM702 405l-96 96l-50 -51l95 -95z" />
    <glyph glyph-name="uni502D" unicode="&#x502d;" 
d="M407 377v-60h-80v-72h80v-101l126 -51l-201 -80l27 -67l272 108l272 -108l27 67l-202 80l127 51v101h85v72h-461v60h-72zM670 361v169l228 -148l39 61l-182 118h186v72h-271v78h153l77 34l-29 67l-63 -29h-439v-72h229v-78h-272v-72h186l-181 -118l39 -61q45 28 114 74
q93 61 114 74v-169h72zM261 809l-202 -299l59 -40l62 91v-631h72v738l69 102zM631 132l-152 61v52h304v-52z" />
    <glyph glyph-name="uni502E" unicode="&#x502e;" 
d="M670 -70v254l206 -217l52 48l-211 224h225v72h-272v75h219v400h-510v-400h219v-75h-272v-72h225l-211 -224l52 -48l206 216v-253h72zM267 810l-210 -300l60 -41l66 94v-633h72v737l71 102zM817 620h-147v94h147v-94zM598 714v-94h-147v94h147zM451 548h147v-90h-147v90z
M670 458v90h147v-90h-147z" />
    <glyph glyph-name="uni503A" unicode="&#x503a;" 
d="M915 779h-258v50h-72v-50h-258v-72h258v-58h-258v-72h258v-66h-284v-72h640v72h-284v66h258v72h-258v58h258v72zM242 811l-183 -300l61 -37l50 81v-623h72v741l61 100zM893 125v254h-544v-254h72v182h400v-182h72zM932 10l-275 146v111h-72v-111l-275 -146l34 -63
l277 147l277 -147z" />
    <glyph glyph-name="uni503C" unicode="&#x503c;" 
d="M915 753h-263v75h-72v-75h-263v-72h263v-86h-203v-574h-84v-72h647v72h-85v574h-203v86h263v72zM783 21h-334v502h334v-502zM243 818l-184 -302l61 -38l50 81v-628h72v746l63 103zM683 409l-83 83l-51 -51l83 -83zM683 256l-83 82l-51 -51l83 -82zM683 104l-83 82
l-51 -50l83 -83z" />
    <glyph glyph-name="uni503E" unicode="&#x503e;" 
d="M941 775h-462v-72h196v-110h-154v-436h72v364h235v-364h72v436h-153v110h194v72zM234 817l-176 -304l63 -36l43 74v-622h72v746l61 106zM489 132h-89v354h76v72h-76v234h-72v-732h161v72zM928 -9l-181 203v276h-72v-276l-183 -203l54 -48l165 182l163 -182z" />
    <glyph glyph-name="uni5043" unicode="&#x5043;" 
d="M484 672v-285h36v-52h-51v-72h51v-69l77 -31l-128 -50l27 -66l198 78l198 -78l27 66l-128 50l78 31v69h55v72h-332v52h314v285h-422zM941 791h-586v-843h586v72h-514v699h514v72zM252 809l-193 -300l61 -39l55 85v-625h72v737l66 103zM834 600v-141h-278v141h278z
M694 201l-102 41v21h205v-21zM758 518l-76 75l-51 -50l77 -76z" />
    <glyph glyph-name="uni5047" unicode="&#x5047;" 
d="M610 382h-185v109h189v290h-261v-850h72v198h185v72h-185v109h185v72zM639 351h217v-76l-75 -96l-56 75v57h-72v-81l83 -109l-106 -136l58 -43l93 119l92 -120l57 43l-104 136l102 130v173h-289v-72zM261 809l-192 -300l61 -39l55 86v-625h72v737l65 102zM651 515h276
v266h-276v-72h204v-122h-204v-72zM425 563v146h117v-146h-117z" />
    <glyph glyph-name="uni5048" unicode="&#x5048;" 
d="M390 788v-326h76l-169 -173l50 -50l28 28v-282h366v72h-294v213h-70l42 43h190v-7l-121 -139l54 -46l103 117l102 -117l54 46l-120 139v7h176v-293h-93v-72h165v437h-439l76 77h343v326h-519zM279 810l-209 -300l59 -41l67 96v-635h72v738l70 101zM837 716v-182h-375v182
h375zM713 614l-75 75l-51 -53l76 -74z" />
    <glyph glyph-name="uni504C" unicode="&#x504c;" 
d="M576 594v-101h-261v-72h200l-245 -213l47 -54l96 83v-288h485v361h-401l128 111h316v72h-293v101h-72zM256 811l-197 -300l59 -39l59 89v-630h72v740l66 100zM941 734h-129v94h-72v-94h-224v94h-72v-94h-129v-72h129v-108h72v108h224v-108h72v108h129v72zM826 238v-217
h-341v217h341z" />
    <glyph glyph-name="uni504E" unicode="&#x504e;" 
d="M360 786v-378h534v378h-534zM940 344h-626v-72h68v-325h212v72h-140v253h59l287 -325h140v72h-108l-40 44l118 93l-45 57l-121 -95l-136 154h332v72zM278 812l-219 -300l58 -43l73 100v-639h72v738l73 101zM591 714v-82h-159v82h159zM822 632h-159v82h159v-82zM663 480
v80h159v-80h-159zM432 560h159v-80h-159v80z" />
    <glyph glyph-name="uni504F" unicode="&#x504f;" 
d="M800 -69v219h57v-219h72v518h-464v-518h72v219h62v-219h72v219h57v-219h72zM612 748h-270v-671l-57 -105l63 -34l66 122v461h515v227h-245v80h-72v-80zM255 810l-184 -300l61 -37l50 81v-623h72v740l62 101zM414 593v83h443v-83h-443zM537 377h62v-155h-62v155zM671 377
h57v-155h-57v155zM857 222h-57v155h57v-155z" />
    <glyph glyph-name="uni5055" unicode="&#x5055;" 
d="M554 359l19 42l-67 29l-31 -71h-105v-411h530v411h-346zM828 287v-267h-386v267h386zM253 811l-193 -299l61 -39l56 86v-624h72v735l66 102zM676 828v-375h264v72h-192v303h-72zM356 828v-375h263v72h-191v303h-72zM523 608l95 95l-51 51l-94 -96zM708 131l-95 95
l-50 -50l94 -96zM824 608l95 95l-50 51l-95 -96z" />
    <glyph glyph-name="uni505A" unicode="&#x505a;" 
d="M583 636h-97v175h-72v-175h-97v-72h97v-176h-84v-385h240v385h-84v176h97v72zM675 827v-149l-118 -207l63 -36l112 198h96v-324l-42 -66l-33 63v188h-72v-204l60 -115l-126 -196l61 -40l104 162l82 -155l63 34l-100 189l75 117v347h39v72h-192v122h-72zM243 810
l-182 -299l61 -37l49 80v-619h72v737l61 100zM498 316v-241h-96v241h96z" />
    <glyph glyph-name="uni505C" unicode="&#x505c;" 
d="M370 627v-207h528v207h-528zM246 810l-191 -300l62 -37l54 85v-626h72v739l64 101zM938 202h-609v-72h269v-127h-131v-72h203v199h268v72zM945 239v125h-621v-125h72v53h477v-53h72zM938 753h-268v76h-72v-76h-269v-72h609v72zM826 555v-63h-384v63h384z" />
    <glyph glyph-name="uni5065" unicode="&#x5065;" 
d="M513 146h159v-90h72v90h197v72h-197v70h197v72h-197v60h156v128h41v72h-41v137h-156v69h-72v-69h-150v-72h150v-65h-159v-72h159v-56h-150v-72h150v-60h-159v-72h159v-70h-159v-72zM339 -64l48 164l110 -156h444v72h-406l-122 172l63 213v81h-100l100 206v84h-169v-72h94
l-104 -217v-73h107l-43 -147l-44 63l-59 -42l76 -109l-64 -219zM226 809l-168 -300l63 -36l39 69v-610h72v739l57 102zM828 620h-84v65h84v-65zM744 492v56h84v-56h-84z" />
    <glyph glyph-name="uni506C" unicode="&#x506c;" 
d="M389 827v-92l-95 -142l59 -39l90 136h91l-60 -101l-38 23l-38 -61l39 -24l-119 -198l61 -38l119 199l74 -45l-70 -116l61 -38l70 117l59 -36l37 61l-59 36l133 221h20v-323h-98v-72h170v467h-434v65h-72zM246 810l-181 -300l61 -37l48 79v-620h72v739l61 101zM789 67
l-48 -46h-231v245h-72v-317h332l69 67zM619 690h100l-110 -184l-74 45zM934 121l-77 76l-50 -50l76 -77zM332 68l76 76l-50 51l-77 -77zM697 168l-76 77l-50 -50l76 -77z" />
    <glyph glyph-name="uni5076" unicode="&#x5076;" 
d="M366 797v-376h236v-78h-258v-413h72v341h186v-128h-146v-72h300l70 74l-52 50l-49 -52h-51v128h185v-252h-89v-72h161v396h-257v78h235v376h-543zM262 810l-193 -300l61 -39l55 85v-625h72v736l67 103zM438 574h164v-81h-164v81zM674 493v81h163v-81h-163zM602 725v-79
h-164v79h164zM837 646h-163v79h163v-79z" />
    <glyph glyph-name="uni5077" unicode="&#x5077;" 
d="M604 -69v534h-256v-534h72v130l67 -69l45 42v-103h72zM936 561l-283 212v52h-72v-52l-284 -212l44 -58l121 90v-68h311v67l120 -89zM259 811l-196 -300l61 -40l57 87v-627h72v737l67 103zM704 -72h178v534h-72v-462h-106v-72zM734 39v408h-72v-408h72zM617 709l150 -112
h-301zM532 238v-188l-67 69l-45 -44v189l67 -69zM420 277v116h112v-139l-67 67z" />
    <glyph glyph-name="uni507B" unicode="&#x507b;" 
d="M401 346v-48h-92v-72h92v-81l126 -50l-202 -81l27 -66l272 108l273 -108l27 66q-115 45 -203 81l127 50v81h92v72h-467v48h-72zM661 365v154l233 -157l40 59l-192 130h198v72h-279v203h-72v-203h-280v-72h199l-192 -130l40 -59l233 157v-154h72zM236 809l-177 -300
l63 -36l45 76v-617h72v739l60 102zM625 134l-76 30q-47 18 -76 30v32h303v-32zM802 668l83 82l-50 50l-83 -82zM498 718l-83 82l-50 -50l83 -82z" />
    <glyph glyph-name="uni507E" unicode="&#x507e;" 
d="M263 811l-204 -300l59 -39l63 92v-632h72v737l70 102zM941 562h-104v74h-72v-74h-276v74h-72v-74h-104v-72h104v-70h72v70h276v-70h72v70h104v72zM877 128v257h-500v-257h72v185h356v-185h72zM353 -53l274 146l273 -146l35 63l-272 146v119h-72v-119l-272 -146zM900 752
h-237v75h-72v-75h-238v-72h238v-83h72v83h237v72z" />
    <glyph glyph-name="uni507F" unicode="&#x507f;" 
d="M939 268h-615v-72h111l-74 -166v-81h495l59 131l-65 29l-39 -88h-377l80 175h425v72zM270 812l-210 -300l59 -41l67 95v-634h72v737l71 102zM927 448v167h-260v212h-72v-212h-260v-167h72v95h448v-95h72zM939 410h-615v-72h615v72zM508 709l-95 96l-51 -51l96 -95z
M805 659l95 95l-51 51l-94 -96z" />
    <glyph glyph-name="uni5080" unicode="&#x5080;" 
d="M380 -57l214 292v-286h269l71 89l-56 45l-25 -31q-17 -20 -25 -31h-162v289h236v419h-295v98h-72v-98h-173v-419h197l-236 -324zM266 811l-200 -299l60 -39l60 90v-630h72v737l67 101zM873 202q-9 -16 -31 -44h-56l67 95l-60 41l-97 -140v-68h185l52 74zM666 382v102h164
v-102h-164zM830 556h-164v101h164v-101zM434 484h160v-102h-160v102zM594 657v-101h-160v101h160z" />
    <glyph glyph-name="uni5085" unicode="&#x5085;" 
d="M940 753h-67v74h-72v-74h-127v73h-72v-73h-267v-72h267v-53h-250v-381h72v46h178v-48h72v48h176v-46h72v381h-248v53h266v72zM256 811l-197 -299l59 -39l59 89v-629h72v738l66 100zM940 200h-58v36h-72v-36h-475v-72h475v-124h-119v-72h191v196h58v72zM424 556h178v-60
h-178v60zM850 496h-176v60h176v-60zM424 424h178v-59h-178v59zM674 424h176v-59h-176v59zM550 3l-95 95l-50 -50l95 -96z" />
    <glyph glyph-name="uni5088" unicode="&#x5088;" 
d="M939 789h-607v-72h184v-82h-165v-259h569v259h-164v82h183v72zM672 -66v213l204 -204l51 50l-204 204h216v72h-267v52h-72v-52h-268v-72h216l-204 -204l51 -50l205 204v-213h72zM252 809l-192 -299l61 -39l55 85v-623h72v734l66 103zM588 563h96v-115h-96v115zM516 563
v-115h-93v115h93zM756 448v115h92v-115h-92zM588 717h96v-82h-96v82z" />
    <glyph glyph-name="uni508D" unicode="&#x508d;" 
d="M780 553h-445v-144h72v72h211l-50 -50l68 -66h-312v-72h87v-222l-79 -71l46 -54l105 93v98h325v-116h-97v-72h169v260h-397v84h458v72h-287l41 41l-75 75h236v-72h72v144h-148l76 76l-50 51l-77 -77zM248 809l-189 -299l61 -38l53 84v-625h72v739l64 101zM929 753h-261
v75h-72v-75h-262v-72h595v72zM535 603l-76 77l-51 -51l77 -76z" />
    <glyph glyph-name="uni5091" unicode="&#x5091;" 
d="M653 -69v212l235 -187l45 56l-227 181h230v72h-283v96h-72v-96h-283v-72h230l-227 -181l45 -56l235 187v-212h72zM938 748h-92v79h-72v-79h-156v-72h156v-169h-64v110h-72v-182h136v-129h72v129h92v72h-92v169h92v72zM220 814l-159 -302l63 -34l33 62v-607h72v744l54 102
zM346 559l90 -87l-119 -114l51 -52l206 198v245h-156v78h-72v-102l-90 -104l54 -47l88 103h104v-141l-14 -14l-92 89z" />
    <glyph glyph-name="uni50A3" unicode="&#x50a3;" 
d="M911 769h-255v59h-72v-59h-257v-72h257v-64h-257v-72h257v-66h-286v-72h215l-208 -157l43 -58l271 205l272 -205l44 58l-209 157h215v72h-285v66h255v72h-255v64h255v72zM234 808l-175 -299l63 -36l42 72v-614h72v737l61 104zM523 -51h132v392h-72v-320h-60v-72zM926 29
l-192 91l-31 -65l192 -91zM344 -33l191 88l-31 65l-190 -88zM547 185l-77 76l-50 -50l76 -77zM743 134l76 77l-50 50l-76 -76z" />
    <glyph glyph-name="uni50A5" unicode="&#x50a5;" 
d="M438 -56l120 93v173h135v-261h178l62 101l-61 37l-42 -66h-65v189h107v256h-483v-256h97v-137l-91 -71zM247 808l-180 -299l61 -36l47 78v-620h72v739l61 102zM932 493v144h-266v191h-72v-191h-265v-144h72v72h459v-72h72zM800 394v-112h-339v112h339zM818 677l76 76
l-50 50l-77 -76zM494 727l-77 76l-50 -50l76 -76z" />
    <glyph glyph-name="uni50A7" unicode="&#x50a7;" 
d="M940 204h-139v135h115v72h-459v83h372l72 53l-22 29h47v159h-260v93h-72v-93h-261v-159h72v87h449v-61l-48 -36h-421v-362h-85v-72h640v72zM242 809l-183 -299l61 -38l50 81v-622h72v740l61 100zM457 339h272v-135h-272v135zM864 4l-96 95l-50 -50l95 -96zM427 -47l95 96
l-50 50l-95 -95z" />
    <glyph glyph-name="uni50A8" unicode="&#x50a8;" 
d="M881 733l-54 -51v42h-142v104h-72v-104h-141v-72h141v-113h-162v-72h148l-167 -158l48 -52l51 48v-355h352v419h-285l104 98h239v72h-163l151 142zM230 808l-172 -299l63 -36l41 71v-613h72v738l59 103zM811 297v-275h-208v275h208zM470 77h-69v462h-137v-72h65v-462h141
v72zM774 143l-83 83l-51 -50l83 -83zM423 659l-71 72l-50 -50l71 -72zM795 652l-110 -104v104h110z" />
    <glyph glyph-name="uni50A9" unicode="&#x50a9;" 
d="M942 678h-321v112h-72v-134l-55 -55v137h-216v-72h144v-141l-32 -96l-31 95v93h-72v-104l64 -199l-103 -308l68 -24l73 217l70 -216l68 22l-100 308l61 182l61 60v-624h72v44h321v72h-125v129h125v72h-125v139h125v72h-125v147h125v72zM221 807l-164 -300l63 -34l36 65
v-608h72v740l56 102zM621 606h124v-147h-124v147zM621 387h124v-139h-124v139zM621 176h124v-129h-124v129zM847 728l-82 83l-51 -50l83 -83z" />
    <glyph glyph-name="uni50AC" unicode="&#x50ac;" 
d="M941 491h-245l41 40l-65 65h255v200h-72v-128h-412v128h-72v-200h277l-38 -39l66 -66h-235v63h-72v-88l-100 -127l55 -45l45 57v-420h72v37h500v72h-231v72h231v72h-231v81h231v72h-231v82h231v72zM262 809l-203 -299l59 -40l63 92v-632h72v738l69 102zM441 419h197v-82
h-197v82zM441 265h197v-81h-197v81zM441 112h197v-72h-197v72zM715 728l-82 83l-50 -50l82 -83z" />
    <glyph glyph-name="uni50B2" unicode="&#x50b2;" 
d="M616 564l23 -20l46 54v-269l70 -149l-99 -212l64 -31l75 159l75 -159l65 31l-100 212l70 149v329h37v72h-185v96h-72v-119l-100 -116h-93v75h124v72h-124v92h-72v-92h-124v-72h124v-75h-124v-72h124v-80h-124v-72h50v-311l-50 -84l61 -36l61 102v180h113v-203h-72v-72
h144v347h-185v77h198v72h-124v80h124v45zM247 809l-189 -299l61 -38l52 82v-623h72v738l65 103zM795 264l-38 81v313h76v-313z" />
    <glyph glyph-name="uni50BA" unicode="&#x50ba;" 
d="M621 828v-152l252 -417l61 38l-134 221l101 152v101h-208v57h-72zM354 828v-82l-81 -128l61 -39l76 120h98v-3l-48 -85l-55 34l-38 -61l57 -36l-29 -51l-58 38l-38 -61l61 -39l-80 -141l63 -36l237 418v95h-154v57h-72zM246 809l-181 -299l61 -37l48 79v-620h72v738
l61 101zM861 255h-504v-72h216v-163h-97v-72h169v235h216v72zM749 414h-281v-72h281v72zM374 -11l83 82l-51 51l-82 -82zM893 40l-82 82l-50 -51l82 -82zM760 585l-67 112v2h136v-9z" />
    <glyph glyph-name="uni50BB" unicode="&#x50bb;" 
d="M516 828v-63h-158v-356h50l-114 -117l52 -51l164 168h209l164 -168l51 51l-116 117h82v356h-312v63h-72zM365 -52l269 103l278 -104l25 68l-201 75l92 35v152h-306v55h-72v-74l-122 -119l50 -52l72 69v-36l83 -31l-193 -74zM828 693v-212h-398v212h398zM258 810
l-196 -300l61 -39l57 87v-626h72v736l67 103zM492 497l137 55l137 -55l27 67l-68 27l68 28l-27 67l-137 -56l-137 56l-27 -67l68 -28l-68 -27zM635 128l-113 42v35h234v-31z" />
    <glyph glyph-name="uni50CF" unicode="&#x50cf;" 
d="M515 -68h151v264l69 35l135 -260l63 35l-134 257l119 59l-33 65l-219 -109v55l-84 56l43 24h272v208h-55l37 50v109h-414v49h-72v-74l-95 -130l45 -32v-180h133l-194 -105l34 -63l195 106l61 -42l-289 -144l32 -65l279 140v-66l-311 -156l32 -65l279 139v-88h-79v-72z
M252 809l-186 -299l61 -38l51 82v-623h72v738l63 102zM753 621h-368l62 87h360v-15zM653 485v64h172v-64h-172zM581 549v-64h-166v64h166z" />
    <glyph glyph-name="uni50D6" unicode="&#x50d6;" 
d="M940 264h-137l54 55l-29 29h87v196h-552v-196h87l-29 -29l54 -55h-136v-72h601v72zM371 145v-200h536v200h-536zM940 790h-265v39h-72v-39h-264v-72h264v-51h-259v-72h591v72h-260v51h265v72zM263 810l-204 -300l59 -39l64 93v-633h72v739l69 101zM835 73v-56h-392v56
h392zM843 472v-52h-408v52h408zM760 264h-241l29 29l-56 55h294l-55 -55z" />
    <glyph glyph-name="uni50DA" unicode="&#x50da;" 
d="M926 752h-254v75h-72v-75h-254v-72h204l-95 -101l-69 60l-47 -54l67 -58l-69 -73l52 -51l1 1v-224h211v-160h-76v-72h148v232h209v223l53 51l-70 73l67 58l-47 54l-69 -60l-95 101h205v72zM261 810l-196 -300l61 -39l58 88v-628h72v737l67 102zM635 664l188 -199h-376z
M613 393h197v-141h-148l47 46zM613 393l-50 -50l91 -91h-192v141h151zM397 -27l96 95l-51 51l-95 -96zM924 23l-96 96l-50 -51l95 -95z" />
    <glyph glyph-name="uni50E6" unicode="&#x50e6;" 
d="M311 597v-315h101v-261h-72v-72h144v333h100v315h-273zM940 597h-156v230h-72v-230h-79v-72h72l-108 -577l70 -13l110 590h163v72zM207 806l-148 -299l65 -33l25 50v-593h72v739l51 104zM940 22h-89v452h-72v-524h161v72zM624 726h-140v101h-72v-101h-141v-72h353v72z
M512 525v-171h-129v171h129zM927 706l-77 75l-50 -50l76 -76zM615 145l-76 76l-51 -50l77 -76zM331 95l75 76l-50 50l-76 -76z" />
    <glyph glyph-name="uni50E7" unicode="&#x50e7;" 
d="M840 726v101h-72v-101h-253v101h-72v-101h-88v-363h573v363h-88zM370 299v-348h543v348h-543zM841 227v-204h-399v204h399zM270 809l-199 -300l59 -39l60 90v-630h72v739l67 101zM606 654v-219h-179v219h179zM678 435v219h178v-219h-178zM715 104l-95 95l-51 -50l96 -96z
M580 537l-76 77l-51 -51l77 -76zM754 487l76 76l-50 51l-77 -77z" />
    <glyph glyph-name="uni50EC" unicode="&#x50ec;" 
d="M941 704h-239l35 34l-77 77l-50 -51l60 -60h-229v89h-72v-113l-101 -137l57 -43l44 59v-462h72v55h500v72h-231v82h231v72h-231v90h231v72h-231v92h231v72zM257 808l-199 -299l59 -40l60 90v-630h72v739l67 101zM441 632h197v-92h-197v92zM441 468h197v-90h-197v90z
M441 306h197v-82h-197v82zM391 -57l78 75l-50 52l-78 -75zM928 -6l-76 76l-51 -51l77 -75zM622 -6l-76 76l-51 -51l77 -75zM775 -6l-76 76l-51 -51l77 -75z" />
    <glyph glyph-name="uni50ED" unicode="&#x50ed;" 
d="M369 301v-353h532v353h-532zM619 379l48 -39l115 143v-126h159v72h-87v121h87v72h-87v112h87v72h-288v-72h129v-112h-48v80h-72v-152h81l-124 -156v35h-88v121h88v72h-88v112h88v72h-288v-72h128v-112h-47v80h-72v-152h80l-131 -165l56 -45l114 143v-126h160v22zM829 229
v-209h-388v209h388zM254 808l-195 -299l59 -39l58 88v-628h72v738l66 101zM709 102l-96 95l-50 -50l95 -96z" />
    <glyph glyph-name="uni50EE" unicode="&#x50ee;" 
d="M940 17h-283v43h260v72h-260v45h241v312h-554v-312h241v-45h-259v-72h259v-43h-283v-72h638v72zM940 605h-165l62 63l-37 37h102v72h-245v52h-72v-52h-244v-72h101l-37 -37l63 -63h-166v-72h638v72zM261 809l-201 -299l59 -40l61 91v-631h72v738l68 102zM747 605h-252
l37 37l-63 63h305l-63 -63zM585 417v-49h-169v49h169zM826 368h-169v49h169v-49zM416 296h169v-47h-169v47zM657 249v47h169v-47h-169z" />
    <glyph glyph-name="uni50F3" unicode="&#x50f3;" 
d="M940 789h-616v-72h180v-84h-161v-234h577v234h-161v84h181v72zM667 -69v193l212 -181l47 54l-198 168h212v72h-273v117h-72v-117h-271v-72h210l-196 -168l47 -54q70 59 210 181v-193h72zM235 806l-176 -299l61 -36l45 76v-617h72v738l60 102zM576 561h111v-90h-111v90z
M576 717h111v-84h-111v84zM504 561v-90h-89v90h89zM759 471v90h89v-90h-89zM512 304l-77 77l-50 -51l76 -76zM802 254l76 76l-50 51l-76 -77z" />
    <glyph glyph-name="uni50F5" unicode="&#x50f5;" 
d="M346 702v-254h568v254h-568zM346 297v-247h568v247h-568zM243 808l-183 -299l61 -38l49 80v-621h72v739l62 102zM940 11h-620v-72h620v72zM940 410h-620v-72h620v72zM940 813h-620v-72h620v72zM613 630l-43 -42l67 -68h-219v110h195zM629 630h213v-110h-187l41 42z
M612 225l-42 -41l61 -62h-213v103h194zM630 225h212v-103h-182l36 36z" />
    <glyph glyph-name="uni50FB" unicode="&#x50fb;" 
d="M380 357v89h186v323h-258v-495l-65 -101l61 -40l52 80v-264h210v408h-186zM805 -68v205h126v72h-126v152h136v72h-345v-72h137v-152h-126v-72h126v-205h72zM208 806l-149 -299l65 -33l26 52v-595h72v740l51 103zM941 737h-136v88h-72v-88h-137v-72h345v72zM380 518v179
h114v-179h-114zM494 285v-264h-66v264h66zM846 494l76 77l-50 50l-77 -77zM742 544l-76 77l-51 -50l77 -77z" />
    <glyph glyph-name="uni5104" unicode="&#x5104;" 
d="M377 488v-279h509v279h-509zM934 607h-162l68 68l-37 37h104v72h-240v46h-72v-46h-240v-72h106l-39 -40l66 -65h-160v-72h606v72zM269 807l-203 -299l60 -40l62 92v-630h72v737l68 101zM783 65l-36 -36h-217v152h-72v-224h317l58 58zM744 607h-224l34 34l-71 71h293
l-68 -68zM615 416h199v-135h-156l45 46zM603 416l-45 -44l90 -91h-199v135h154zM703 124l-82 82l-51 -50l83 -82zM932 63l-82 82l-50 -50l82 -82zM360 13l82 82l-50 50l-82 -82z" />
    <glyph glyph-name="uni5106" unicode="&#x5106;" 
d="M467 -60h142v561l39 -24l44 72v-226l73 -160l-90 -196l64 -31l65 142l66 -142l65 31q-63 134 -91 196l74 160v319h26v72h-180v113h-72v-139l-83 -136v5h-228v47h-72v-75l-66 -128l50 -26v-331h206v357h-176l43 84h171v-473h-70v-72zM205 806l-150 -299l65 -33l29 58v-601
h72v745l49 98zM646 761h-77v64h-72v-64h-90v64h-72v-64h-63v-72h63v-76h72v76h90v-76h72v76h77v72zM804 248q-14 30 -40 90v304h82v-304zM427 329v-213h-62v213h62z" />
    <glyph glyph-name="uni5107" unicode="&#x5107;" 
d="M937 -3l-77 53l67 79l-54 47l-72 -85l-162 113h272v206h-565v-206h91l-140 -134l51 -53q18 17 53 52t53 52v-181h155v72h-83v178l3 3l367 -256zM346 815v-249h565v249h-565zM247 809l-188 -300l61 -38l52 83v-624h72v739l64 102zM941 521h-625v-72h625v72zM523 743
l-39 -40l64 -64l50 51l-53 53h154l-40 -40l64 -64l51 51l-53 53h118v-105h-421v105h105zM839 338v-62h-421v62h421z" />
    <glyph glyph-name="uni510B" unicode="&#x510b;" 
d="M378 827v-57l-78 -121l43 -27v-554l-62 -90l60 -41l74 108v539h526v72h-109l46 57v84h-428v30h-72zM462 138v-198h457v198h-457zM254 810l-195 -300l61 -39l57 87v-627h72v738l66 101zM941 449h-214v58h-72v-58h-214v-72h500v72zM927 243h-471v-72h471v72zM927 345h-471
v-72h471v72zM433 725h363l-57 -69h-350zM847 66v-54h-313v54h313zM529 459l63 64l-51 50l-63 -64zM903 509l-63 64l-50 -50l63 -64z" />
    <glyph glyph-name="uni5112" unicode="&#x5112;" 
d="M755 -70v217h105v-218h72v290h-261v54h269v72h-610v-72h269v-54h-261v-290h72v218h105v-217h72v217h96v-217h72zM671 383v228h189v-227h72v299h-261v47h262v72h-596v-72h262v-47h-261v-299h72v227h189v-228h72zM243 807l-184 -299l61 -37l60 96v-637h72v753l53 86z
M446 538l45 -45l-45 -45l64 -64l50 51l-45 44l45 46l-64 63zM710 538l45 -45l-45 -45l64 -64l50 51l-45 44l45 46l-64 63z" />
    <glyph glyph-name="uni5121" unicode="&#x5121;" 
d="M324 799v-373h566v373h-566zM631 365v-422h300v422h-300zM284 365v-422h299v422h-299zM203 803l-135 -298l65 -31l23 51v-595h72v754l40 89zM571 727v-80h-175v80h175zM818 647h-175v80h175v-80zM643 498v77h175v-77h-175zM396 575h175v-77h-175v77zM746 293v-111h-43
v111h43zM511 182h-42v111h42v-111zM859 182h-41v111h41v-111zM397 293v-111h-41v111h41zM703 110h43v-95h-43v95zM469 15v95h42v-95h-42zM818 15v95h41v-95h-41zM356 110h41v-95h-41v95z" />
    <glyph glyph-name="uni5140" unicode="&#x5140;" 
d="M948 787h-896v-72h202v-535l-189 -181l51 -52l210 202v566h271v-751h249l83 242l-68 23l-67 -193h-125v679h279v72z" />
    <glyph glyph-name="uni5140" unicode="&#xfa0c;" 
d="M948 787h-896v-72h202v-535l-189 -181l51 -52l210 202v566h271v-751h249l83 242l-68 23l-67 -193h-125v679h279v72z" />
    <glyph glyph-name="uni5141" unicode="&#x5141;" 
d="M848 582l-73 -96h-579l218 288l-58 44l-235 -318v-86h153v-286l-193 -121l37 -62l228 143v326h257v-459h242l74 201l-68 25l-58 -154h-118v387h136l95 123z" />
    <glyph glyph-name="uni5143" unicode="&#x5143;" 
d="M948 481h-897v-72h219v-278l-208 -125l37 -61l243 146v318h269v-462h247l76 169l-67 29q-10 -24 -28 -63l-29 -63h-127v390h265v72zM870 786h-741v-72h741v72z" />
    <glyph glyph-name="uni5144" unicode="&#x5144;" 
d="M129 800v-421h155v-252l-220 -119l35 -63l257 139v295h274v-431h218l87 141l-62 38l-64 -107h-107v359h172v421h-745zM802 728v-277h-601v277h601z" />
    <glyph glyph-name="uni5145" unicode="&#x5145;" 
d="M949 717h-413v112h-72v-112h-413v-72h236l-158 -208v-86h144v-223l-210 -119l34 -63l248 140v265h252v-401h250l89 113l-55 45l-68 -86h-144v329h151l90 123l-57 42q-11 -16 -34 -46l-35 -47h-579l172 222h572v72z" />
    <glyph glyph-name="uni5146" unicode="&#x5146;" 
d="M729 347l95 -94l50 50l-95 95zM779 526l95 94l-50 50l-95 -94zM108 620l96 -94l50 50l-95 94zM159 253l95 94l-50 51l-96 -95zM562 827v-878h285l86 177l-65 31l-66 -136h-168v806h-72zM332 827v-643l-265 -179l40 -59l297 201v680h-72z" />
    <glyph glyph-name="uni5148" unicode="&#x5148;" 
d="M948 401h-413v226h348v72h-348v130h-72v-130h-207v107h-72v-133l-107 -160l59 -39l103 153h224v-226h-412v-72h245v-213l-231 -100l29 -66l274 118v261h231v-380h257l76 156l-65 31l-56 -115h-140v308h277v72z" />
    <glyph glyph-name="uni5149" unicode="&#x5149;" 
d="M463 829v-371h-412v-72h214v-253l-201 -117l36 -63l237 138v295h264v-436h248l80 207l-66 25l-62 -160h-128v364h275v72h-413v371h-72zM114 752l172 -233l57 43l-172 233zM827 795l-171 -233l57 -43l171 233z" />
    <glyph glyph-name="uni514B" unicode="&#x514b;" 
d="M467 829v-91h-414v-72h414v-115h-336v-299h168v-121l-203 -116l36 -63l239 135v165h239v-303h241l79 137l-63 36l-59 -101h-126v231h192v299h-335v115h408v72h-408v91h-72zM802 479v-155h-599v155h599z" />
    <glyph glyph-name="uni514D" unicode="&#x514d;" 
d="M266 829v-88l-203 -178l49 -54l60 53v-322h230l-336 -233l42 -59l375 260v-259h366l87 114l-58 43l-65 -85h-258v219h323v330h-139l99 106v85h-500v68h-72zM316 689h437l-111 -119h-461zM555 312v186h251v-186h-251zM483 498v-186h-239v186h239z" />
    <glyph glyph-name="uni5150" unicode="&#x5150;" 
d="M652 544l-108 109l-50 -51l108 -109zM855 107l-53 -85h-127v273h-72v-345h240l73 119zM122 -53l205 124v224h-72v-184l-171 -103zM283 810v-469h581v469h-581zM792 738v-325h-437v325h437zM172 324v504h-72v-504h72z" />
    <glyph glyph-name="uni5151" unicode="&#x5151;" 
d="M115 646v-353h173v-166l-207 -119l36 -63l243 139v209h235v-344h238l86 114l-57 43l-65 -85h-130v272h194v353h-746zM789 574v-209h-602v209h602zM373 729l-83 83l-50 -51l83 -82zM653 679l82 82l-51 51l-81 -83z" />
    <glyph glyph-name="uni5152" unicode="&#x5152;" 
d="M125 -55l190 132v207h282v-334h231l89 118l-58 43l-67 -89h-123v262h192v478h-345v-72h273v-334h-614v334h149l108 57l-33 65l-93 -50h-203v-478h140v-169l-160 -110zM622 444l96 95l-51 51l-95 -96zM392 494l-95 96l-51 -51l96 -95z" />
    <glyph glyph-name="uni5154" unicode="&#x5154;" 
d="M233 829v-88l-168 -162l51 -52l168 163h468l-115 -119h-458v-310h228l-342 -252l43 -57l373 274v-277h368l86 114l-58 43l-65 -85h-259v240h314v310h-129l100 103v88h-533v67h-72zM553 333v166h242v-166h-242zM481 499v-166h-230v166h230zM792 129l-82 82l-51 -51l82 -82
z" />
    <glyph glyph-name="uni5155" unicode="&#x5155;" 
d="M563 781v-205h-120v205h-339v-491h191v-194l-232 -78l24 -68l280 94v246h242v-344h255l72 166l-67 29l-52 -123h-136v272h216v491h-334zM825 709v-347h-649v347h195v-205h264v205h190z" />
    </font>
</defs>
</svg>
